<svg width="16" height="16" viewBox="0 0 16 16" fill="none" xmlns="http://www.w3.org/2000/svg">
    <path d="M0 2C0 0.895431 0.895431 0 2 0H14C15.1046 0 16 0.895431 16 2V14.557C16 15.2552 15.3026 15.7385 14.6489 15.4933L8.35112 13.1317C8.12474 13.0468 7.87526 13.0468 7.64888 13.1317L1.35112 15.4933C0.697372 15.7385 0 15.2552 0 14.557V2Z" fill="#F2C87C"/>
    <path d="M5.48566 11H10.4457V9.76H8.84566C8.49566 9.76 8.00566 9.8 7.63566 9.84C8.98566 8.52 10.0957 7.08 10.0957 5.74C10.0957 4.36 9.16566 3.46 7.76566 3.46C6.75566 3.46 6.09566 3.85 5.41566 4.58L6.21566 5.38C6.59566 4.97 7.03566 4.62 7.57566 4.62C8.28566 4.62 8.68566 5.07 8.68566 5.82C8.68566 6.96 7.49566 8.35 5.48566 10.15V11Z" fill="white"/>
</svg>
