<svg width="16" height="16" viewBox="0 0 16 16" fill="none" xmlns="http://www.w3.org/2000/svg">
    <path d="M0 2C0 0.895431 0.895431 0 2 0H14C15.1046 0 16 0.895431 16 2V14.557C16 15.2552 15.3026 15.7385 14.6489 15.4933L8.35112 13.1317C8.12474 13.0468 7.87526 13.0468 7.64888 13.1317L1.35112 15.4933C0.697372 15.7385 0 15.2552 0 14.557V2Z" fill="#E0E0E0"/>
    <path d="M7.79566 11.14C9.20566 11.14 10.3957 10.35 10.3957 8.99C10.3957 8.02 9.75566 7.4 8.92566 7.17V7.12C9.70566 6.81 10.1557 6.23 10.1557 5.43C10.1557 4.17 9.18566 3.46 7.75566 3.46C6.88566 3.46 6.17566 3.81 5.53566 4.37L6.28566 5.27C6.72566 4.86 7.15566 4.62 7.68566 4.62C8.31566 4.62 8.67566 4.96 8.67566 5.54C8.67566 6.2 8.23566 6.67 6.87566 6.67V7.72C8.48566 7.72 8.91566 8.18 8.91566 8.9C8.91566 9.57 8.40566 9.94 7.65566 9.94C6.98566 9.94 6.44566 9.61 6.00566 9.18L5.31566 10.11C5.83566 10.7 6.62566 11.14 7.79566 11.14Z" fill="white"/>
</svg>
