<svg width="12" height="12" viewBox="0 0 12 12" fill="none" xmlns="http://www.w3.org/2000/svg">
    <path fill-rule="evenodd" clip-rule="evenodd" d="M3.87211 2.12139C3.70982 2.28216 3.7087 2.54277 3.87323 2.70353L6.30594 5.08586L6.34892 5.12256C6.51335 5.24486 6.74839 5.23208 6.89767 5.08421C6.97854 5.00411 7.01981 4.89876 7.01981 4.79397C7.01981 4.68862 6.97854 4.58273 6.89656 4.50262L4.46384 2.11975L4.42086 2.08304C4.25643 1.96074 4.02139 1.97353 3.87211 2.12139ZM3.83543 9.33919C3.7099 9.50054 3.72323 9.73181 3.872 9.87917C4.03485 10.0399 4.29976 10.0405 4.46373 9.87972L8.12675 6.29142L8.16434 6.24938C8.22134 6.17618 8.25 6.08832 8.25 6.00007C8.25 5.89528 8.20873 5.78993 8.12786 5.70983C7.96501 5.54852 7.7001 5.54797 7.53613 5.70873L3.87311 9.29703L3.83543 9.33919Z" fill="#858585"/>
</svg>
