<svg width="301" height="92" viewBox="0 0 301 92" fill="none" xmlns="http://www.w3.org/2000/svg">
    <path d="M14.08 14.184H17.76V11.496H14.08V9.896H10.816V15.816H14.08V14.184ZM4.896 15.816H8.16V9.896H4.896V11.528H0.992V14.216H4.896V15.816ZM6.528 34.44H9.536V35.88H6.528V34.44ZM9.536 28.36H6.528V27.144H9.536V28.36ZM9.536 32.072H6.528V30.728H9.536V32.072ZM4.384 18.312H6.496V20.584H4.384V18.312ZM12.32 18.312H14.432V20.488H12.32V18.312ZM25.088 19.144H21.792V21.128C21.792 25.416 21.344 31.88 16.672 36.936V35.88H12.608V34.44H16.512V32.072H12.608V30.728H16.256V28.36H12.608V27.144H16.896V24.616H12.672C12.448 23.912 12 23.112 11.552 22.44H16.416C16.288 22.632 16.192 22.824 16.064 23.016C16.864 23.528 18.336 24.712 18.944 25.352C20.096 23.4 21.056 20.84 21.728 17.896H27.328C26.976 19.816 26.56 21.704 26.176 23.08L28.928 23.944C29.696 21.672 30.56 18.12 31.104 14.984L28.768 14.312L28.256 14.44H22.464C22.72 13.096 22.944 11.752 23.104 10.376L19.616 9.832C19.136 14.312 18.272 18.728 16.736 21.8V16.36H10.144V22.44H11.072L8.992 23.208C9.248 23.624 9.472 24.136 9.664 24.616H6.816C7.072 24.072 7.328 23.56 7.552 23.016L5.984 22.472H8.8V16.392H2.176V22.472H4.864C3.904 24.808 2.368 27.144 0.832 28.744C1.312 29.384 2.112 30.824 2.4 31.368C2.816 30.92 3.2 30.472 3.616 29.928V39.816H6.528V38.44H16.672V37.832C17.44 38.472 18.336 39.368 18.784 40.008C21.248 37.512 22.752 34.664 23.648 31.784C24.832 35.272 26.464 38.152 28.832 39.976C29.344 38.952 30.464 37.48 31.232 36.808C27.872 34.6 25.952 30.024 24.96 24.936C25.056 23.592 25.088 22.312 25.088 21.192V19.144ZM47.2 27.176V14.984C48.768 14.376 50.336 13.736 51.744 12.968V34.824H55.2V15.048H58.464V27.912C58.464 28.296 58.336 28.424 57.984 28.424C57.632 28.424 56.544 28.424 55.488 28.392C55.936 29.256 56.416 30.664 56.544 31.592C58.4 31.592 59.744 31.528 60.704 31.016C61.696 30.44 61.984 29.576 61.984 28.008V11.848H51.744V12.456L49.472 9.96C48.032 11.016 45.728 12.296 43.68 13.128V26.76C43.68 28.104 43.04 28.84 42.4 29.224C42.944 29.864 43.616 31.304 43.84 32.136C44.48 31.656 45.568 31.208 50.976 29.704C50.848 28.872 50.784 27.336 50.816 26.312L47.2 27.176ZM41.344 14.664C40.384 13.416 38.624 11.4 37.088 9.896L34.272 11.624C35.744 13.224 37.568 15.432 38.464 16.776L41.344 14.664ZM40.576 24.968L40 25.064H37.728C39.36 22.888 41.376 19.944 42.56 18.216L40.256 17.16L39.872 17.32H33.472V20.36H37.536C36.352 22.056 35.072 23.848 34.496 24.392C33.888 25.032 33.344 25.288 32.832 25.416C33.152 26.088 33.856 27.72 34.048 28.488C34.304 28.232 35.264 28.008 36 28.008H38.656C37.6 32.36 35.52 35.496 32.576 37.256C33.28 37.736 34.56 39.08 35.04 39.816C36.608 38.76 37.984 37.32 39.104 35.432C41.6 38.632 45.28 39.24 51.072 39.24C54.784 39.24 58.88 39.176 62.176 38.952C62.368 37.928 62.88 36.2 63.424 35.432C59.808 35.784 54.528 35.976 51.136 35.976C46.016 35.944 42.528 35.56 40.608 32.52C41.408 30.536 42.016 28.264 42.4 25.64L40.576 24.968ZM71.424 17.8C70.528 21.704 68.576 25.064 65.76 27.08C66.592 27.656 68.096 28.904 68.704 29.576C70.112 28.424 71.328 26.92 72.384 25.192C73.248 26.024 74.048 26.824 74.528 27.432L77.088 24.776C76.352 24.04 75.136 22.952 73.984 21.96C74.432 20.872 74.816 19.688 75.136 18.504L71.424 17.8ZM94.272 26.088C93.088 25 90.88 23.304 89.056 21.896C89.472 20.808 89.824 19.656 90.112 18.472L86.4 17.8C85.76 20.84 84.416 23.688 82.368 25.512C82.208 25.256 82.048 25.032 81.888 24.776V17.608H93.952V13.864H81.888V9.928H77.888V13.864H66.24V17.608H77.888V25C75.104 29.32 70.112 33.288 64.928 35.304C65.76 36.104 67.008 37.64 67.616 38.568C71.424 36.808 75.008 34.024 77.888 30.664V39.784H81.888V30.472C84.768 33.896 88.384 36.776 92.256 38.568C92.896 37.512 94.144 35.88 95.072 35.08C90.272 33.32 85.696 29.928 82.848 26.152C83.744 26.632 84.8 27.336 85.344 27.784C86.144 27.016 86.848 26.088 87.488 25.032C89.088 26.344 90.72 27.752 91.616 28.744L94.272 26.088ZM108.224 29.672H113.984V26.376H108.224V23.528H104.608V26.376H98.784V29.672H104.608V34.024C102.016 34.44 99.616 34.824 97.696 35.08L98.528 38.6C102.88 37.832 108.928 36.744 114.528 35.656L114.336 32.392C112.32 32.712 110.24 33.064 108.224 33.416V29.672ZM103.424 19.56C104.416 18.184 105.408 16.584 106.208 15.048H110.048L107.36 16.616C107.968 17.416 108.608 18.312 109.216 19.24L103.424 19.56ZM98.016 15.048H102.08C101.312 16.712 100.448 18.152 100.096 18.632C99.616 19.336 99.104 19.848 98.624 19.976C99.008 20.968 99.616 22.664 99.84 23.432C100.768 23.048 102.144 22.888 110.976 22.152C111.264 22.728 111.52 23.272 111.712 23.752L114.592 21.864C113.792 19.976 111.808 17.128 110.144 15.048H114.656V11.784H98.016V15.048ZM119.424 12.872H115.904V32.2H119.424V12.872ZM122.016 10.28V34.984C122.016 35.528 121.824 35.72 121.28 35.72C120.736 35.72 119.008 35.72 117.312 35.656C117.824 36.68 118.432 38.312 118.592 39.304C121.088 39.304 122.912 39.176 124.128 38.6C125.344 37.992 125.728 37.032 125.728 35.016V10.28H122.016ZM7.392 55.992C6.112 58.104 3.392 60.728 0.96 62.264C1.536 63.032 2.464 64.6 2.88 65.464C5.792 63.544 8.96 60.376 11.04 57.432L7.392 55.992ZM8.256 63C6.432 66.104 3.392 69.24 0.64 71.224C1.216 72.152 2.208 74.264 2.496 75.16C3.424 74.392 4.352 73.528 5.312 72.568V85.816H9.024V68.248C10.016 67 10.88 65.656 11.616 64.408L8.256 63ZM16.32 66.008H24.384V68.568H16.32V66.008ZM24.384 60.44V62.936H16.32V60.44H24.384ZM27.552 72.184C26.432 73.304 24.736 74.68 23.296 75.704C22.656 74.52 22.08 73.24 21.632 71.864H28.096V57.176H12.608V80.12C12.608 81.624 11.776 82.488 11.104 82.904C11.68 83.544 12.48 85.048 12.736 85.88C13.504 85.4 14.688 84.92 20.96 83.32C20.8 82.52 20.768 80.952 20.768 79.864L16.32 80.856V71.864H18.336C20.096 78.328 23.04 83.16 28.48 85.688C29.024 84.664 30.144 83.128 31.008 82.392C28.608 81.496 26.656 80.056 25.12 78.264C26.624 77.336 28.48 76.056 29.984 74.872L27.552 72.184ZM51.392 80.184H44.352V78.36H51.392V80.184ZM61.344 71.448H34.72V85.752H38.4V74.52H57.504V82.264C57.504 82.68 57.312 82.808 56.864 82.808C56.544 82.84 55.424 82.84 54.304 82.808H54.752V75.704H40.832V84.152H44.352V82.808H53.504C53.92 83.576 54.432 84.664 54.624 85.496C56.832 85.528 58.56 85.496 59.712 85.112C60.928 84.632 61.344 83.96 61.344 82.296V71.448ZM54.272 67.608H41.888V65.848H54.272V67.608ZM58.272 63.288H38.08V70.136H58.272V63.288ZM50.56 58.872C50.176 57.848 49.664 56.664 49.312 55.672L45.376 56.632C45.632 57.304 45.888 58.104 46.144 58.872H33.824V62.072H62.08V58.872H50.56ZM79.264 67.96H80.704V70.808H79.264V67.96ZM77.696 72.984H82.304V65.784H77.696V72.984ZM82.304 61.88H77.568V64.216H82.304V61.88ZM70.848 72.024H73.44V68.984H70.752L70.688 66.264H73.408V63.224H70.624L70.528 60.344C71.744 60.056 72.96 59.704 74.176 59.352V74.872H70.912L70.848 72.024ZM83.04 60.248V74.872H76.832V60.248H83.04ZM94.528 74.872H92.256C92.544 69.848 92.768 62.808 92.832 57.208H86.656V60.28H89.504C89.504 61.272 89.472 62.232 89.472 63.256H86.752V66.296H89.376C89.376 67.224 89.344 68.152 89.312 69.048H86.496V72.056H89.184C89.12 73.048 89.088 73.976 89.024 74.872H85.792V57.4H74.176V59.192L72.576 56.088C71.136 56.792 69.056 57.592 67.264 58.104L67.712 74.872H65.408V78.36H74.176C72.064 79.928 68.288 81.816 65.408 82.904C66.08 83.704 67.04 84.952 67.552 85.752C70.688 84.472 74.656 82.488 77.44 80.664L74.592 78.36H84.352L82.56 80.632C85.76 82.136 89.28 84.216 91.328 85.624L93.856 82.712C91.872 81.496 88.608 79.8 85.536 78.36H94.528V74.872ZM121.856 61.688C121.504 62.584 121.152 63.416 120.832 64.088L124.064 64.76C124.864 63.32 125.824 60.984 126.592 58.968L123.872 58.392L123.328 58.488H113.312C113.536 57.912 113.76 57.336 113.952 56.76L110.464 55.896C109.568 58.648 107.872 61.368 105.856 63.064C106.688 63.608 108.032 64.824 108.64 65.464C109.696 64.44 110.72 63.16 111.616 61.688H121.856ZM119.52 66.328C120.928 68.248 122.528 70.872 123.2 72.568L126.4 70.84C125.664 69.176 124.064 66.712 122.56 64.856L119.52 66.328ZM116.384 78.52C115.584 76.952 113.728 74.776 112.128 73.272L109.216 74.904C110.784 76.536 112.544 78.84 113.248 80.344L116.384 78.52ZM110.4 64.92C109.568 66.872 108.032 68.92 106.432 70.2C107.2 70.744 108.608 71.832 109.248 72.472C110.912 70.872 112.768 68.344 113.824 65.912L110.4 64.92ZM118.656 62.52H115.04V74.456H118.656V62.52ZM101.44 74.584H105.088V61.08C106.08 59.736 106.912 58.328 107.648 56.888L104.288 55.768C102.592 59.096 99.744 62.392 96.864 64.472C97.568 65.176 98.72 66.776 99.168 67.544C99.904 66.904 100.672 66.2 101.44 65.432V74.584ZM100.736 84.504C101.76 82.488 102.848 79.48 103.584 77.208L100.192 75.8C99.52 78.104 98.304 80.92 97.152 82.808L100.736 84.504ZM110.144 81.752C108.288 81.752 107.968 81.656 107.968 80.632V75.928H104.096V80.728C104.096 84.152 105.28 85.208 109.824 85.208H116C119.616 85.208 120.704 84.12 121.184 79.64C120.16 79.448 118.528 78.872 117.696 78.296C117.536 81.336 117.248 81.752 115.712 81.752H110.144ZM119.84 76.44C121.248 78.84 122.592 81.976 123.008 83.96L126.624 82.52C126.144 80.44 124.64 77.432 123.168 75.128L119.84 76.44ZM135.424 63.8C134.528 67.704 132.576 71.064 129.76 73.08C130.592 73.656 132.096 74.904 132.704 75.576C134.112 74.424 135.328 72.92 136.384 71.192C137.248 72.024 138.048 72.824 138.528 73.432L141.088 70.776C140.352 70.04 139.136 68.952 137.984 67.96C138.432 66.872 138.816 65.688 139.136 64.504L135.424 63.8ZM158.272 72.088C157.088 71 154.88 69.304 153.056 67.896C153.472 66.808 153.824 65.656 154.112 64.472L150.4 63.8C149.76 66.84 148.416 69.688 146.368 71.512C146.208 71.256 146.048 71.032 145.888 70.776V63.608H157.952V59.864H145.888V55.928H141.888V59.864H130.24V63.608H141.888V71C139.104 75.32 134.112 79.288 128.928 81.304C129.76 82.104 131.008 83.64 131.616 84.568C135.424 82.808 139.008 80.024 141.888 76.664V85.784H145.888V76.472C148.768 79.896 152.384 82.776 156.256 84.568C156.896 83.512 158.144 81.88 159.072 81.08C154.272 79.32 149.696 75.928 146.848 72.152C147.744 72.632 148.8 73.336 149.344 73.784C150.144 73.016 150.848 72.088 151.488 71.032C153.088 72.344 154.72 73.752 155.616 74.744L158.272 72.088ZM172.224 75.672H177.984V72.376H172.224V69.528H168.608V72.376H162.784V75.672H168.608V80.024C166.016 80.44 163.616 80.824 161.696 81.08L162.528 84.6C166.88 83.832 172.928 82.744 178.528 81.656L178.336 78.392C176.32 78.712 174.24 79.064 172.224 79.416V75.672ZM167.424 65.56C168.416 64.184 169.408 62.584 170.208 61.048H174.048L171.36 62.616C171.968 63.416 172.608 64.312 173.216 65.24L167.424 65.56ZM162.016 61.048H166.08C165.312 62.712 164.448 64.152 164.096 64.632C163.616 65.336 163.104 65.848 162.624 65.976C163.008 66.968 163.616 68.664 163.84 69.432C164.768 69.048 166.144 68.888 174.976 68.152C175.264 68.728 175.52 69.272 175.712 69.752L178.592 67.864C177.792 65.976 175.808 63.128 174.144 61.048H178.656V57.784H162.016V61.048ZM183.424 58.872H179.904V78.2H183.424V58.872ZM186.016 56.28V80.984C186.016 81.528 185.824 81.72 185.28 81.72C184.736 81.72 183.008 81.72 181.312 81.656C181.824 82.68 182.432 84.312 182.592 85.304C185.088 85.304 186.912 85.176 188.128 84.6C189.344 83.992 189.728 83.032 189.728 81.016V56.28H186.016ZM222.464 59.448H212.896L214.624 58.712C214.176 57.848 213.216 56.44 212.48 55.416L208.992 56.76C209.472 57.592 210.112 58.584 210.56 59.448H202.112V62.264H222.464V59.448ZM204.416 70.424H219.776V67.768H204.416V70.424ZM219.776 63.64H204.416V66.296H219.776V63.64ZM207.616 74.616H216.32V77.304H207.616V74.616ZM204.064 80.024H220.064V71.928H204.064V80.024ZM201.312 60.696C200.352 59.416 198.592 57.432 197.056 55.896L194.24 57.656C195.712 59.224 197.536 61.432 198.432 62.776L201.312 60.696ZM200.64 70.968L200.032 71.064H197.696C199.392 68.888 201.44 65.976 202.624 64.216L200.32 63.16L199.936 63.32H193.44V66.36H197.568C196.352 68.056 195.072 69.816 194.464 70.392C193.856 71.032 193.312 71.288 192.832 71.416C193.12 72.088 193.824 73.72 194.016 74.488C194.304 74.232 195.232 74.008 196 74.008H198.688C197.632 78.36 195.584 81.496 192.64 83.256C193.344 83.736 194.592 85.08 195.072 85.816C196.608 84.76 198.016 83.352 199.168 81.496C201.6 84.632 205.28 85.24 211.04 85.24C214.784 85.24 218.816 85.176 222.112 84.952C222.304 83.928 222.816 82.2 223.36 81.432C219.744 81.784 214.528 81.976 211.104 81.976C206.048 81.944 202.56 81.56 200.608 78.584C201.44 76.6 202.08 74.296 202.464 71.64L200.64 70.968ZM232.512 70.008V69.816C233.984 67.576 235.2 65.144 236.128 62.68L234.24 61.144L233.664 61.304H231.392L233.568 59.768C232.992 58.68 231.84 56.984 230.88 55.704L228.16 57.4C228.96 58.584 229.92 60.12 230.528 61.304H225.44V64.728H231.744C230.016 68.184 227.232 71.544 224.48 73.528C224.992 74.232 225.824 76.248 226.112 77.304C227.104 76.472 228.096 75.48 229.088 74.36V85.752H232.512V74.008C233.504 75.288 234.464 76.696 235.008 77.592L236.992 74.616C236.64 74.232 235.712 73.24 234.752 72.216C235.552 71.448 236.512 70.488 237.536 69.56L235.296 67.48C234.816 68.344 233.856 69.624 233.088 70.584L232.512 70.008ZM240.928 69.432V66.456H243.616V69.432H240.928ZM240.928 60.568H243.616V63.48H240.928V60.568ZM249.92 63.48H247.168V60.568H249.92V63.48ZM249.92 69.432H247.168V66.456H249.92V69.432ZM247.168 81.72V78.456H253.728V75.128H247.168V72.632H253.504V57.368H237.536V72.632H243.616V75.128H237.728V78.456H243.616V81.72H236.512V85.08H254.72V81.72H247.168Z"
          fill="#292929"/>
    <path fill-rule="evenodd" clip-rule="evenodd"
          d="M187.382 36.9998C190.465 36.9998 193.268 35.9506 195.3 33.9174C197.334 31.8833 198.58 28.8797 198.58 24.9999C198.58 21.12 197.334 18.1164 195.3 16.0823C193.268 14.0491 190.465 12.9999 187.382 12.9999C184.298 12.9999 181.495 14.0491 179.463 16.0823C177.429 18.1164 176.183 21.12 176.183 24.9999C176.183 28.8797 177.429 31.8833 179.463 33.9174C181.495 35.9506 184.298 36.9998 187.382 36.9998ZM194.206 24.9999C194.206 27.6315 193.433 29.6364 192.202 30.9814C190.971 32.3257 189.27 33.0259 187.382 33.0259C185.493 33.0259 183.792 32.3257 182.562 30.9814C181.33 29.6364 180.557 27.6315 180.557 24.9999C180.557 22.3682 181.33 20.3633 182.562 19.0183C183.792 17.674 185.493 16.9738 187.382 16.9738C189.27 16.9738 190.971 17.674 192.202 19.0183C193.433 20.3633 194.206 22.3682 194.206 24.9999Z"
          fill="#FD6A58"/>
    <path fill-rule="evenodd" clip-rule="evenodd"
          d="M149.179 13H145.385C145.172 13 144.994 13.1731 145 13.3928C145.032 14.5937 145.195 20.846 145.195 25C145.195 29.1539 145.032 35.4062 145 36.6072C144.994 36.8269 145.172 37 145.385 37H149.179C149.391 37 149.57 36.829 149.564 36.6081C149.536 35.5736 149.411 30.7694 149.377 26.8015C149.377 26.7939 149.383 26.7867 149.393 26.7867H159.79C159.8 26.7867 159.806 26.7939 159.805 26.8015C159.772 30.7694 159.647 35.5736 159.619 36.6081C159.613 36.829 159.792 37 160.004 37H163.798C164.011 37 164.189 36.8269 164.183 36.6072C164.15 35.4062 163.988 29.1539 163.988 25C163.988 20.846 164.15 14.5937 164.183 13.3928C164.189 13.1731 164.011 13 163.798 13H160.004C159.791 13 159.613 13.1722 159.619 13.3924C159.646 14.3934 159.764 18.9141 159.802 22.7977C159.802 22.8055 159.796 22.8128 159.786 22.8128H149.397C149.387 22.8128 149.381 22.8055 149.381 22.7977C149.419 18.9141 149.537 14.3934 149.564 13.3924C149.57 13.1722 149.392 13 149.179 13Z"
          fill="#FD6A58"/>
    <path d="M249.881 13.7854V36.2146C249.881 36.6483 250.233 37 250.667 37H267.489C267.701 37 267.873 36.8276 267.873 36.6151V33.3108C267.873 33.0982 267.701 32.9259 267.489 32.9259H254.572C254.563 32.9259 254.556 32.9189 254.556 32.9103V27.0026C254.556 26.9939 254.563 26.9869 254.572 26.9869H265.887C266.099 26.9869 266.271 26.8146 266.271 26.6021V22.7971C266.271 22.5846 266.099 22.4122 265.887 22.4122H254.472C254.463 22.4122 254.456 22.4052 254.456 22.3966V17.1898C254.456 17.1812 254.463 17.1742 254.472 17.1742H267.288C267.501 17.1742 267.673 17.0019 267.673 16.7893V13.3849C267.673 13.1723 267.501 13 267.288 13H250.667C250.233 13 249.881 13.3516 249.881 13.7854Z"
          fill="#FD6A58"/>
    <path d="M282.374 13.7854V36.2146C282.374 36.6483 282.725 37 283.159 37H299.981C300.193 37 300.366 36.8276 300.366 36.6151V33.3108C300.366 33.0982 300.193 32.9259 299.981 32.9259H287.064C287.055 32.9259 287.048 32.9189 287.048 32.9103V27.0026C287.048 26.9939 287.055 26.9869 287.064 26.9869H298.98C299.192 26.9869 299.364 26.8146 299.364 26.6021V22.7971C299.364 22.5846 299.192 22.4122 298.98 22.4122H286.964C286.955 22.4122 286.948 22.4052 286.948 22.3966V17.1898C286.948 17.1812 286.955 17.1742 286.964 17.1742H299.781C299.993 17.1742 300.165 17.0019 300.165 16.7893V13.3849C300.165 13.1723 299.993 13 299.781 13H283.159C282.725 13 282.374 13.3516 282.374 13.7854Z"
          fill="#FD6A58"/>
    <path d="M210.965 37H214.369C214.582 37 214.755 36.8262 214.754 36.6127L214.657 20.7498L222.706 28.9876C222.857 29.1421 223.105 29.1421 223.256 28.9876L231.305 20.7498L231.209 36.6127C231.207 36.8262 231.38 37 231.593 37H234.997C235.209 37 235.382 36.8276 235.382 36.6151V13.3849C235.382 13.1723 235.209 13 234.997 13H232.545C232.269 13 232.006 13.1154 231.819 13.3183L222.993 22.9124C222.986 22.9192 222.976 22.9192 222.97 22.9124L214.143 13.3183C213.956 13.1154 213.693 13 213.418 13H210.965C210.753 13 210.581 13.1723 210.581 13.3849V36.6151C210.581 36.8276 210.753 37 210.965 37Z"
          fill="#FD6A58"/>
</svg>
