<svg width="32" height="32" viewBox="0 0 32 32" fill="none" xmlns="http://www.w3.org/2000/svg">
    <path fill-rule="evenodd" clip-rule="evenodd" d="M5.262 17.4327C4.47533 16.6458 4.47533 15.3654 5.262 14.5665L6.222 13.6048C6.982 12.8459 7.39533 11.8456 7.39533 10.7772V9.40346C7.39533 8.29643 8.302 7.38947 9.40866 7.38947H10.782C11.8487 7.38947 12.8487 6.976 13.6087 6.21576L14.5687 5.25544C15.342 4.48186 16.6087 4.46852 17.4087 5.2301L17.4217 5.24203L17.4353 5.25544C17.6087 5.41549 17.8487 5.5222 18.1153 5.5222C18.662 5.5222 19.1153 5.08205 19.1153 4.52187C19.1153 4.25512 19.0087 4.01504 18.8353 3.82831C18.782 3.77496 18.7287 3.73495 18.6753 3.69493C17.102 2.2678 14.662 2.33449 13.1553 3.84298L12.1953 4.80196C11.822 5.17675 11.3153 5.38882 10.782 5.38882H9.40866C7.19533 5.38882 5.39533 7.18941 5.39533 9.40346V10.7772C5.39533 11.3108 5.182 11.8176 4.80866 12.191L3.83533 13.1647C2.27533 14.7385 2.27533 17.2874 3.84866 18.8479C4.04866 19.0466 4.302 19.14 4.55533 19.14C4.80866 19.14 5.07533 19.0333 5.262 18.8479C5.64866 18.4464 5.64866 17.8195 5.262 17.4327ZM27.1933 12.1951L28.1506 13.1527C28.9093 13.9063 29.3293 14.9133 29.3333 15.987C29.336 17.0607 28.9213 18.0703 28.1653 18.8306L27.192 19.8042C26.8213 20.1777 26.608 20.6939 26.6066 21.2234V22.5931C26.6066 24.8072 24.8053 26.6091 22.592 26.6091C22.04 26.6091 21.592 26.161 21.592 25.6088C21.592 25.0566 22.04 24.6085 22.592 24.6085C23.704 24.6085 24.6066 23.7042 24.6066 22.5931V21.222C24.608 20.1523 25.0226 19.1467 25.776 18.3918L26.736 17.4301C27.1266 17.038 27.3346 16.5312 27.3333 15.9923C27.332 15.4548 27.12 14.9493 26.7386 14.5692L25.7773 13.6075C25.0226 12.8473 24.608 11.843 24.6066 10.776V9.40351C24.6066 8.29115 23.704 7.38818 22.592 7.38818C22.04 7.38818 21.592 6.94004 21.592 6.38786C21.592 5.83568 22.04 5.38753 22.592 5.38753C24.8053 5.38753 26.6066 7.18812 26.6066 9.40351V10.7746C26.608 11.3095 26.816 11.815 27.1933 12.1951ZM15.9994 27.3353C16.5461 27.3566 17.0474 27.1259 17.4287 26.7404C17.8181 26.351 18.4514 26.347 18.8434 26.7364C19.2341 27.1272 19.2354 27.7608 18.8461 28.1529C18.0634 28.9398 17.0314 29.3333 15.9994 29.3333C14.9754 29.3333 13.9501 28.9452 13.1687 28.1676L12.1954 27.1939C11.8181 26.8191 11.3127 26.6097 10.7754 26.6084H9.40741C7.19407 26.6084 5.39274 24.8078 5.39274 22.5938C5.39274 22.0416 5.84074 21.5934 6.39274 21.5934C6.94474 21.5934 7.39274 22.0416 7.39274 22.5938C7.39274 23.7048 8.29541 24.6077 9.40741 24.6077H10.7781C11.8461 24.6091 12.8514 25.0252 13.6074 25.7761L14.5687 26.7391C14.9581 27.1272 15.4634 27.3353 15.9994 27.3353ZM11.8661 18.7183C11.4754 19.1091 11.4754 19.7427 11.8661 20.1335C12.0607 20.3282 12.3167 20.4255 12.5727 20.4255C12.8287 20.4255 13.0847 20.3282 13.2807 20.1335L20.1327 13.2779C20.5234 12.8871 20.5234 12.2536 20.1327 11.8628C19.7421 11.472 19.1101 11.472 18.7194 11.8628L11.8661 18.7183ZM12.5611 11.4336C13.1998 11.4336 13.7185 11.9524 13.7185 12.5913C13.7185 13.2302 13.1998 13.7477 12.5611 13.7477C11.9225 13.7477 11.4038 13.2302 11.4038 12.5913C11.4038 11.9524 11.9225 11.4336 12.5611 11.4336ZM19.4264 18.2716C20.065 18.2716 20.5837 18.7905 20.5837 19.4294C20.5837 20.0682 20.065 20.5871 19.4264 20.5871C18.7864 20.5871 18.269 20.0682 18.269 19.4294C18.269 18.7905 18.7864 18.2716 19.4264 18.2716Z" fill="#292929"/>
</svg>
