<svg width="368" height="148" viewBox="0 0 368 148" fill="none" xmlns="http://www.w3.org/2000/svg">
    <g clip-path="url(#clip0_3949_39694)">
        <rect width="148" height="148" fill="white"/>
        <path d="M53.6872 116.04V117.615H54.5989V116.04H53.6872ZM49.2709 117.094V119.45H50.1352V117.911H58.2101V119.45H59.1099V117.094H49.2709ZM50.7864 119.095V119.876H57.4523V119.095H50.7864ZM52.3374 120.871C54.6344 122.623 54.6817 125.299 53.8411 125.903C53.6043 126.104 53.3438 126.128 53.0241 126.128C52.7518 126.128 52.3493 126.116 51.9112 126.068C52.0651 126.317 52.148 126.684 52.1717 126.921C52.5387 126.945 52.9176 126.956 53.2017 126.956C53.7345 126.956 54.0661 126.874 54.4686 126.554C55.6881 125.701 55.6289 122.398 53.0005 120.456L52.3374 120.871ZM54.1134 119.272C53.036 120.279 50.9995 121.084 49.188 121.522C49.3419 121.688 49.5787 122.055 49.6734 122.22C51.5205 121.688 53.628 120.776 54.8475 119.592L54.1134 119.272ZM53.2728 121.534C52.3966 122.256 50.6088 123.097 49.2709 123.464C49.4485 123.641 49.6379 123.949 49.7445 124.15C51.1061 123.665 52.8821 122.741 53.8648 121.936L53.2728 121.534ZM54.1489 122.753C53.036 123.902 50.739 125.133 48.8565 125.63C49.0222 125.832 49.2235 126.151 49.3301 126.376C51.2245 125.749 53.5333 124.446 54.7646 123.203L54.1489 122.753ZM55.2382 119.403L54.5041 119.556C55.2145 122.528 56.6117 124.932 58.9441 125.997C59.0862 125.749 59.3585 125.405 59.5598 125.228C57.3102 124.328 55.8894 122.067 55.2382 119.403ZM58.2811 120.279C57.6062 120.883 56.4577 121.688 55.6526 122.161L56.2091 122.706C57.0497 122.256 58.1627 121.522 58.9678 120.871L58.2811 120.279ZM64.5089 119.036H69.9317V120.16H64.5089V119.036ZM64.5089 120.835H69.9317V121.972H64.5089V120.835ZM64.5089 117.236H69.9317V118.361H64.5089V117.236ZM63.6328 116.525V122.682H70.8433V116.525H63.6328ZM61.9278 123.499V124.328H72.4417V123.499H61.9278ZM68.1675 125.299C69.5054 125.796 70.8907 126.436 71.7195 126.921L72.572 126.317C71.6603 125.832 70.1685 125.192 68.8069 124.707L68.1675 125.299ZM65.4206 124.648C64.6273 125.204 63.0881 125.867 61.8686 126.234C62.0699 126.424 62.3422 126.732 62.4843 126.921C63.692 126.518 65.2193 125.855 66.2257 125.216L65.4206 124.648ZM80.5048 119.687V120.504H84.3409V119.687H80.5048ZM80.5048 122.694V123.499H84.3409V122.694H80.5048ZM80.043 116.703V126.282H80.9073V117.508H83.9265V126.282H84.8145V116.703H80.043ZM78.7998 125.772V126.589H85.7262V125.772H78.7998ZM76.5976 116.04C76.2897 116.821 75.7451 117.958 75.2952 118.645L75.9109 118.905C76.3726 118.266 76.9409 117.212 77.3909 116.336L76.5976 116.04ZM78.0302 117.39C77.379 118.645 76.2542 120.421 75.3425 121.475L75.9109 121.771C76.8107 120.752 77.971 119.047 78.7998 117.721L78.0302 117.39ZM74.7269 118.526C75.3662 119.095 76.1121 119.912 76.4318 120.468L76.9054 119.793C76.5857 119.272 75.8398 118.491 75.1768 117.934L74.7269 118.526ZM77.6513 120.137C78.1368 120.918 78.6104 121.948 78.788 122.611L79.4984 122.28C79.3208 121.628 78.8117 120.61 78.3144 119.852L77.6513 120.137ZM74.7032 121.332L74.7742 122.126C75.899 122.067 77.4027 121.984 78.9064 121.889V121.167C77.3435 121.238 75.7688 121.297 74.7032 121.332ZM77.9473 122.966C78.2789 123.7 78.5985 124.66 78.7051 125.275L79.4273 125.027C79.2971 124.411 78.9656 123.476 78.6222 122.753L77.9473 122.966ZM75.3544 122.801C75.2123 123.843 74.9755 124.896 74.5848 125.619C74.7742 125.701 75.1294 125.867 75.2833 125.962C75.6622 125.204 75.9582 124.056 76.124 122.943L75.3544 122.801ZM76.716 121.676V126.956H77.5211V121.676H76.716ZM92.7947 121.439V122.824H93.6945V121.439H92.7947ZM92.6171 122.588C91.587 123.476 89.5269 124.221 87.7509 124.565C87.9166 124.731 88.1416 125.015 88.2481 125.216C90.0597 124.825 92.1553 123.961 93.3157 122.907L92.6171 122.588ZM93.7774 122.599L93.0197 122.777C93.9669 124.908 95.7429 126.353 98.2056 126.968C98.3121 126.743 98.5371 126.424 98.7265 126.246C96.3704 125.749 94.6062 124.435 93.7774 122.599ZM97.2465 123.262C96.6545 123.712 95.6363 124.304 94.9022 124.648L95.4587 125.098C96.2165 124.754 97.1755 124.245 97.9096 123.736L97.2465 123.262ZM89.0651 126.045L89.1953 126.814C90.5451 126.613 92.5105 126.329 94.3576 126.045L94.3221 125.334C92.3803 125.607 90.3557 125.891 89.0651 126.045ZM87.9166 122.363V123.073H98.5489V122.363H87.9166ZM92.2619 117.686V118.444H98.3832V117.686H92.2619ZM92.5224 120.385V121.155H98.1227V120.385H92.5224ZM90.924 116.028V121.877H91.7646V116.028H90.924ZM94.8312 116.028V120.823H95.7192V116.028H94.8312ZM88.5678 116.194V118.609H89.3374V116.194H88.5678ZM88.9467 117.638V118.349H91.3265V117.638H88.9467ZM87.964 119.201V119.912H91.3265V119.201H87.964ZM88.8638 119.45C88.7928 120.421 88.556 121.143 87.6917 121.546C87.8693 121.676 88.0942 121.948 88.1889 122.126C89.2782 121.593 89.5979 120.693 89.6926 119.45H88.8638ZM90.5333 124.115V126.246H91.3857V123.902L90.8885 123.76L90.5333 124.115Z" fill="#858585"/>
        <path d="M74.8345 47.0798C75.0618 47.7004 74.8898 48.3969 74.3997 48.8403L46.7592 73.8484C45.2856 75.1817 44.4519 76.9987 44.4022 78.9853C44.3526 80.972 45.0946 82.8285 46.4997 84.2337C47.8616 85.5956 49.6463 86.3336 51.561 86.3336C53.5854 86.3336 55.5262 85.4761 56.8851 83.9742L81.8932 56.3337C82.3366 55.8436 83.0331 55.6716 83.6537 55.8989C89.0304 57.8682 95.1724 56.5538 99.268 52.4579C102.991 48.7353 104.463 43.2422 103.101 38.1295C103.082 38.0576 103.026 38.0016 102.954 37.9824C102.882 37.9631 102.806 37.9834 102.753 38.0359L96.217 44.5723C95.8335 44.9558 95.2838 45.1222 94.7521 45.0159L88.2836 43.7223C87.6415 43.5938 87.1397 43.092 87.0113 42.4499L85.7176 35.9815C85.6113 35.4497 85.7777 34.9 86.1612 34.5165L92.6974 27.9803C92.7498 27.9279 92.7704 27.8513 92.7512 27.7797C92.7319 27.7081 92.6758 27.6521 92.6042 27.633C87.4914 26.2706 81.9982 27.7429 78.2755 31.4655C74.1798 35.561 72.8651 41.7031 74.8345 47.0798Z" stroke="#EAD8C2" stroke-width="2.96" stroke-linecap="round" stroke-linejoin="round"/>
        <path fill-rule="evenodd" clip-rule="evenodd" d="M54.146 78.9109C54.146 80.1938 53.1061 81.2337 51.8232 81.2337C50.5404 81.2337 49.5005 80.1938 49.5005 78.9109C49.5005 77.6281 50.5404 76.5882 51.8232 76.5882C53.1061 76.5882 54.146 77.6281 54.146 78.9109Z" fill="#EAD8C2"/>
        <rect width="148" height="148" transform="translate(148)" fill="white"/>
        <path d="M201.367 116.028C201.296 116.573 201.107 117.39 200.941 117.911L201.557 118.1C201.758 117.603 201.995 116.869 202.22 116.218L201.367 116.028ZM200.089 117.638V121.439C200.089 122.99 200.018 125.074 199.189 126.554C199.355 126.625 199.651 126.826 199.757 126.968C200.645 125.405 200.775 123.085 200.775 121.439V117.638H200.089ZM200.42 117.638V118.361H202.812V117.638H200.42ZM202.469 117.638V126.033C202.469 126.175 202.433 126.222 202.303 126.222C202.173 126.234 201.746 126.234 201.285 126.211C201.379 126.412 201.474 126.743 201.51 126.933C202.161 126.933 202.563 126.921 202.824 126.791C203.084 126.672 203.167 126.436 203.167 126.033V117.638H202.469ZM201 119.059C201.273 119.592 201.557 120.314 201.652 120.764L202.137 120.468C202.042 120.042 201.758 119.355 201.474 118.822L201 119.059ZM201.308 122.528V125.346H201.817V122.528H201.308ZM199.272 121.546L199.39 122.315C200.539 122.185 202.102 121.984 203.605 121.794L203.593 121.084C201.983 121.261 200.361 121.439 199.272 121.546ZM204.031 116.608V118.23C204.031 118.964 203.96 119.888 203.368 120.61C203.522 120.681 203.807 120.918 203.913 121.06C204.588 120.267 204.706 119.095 204.706 118.242V116.608H204.031ZM204.375 116.608V117.319H206.08V116.608H204.375ZM203.735 121.392V122.149H206.648V121.392H203.735ZM206.364 121.392V121.534C205.973 123.843 204.766 125.559 203.309 126.293C203.487 126.447 203.688 126.743 203.795 126.933C205.405 126.033 206.66 124.233 207.134 121.522L206.648 121.368L206.518 121.392H206.364ZM204.635 122.149L203.96 122.303C204.481 124.494 205.511 126.128 207.216 126.945C207.335 126.743 207.572 126.447 207.749 126.293C206.115 125.619 205.097 124.103 204.635 122.149ZM205.736 116.608V119.639C205.736 120.302 205.784 120.48 205.914 120.622C206.044 120.752 206.269 120.8 206.447 120.8C206.553 120.8 206.755 120.8 206.861 120.8C207.015 120.8 207.181 120.776 207.287 120.705C207.418 120.622 207.512 120.504 207.572 120.314C207.631 120.148 207.655 119.604 207.666 119.118C207.477 119.071 207.24 118.953 207.098 118.822C207.098 119.32 207.086 119.699 207.063 119.876C207.039 120.03 207.003 120.113 206.968 120.148C206.944 120.184 206.873 120.208 206.814 120.208C206.743 120.208 206.648 120.208 206.601 120.208C206.542 120.208 206.506 120.196 206.471 120.148C206.435 120.113 206.435 119.947 206.435 119.71V116.608H205.736ZM196.596 122.031L196.868 122.848C197.721 122.493 198.763 122.067 199.745 121.64L199.58 120.871C198.479 121.321 197.366 121.771 196.596 122.031ZM196.75 118.444V119.26H199.591V118.444H196.75ZM197.993 116.04V125.962C197.993 126.104 197.946 126.151 197.815 126.151C197.685 126.151 197.306 126.151 196.868 126.14C196.975 126.364 197.07 126.72 197.105 126.909C197.768 126.921 198.159 126.897 198.419 126.755C198.68 126.625 198.775 126.4 198.775 125.95V116.04H197.993ZM212.166 120.705H209.809V121.534H211.313V124.896H212.166V120.705ZM212.166 124.541H211.396C210.839 125.05 210.2 125.583 209.679 125.962L210.141 126.826C210.733 126.305 211.278 125.796 211.799 125.287C212.533 126.222 213.61 126.637 215.173 126.696C216.499 126.755 219.033 126.732 220.371 126.672C220.406 126.412 220.548 125.997 220.655 125.796C219.222 125.891 216.487 125.926 215.173 125.867C213.764 125.82 212.722 125.417 212.166 124.541ZM209.916 116.821C210.638 117.402 211.455 118.23 211.787 118.822L212.521 118.266C212.154 117.686 211.325 116.869 210.591 116.336L209.916 116.821ZM216.144 117.413V125.548H216.996V117.413H216.144ZM214.332 121.605H218.843V122.41H214.332V121.605ZM214.332 120.243H218.843V121.025H214.332V120.243ZM213.563 119.639V123.014H219.648V119.639H213.563ZM212.935 116.454V117.994H213.728V117.129H219.447V117.994H220.276V116.454H212.935ZM213.184 118.254V118.917H219.992V118.254H213.184ZM212.734 123.724V124.423H220.489V123.724H212.734ZM223.923 116.466V117.295H226.67V116.466H223.923ZM223.923 119.237V120.066H226.693V119.237H223.923ZM228.54 120.527V121.356H232.838V120.527H228.54ZM223.899 122.078V122.919H226.67V122.078H223.899ZM223.556 116.466V120.729C223.556 122.469 223.496 124.849 222.679 126.518C222.893 126.601 223.248 126.803 223.414 126.945C224.254 125.192 224.373 122.576 224.373 120.729V116.466H223.556ZM226.172 116.466V125.855C226.172 126.021 226.113 126.068 225.947 126.08C225.805 126.092 225.308 126.092 224.751 126.08C224.87 126.305 224.976 126.708 225.012 126.921C225.817 126.933 226.291 126.909 226.599 126.767C226.895 126.613 227.001 126.341 227.001 125.867V116.466H226.172ZM232.223 116.502V118.787C232.223 118.929 232.175 118.976 231.986 118.976C231.796 118.988 231.169 118.988 230.458 118.976C230.565 119.189 230.695 119.485 230.743 119.734C231.642 119.734 232.234 119.734 232.601 119.604C232.98 119.474 233.075 119.237 233.075 118.799V116.502H232.223ZM232.601 120.527V120.693C232.092 123.286 230.624 125.311 228.943 126.199C229.12 126.353 229.357 126.66 229.464 126.862C231.311 125.761 232.826 123.712 233.418 120.681L232.897 120.504L232.755 120.527H232.601ZM229.866 121.036L229.156 121.226C229.902 123.748 231.275 125.891 233.193 126.933C233.324 126.732 233.572 126.424 233.774 126.258C231.915 125.358 230.541 123.333 229.866 121.036ZM228.043 116.502V126.921H228.884V117.331H232.459V116.502H228.043ZM235.988 116.62V117.39H240.025V116.62H235.988ZM240.558 122.67V123.44H245.696V122.67H240.558ZM235.857 120.196V120.989H240.309V120.196H235.857ZM237.929 120.516V125.891C237.929 126.021 237.882 126.057 237.752 126.068C237.61 126.068 237.136 126.068 236.627 126.057C236.745 126.293 236.864 126.66 236.887 126.885C237.622 126.885 238.083 126.874 238.379 126.743C238.699 126.589 238.782 126.353 238.782 125.891V120.516H237.929ZM245.389 122.67V122.812C245.211 124.884 244.998 125.713 244.749 125.95C244.643 126.057 244.536 126.068 244.347 126.068C244.157 126.068 243.684 126.057 243.175 126.009C243.305 126.246 243.388 126.601 243.411 126.838C243.944 126.874 244.465 126.874 244.737 126.85C245.057 126.826 245.27 126.755 245.483 126.542C245.827 126.187 246.04 125.287 246.265 123.061C246.288 122.931 246.3 122.67 246.3 122.67H245.389ZM242.772 121.498C242.571 123.547 242.109 125.334 239.646 126.246C239.836 126.4 240.072 126.72 240.179 126.933C242.855 125.891 243.435 123.89 243.66 121.498H242.772ZM236.402 118.597C237.408 119.047 238.616 119.793 239.208 120.338L239.8 119.687C239.184 119.142 237.953 118.444 236.959 118.029L236.402 118.597ZM240.072 120.196V120.35C239.883 121.202 239.587 122.256 239.279 122.907L239.907 123.215C240.274 122.481 240.629 121.344 240.878 120.35L240.333 120.16L240.203 120.196H240.072ZM244.82 117.638C244.181 119.474 242.523 120.527 240.368 121.072C240.546 121.261 240.818 121.628 240.925 121.818C243.163 121.119 244.939 119.935 245.732 117.792L244.82 117.638ZM242.287 116.028C241.813 117.165 240.949 118.242 240.013 118.941C240.238 119.059 240.593 119.308 240.747 119.462C241.659 118.704 242.571 117.52 243.127 116.253L242.287 116.028ZM242.073 117.887L241.339 118.136C242.287 119.959 244.063 121.285 246.229 121.865C246.348 121.628 246.608 121.285 246.798 121.108C244.69 120.646 242.926 119.462 242.073 117.887ZM237.823 120.456C237.432 121.818 236.591 123.369 235.739 124.174C235.893 124.387 236.106 124.754 236.201 125.003C237.124 124.079 237.977 122.244 238.427 120.681L237.823 120.456ZM242.026 117.283L241.659 118.041H246.549V117.283H242.026ZM239.812 116.62V116.786C239.421 117.425 238.592 118.29 237.835 118.787C238.012 118.893 238.285 119.083 238.439 119.225C239.255 118.68 240.179 117.78 240.724 116.952L240.143 116.585L240.001 116.62H239.812Z" fill="#858585"/>
        <path d="M189.934 30.0937H234.169V35.3559M256.205 51.307H234.169V35.3559M256.205 51.307L261.467 57.8848V74.987C258.233 74.987 251.666 74.987 251.271 74.987M256.205 51.307L248.147 35.3559H234.169M189.934 74.987H199.307M186.809 41.1115H209.503M205.391 51.307H182.534M186.809 61.8315H199.143M251.271 74.987C251.271 79.3464 247.737 82.8804 243.378 82.8804C239.019 82.8804 235.485 79.3464 235.485 74.987M251.271 74.987C251.271 70.6277 247.737 67.0937 243.378 67.0937C239.019 67.0937 235.485 70.6277 235.485 74.987M235.485 74.987H215.094M215.094 74.987C215.094 79.3464 211.56 82.8804 207.2 82.8804C202.841 82.8804 199.307 79.3464 199.307 74.987M215.094 74.987C215.094 70.6277 211.56 67.0937 207.2 67.0937C202.841 67.0937 199.307 70.6277 199.307 74.987" stroke="#EAD8C2" stroke-width="2.96" stroke-linecap="round" stroke-linejoin="round"/>
        <rect width="148" height="148" transform="translate(296)" fill="white"/>
        <path d="M345.089 116.833V117.567H355.568V116.833H345.089ZM346.913 119.995V120.527H354.265V119.995H346.913ZM346.913 121.119V121.652H354.301V121.119H346.913ZM346.913 122.256V122.872H355.26V122.256H346.913ZM346.439 125.962V126.566H354.289V125.962H346.439ZM346.569 124.707V125.252H349.896V124.707H346.569ZM350.666 124.707V125.252H354.194V124.707H350.666ZM347.872 116.04V118.207H348.736V116.04H347.872ZM351.826 116.04V118.207H352.702V116.04H351.826ZM349.908 119.083V122.588H350.749V119.083H349.908ZM347.209 118.763H347.007L346.38 119.403V123.108H347.209V119.367H354.81V118.763H347.209ZM350.18 117.816C350.086 118.148 349.884 118.633 349.719 118.988L350.429 119.142C350.619 118.822 350.855 118.384 351.068 117.946L350.18 117.816ZM350.595 123.464V124.044H353.863V126.933H354.751V123.464H350.595ZM345.989 123.416V126.945H346.877V123.629L345.989 123.416ZM349.541 123.002C348.807 123.262 347.457 123.511 346.321 123.665C346.392 123.819 346.498 124.044 346.534 124.198C347.741 124.056 349.174 123.819 350.145 123.499L349.541 123.002ZM347.149 117.828C346.747 118.657 346.001 119.71 344.971 120.504C345.16 120.622 345.433 120.871 345.563 121.048C346.676 120.137 347.457 119.012 347.978 117.97L347.149 117.828ZM363.737 116.028C363.335 117.828 362.636 119.533 361.642 120.598C361.831 120.717 362.186 120.977 362.328 121.108C363.323 119.935 364.104 118.136 364.542 116.194L363.737 116.028ZM367.822 118.017V118.23C367.573 123.428 367.301 125.311 366.91 125.761C366.768 125.915 366.65 125.962 366.46 125.962C366.235 125.962 365.75 125.95 365.217 125.903C365.359 126.14 365.442 126.518 365.466 126.779C365.987 126.814 366.508 126.826 366.816 126.779C367.183 126.743 367.408 126.637 367.644 126.317C368.13 125.737 368.379 123.878 368.651 118.479C368.663 118.349 368.663 118.017 368.663 118.017H367.822ZM363.654 118.017L363.275 118.858H368.177V118.017H363.654ZM364.85 118.278C364.365 120.35 363.228 122.647 361.843 123.736C362.08 123.866 362.364 124.079 362.541 124.257C363.891 123.085 365.016 120.717 365.525 118.621L364.85 118.278ZM366.543 118.349C365.975 121.498 364.661 124.707 362.589 126.187C362.849 126.317 363.169 126.542 363.347 126.732C365.336 125.133 366.662 121.865 367.254 118.68L366.543 118.349ZM357.829 122.599L358.066 123.464C359.262 123.085 360.86 122.588 362.364 122.114L362.245 121.332C360.635 121.818 358.942 122.315 357.829 122.599ZM360.043 116.04V126.921H360.872V116.04H360.043ZM358.575 116.715C358.433 118.171 358.196 119.675 357.746 120.681C357.936 120.764 358.279 120.965 358.421 121.072C358.871 120.018 359.167 118.42 359.345 116.845L358.575 116.715ZM358.646 118.455L358.504 119.32H362.091V118.455H358.646ZM374.867 120.054H377.744V122.777H374.867V120.054ZM374.026 119.26V123.558H378.632V119.26H374.026ZM371.41 116.514V126.909H372.321V117.413H380.361V126.909H381.308V116.514H371.41ZM371.919 125.441V126.282H380.905V125.441H371.919ZM383.865 123.724L384.161 124.612C385.132 124.328 386.387 123.937 387.595 123.558L387.488 122.765C386.139 123.132 384.777 123.511 383.865 123.724ZM387.098 116.087V126.921H387.962V116.087H387.098ZM384.67 117.402V123.831H385.523V117.402H384.67ZM389.868 118.23V119.071H394.865V118.23H389.868ZM390.188 116.028C389.75 118.005 388.98 119.924 387.926 121.131C388.139 121.273 388.507 121.593 388.649 121.771C389.738 120.433 390.579 118.384 391.099 116.206L390.188 116.028ZM393.325 118.633C392.603 122.398 391.111 124.802 388.068 126.163C388.234 126.353 388.507 126.755 388.589 126.956C391.763 125.405 393.385 122.836 394.213 118.775L393.325 118.633ZM390.188 118.917L389.383 119.071C390.164 122.765 391.632 125.63 394.391 126.956C394.521 126.72 394.805 126.376 395.007 126.199C392.355 125.062 390.875 122.292 390.188 118.917Z" fill="#858585"/>
        <mask id="path-7-outside-1_3949_39694" maskUnits="userSpaceOnUse" x="341.374" y="26.1335" width="60" height="61" fill="black">
            <rect fill="white" x="341.374" y="26.1335" width="60" height="61"/>
            <path fill-rule="evenodd" clip-rule="evenodd" d="M366.482 27.3297L370.823 31.5933C371.089 31.8549 371.089 32.2791 370.823 32.5407L366.482 36.8043C366.215 37.0659 365.783 37.0659 365.517 36.8043C365.251 36.5427 365.251 36.1185 365.517 35.8568L368.64 32.7895C354.74 33.6506 343.738 44.9959 343.738 58.8652C343.738 60.4136 343.875 61.93 344.138 63.4035C344.202 63.768 343.954 64.1152 343.583 64.179C343.212 64.2428 342.859 63.9991 342.794 63.6346C342.517 62.0852 342.374 60.4914 342.374 58.8652C342.374 44.223 354.038 32.2566 368.739 31.4413L365.517 28.2772C365.251 28.0155 365.251 27.5913 365.517 27.3297C365.783 27.0681 366.215 27.0681 366.482 27.3297ZM379.034 33.4471C379.162 33.0994 379.554 32.9201 379.908 33.0467C390.641 36.8844 398.307 46.9946 398.307 58.8652C398.307 63.3072 397.233 67.5044 395.326 71.2184L399.729 70.064C400.093 69.9685 400.466 70.181 400.564 70.5385C400.661 70.896 400.444 71.2631 400.081 71.3586L394.149 72.9137C393.785 73.0092 393.411 72.7967 393.314 72.4392L391.731 66.6136C391.634 66.2561 391.85 65.889 392.214 65.7936C392.578 65.6981 392.952 65.9106 393.049 66.268L394.188 70.4577C395.951 66.9651 396.943 63.0297 396.943 58.8652C396.943 47.5757 389.652 37.9569 379.441 34.3058C379.087 34.1792 378.905 33.7948 379.034 33.4471ZM346.048 72.0937C346.145 71.7362 346.519 71.5238 346.883 71.6192L352.814 73.1744C353.178 73.2698 353.395 73.637 353.297 73.9945C353.2 74.352 352.826 74.5644 352.462 74.469L348.197 73.3505C352.967 80.3711 361.104 84.9936 370.34 84.9936C376.852 84.9936 382.816 82.6963 387.44 78.8812C387.729 78.6433 388.159 78.68 388.401 78.9633C388.644 79.2466 388.606 79.6692 388.318 79.9072C383.457 83.9175 377.185 86.3335 370.34 86.3335C360.562 86.3335 351.956 81.4043 346.958 73.9404L345.783 78.2649C345.686 78.6224 345.312 78.8348 344.948 78.7394C344.584 78.644 344.367 78.2768 344.465 77.9193L346.048 72.0937Z"/>
        </mask>
        <path fill-rule="evenodd" clip-rule="evenodd" d="M366.482 27.3297L370.823 31.5933C371.089 31.8549 371.089 32.2791 370.823 32.5407L366.482 36.8043C366.215 37.0659 365.783 37.0659 365.517 36.8043C365.251 36.5427 365.251 36.1185 365.517 35.8568L368.64 32.7895C354.74 33.6506 343.738 44.9959 343.738 58.8652C343.738 60.4136 343.875 61.93 344.138 63.4035C344.202 63.768 343.954 64.1152 343.583 64.179C343.212 64.2428 342.859 63.9991 342.794 63.6346C342.517 62.0852 342.374 60.4914 342.374 58.8652C342.374 44.223 354.038 32.2566 368.739 31.4413L365.517 28.2772C365.251 28.0155 365.251 27.5913 365.517 27.3297C365.783 27.0681 366.215 27.0681 366.482 27.3297ZM379.034 33.4471C379.162 33.0994 379.554 32.9201 379.908 33.0467C390.641 36.8844 398.307 46.9946 398.307 58.8652C398.307 63.3072 397.233 67.5044 395.326 71.2184L399.729 70.064C400.093 69.9685 400.466 70.181 400.564 70.5385C400.661 70.896 400.444 71.2631 400.081 71.3586L394.149 72.9137C393.785 73.0092 393.411 72.7967 393.314 72.4392L391.731 66.6136C391.634 66.2561 391.85 65.889 392.214 65.7936C392.578 65.6981 392.952 65.9106 393.049 66.268L394.188 70.4577C395.951 66.9651 396.943 63.0297 396.943 58.8652C396.943 47.5757 389.652 37.9569 379.441 34.3058C379.087 34.1792 378.905 33.7948 379.034 33.4471ZM346.048 72.0937C346.145 71.7362 346.519 71.5238 346.883 71.6192L352.814 73.1744C353.178 73.2698 353.395 73.637 353.297 73.9945C353.2 74.352 352.826 74.5644 352.462 74.469L348.197 73.3505C352.967 80.3711 361.104 84.9936 370.34 84.9936C376.852 84.9936 382.816 82.6963 387.44 78.8812C387.729 78.6433 388.159 78.68 388.401 78.9633C388.644 79.2466 388.606 79.6692 388.318 79.9072C383.457 83.9175 377.185 86.3335 370.34 86.3335C360.562 86.3335 351.956 81.4043 346.958 73.9404L345.783 78.2649C345.686 78.6224 345.312 78.8348 344.948 78.7394C344.584 78.644 344.367 78.2768 344.465 77.9193L346.048 72.0937Z" fill="#EAD8C2"/>
        <path d="M370.823 31.5933L371.341 31.0653L371.341 31.0653L370.823 31.5933ZM366.482 27.3297L365.963 27.8577V27.8577L366.482 27.3297ZM370.823 32.5407L371.341 33.0687L371.341 33.0687L370.823 32.5407ZM366.482 36.8043L365.963 36.2764V36.2764L366.482 36.8043ZM365.517 35.8568L364.998 35.3289V35.3289L365.517 35.8568ZM368.64 32.7895L369.158 33.3174L370.573 31.9283L368.594 32.0509L368.64 32.7895ZM344.138 63.4035L343.409 63.5334L344.138 63.4035ZM343.583 64.179L343.709 64.9083L343.709 64.9083L343.583 64.179ZM342.794 63.6346L343.522 63.5048H343.522L342.794 63.6346ZM368.739 31.4413L368.779 32.1802L370.452 32.0874L369.257 30.9134L368.739 31.4413ZM365.517 28.2772L364.998 28.8051V28.8051L365.517 28.2772ZM379.908 33.0467L379.659 33.7435V33.7435L379.908 33.0467ZM395.326 71.2184L394.667 70.8804L393.91 72.3545L395.513 71.9342L395.326 71.2184ZM399.729 70.064L399.541 69.3482H399.541L399.729 70.064ZM400.564 70.5385L399.85 70.7326V70.7326L400.564 70.5385ZM400.081 71.3586L399.893 70.6428H399.893L400.081 71.3586ZM394.149 72.9137L393.962 72.1979H393.962L394.149 72.9137ZM393.314 72.4392L394.028 72.2451V72.2451L393.314 72.4392ZM391.731 66.6136L391.017 66.8077V66.8077L391.731 66.6136ZM392.214 65.7936L392.402 66.5094H392.402L392.214 65.7936ZM393.049 66.268L392.335 66.4621L393.049 66.268ZM394.188 70.4577L393.474 70.6518L393.979 72.5123L394.848 70.7912L394.188 70.4577ZM379.441 34.3058L379.69 33.609V33.609L379.441 34.3058ZM346.883 71.6192L347.071 70.9034H347.071L346.883 71.6192ZM346.048 72.0937L345.334 71.8996H345.334L346.048 72.0937ZM352.814 73.1744L352.627 73.8902H352.627L352.814 73.1744ZM353.297 73.9945L352.583 73.8004L352.583 73.8004L353.297 73.9945ZM352.462 74.469L352.275 75.1848L352.275 75.1848L352.462 74.469ZM348.197 73.3505L348.384 72.6347L346.475 72.1342L347.584 73.7664L348.197 73.3505ZM387.44 78.8812L386.969 78.3104L387.44 78.8812ZM388.318 79.9072L388.789 80.478L388.318 79.9072ZM346.958 73.9404L347.573 73.5287L346.67 72.18L346.244 73.7463L346.958 73.9404ZM345.783 78.2649L346.497 78.459H346.497L345.783 78.2649ZM344.948 78.7394L345.135 78.0236L344.948 78.7394ZM344.465 77.9193L345.179 78.1134L345.179 78.1134L344.465 77.9193ZM371.341 31.0653L367 26.8018L365.963 27.8577L370.304 32.1212L371.341 31.0653ZM371.341 33.0687C371.903 32.517 371.903 31.617 371.341 31.0653L370.304 32.1212C370.291 32.1087 370.282 32.088 370.282 32.067C370.282 32.046 370.291 32.0253 370.304 32.0128L371.341 33.0687ZM367 37.3323L371.341 33.0687L370.304 32.0128L365.963 36.2764L367 37.3323ZM364.998 37.3322C365.553 37.8766 366.446 37.8766 367 37.3322L365.963 36.2764C365.975 36.2645 365.99 36.2605 365.999 36.2605C366.009 36.2605 366.023 36.2645 366.035 36.2764L364.998 37.3322ZM364.998 35.3289C364.437 35.8806 364.437 36.7806 364.998 37.3322L366.035 36.2764C366.048 36.2889 366.057 36.3095 366.057 36.3306C366.057 36.3516 366.048 36.3723 366.035 36.3848L364.998 35.3289ZM368.121 32.2615L364.998 35.3289L366.035 36.3848L369.158 33.3174L368.121 32.2615ZM344.478 58.8652C344.478 45.4007 355.162 34.3658 368.686 33.5281L368.594 32.0509C354.318 32.9353 342.998 44.5912 342.998 58.8652H344.478ZM344.866 63.2737C344.611 61.8428 344.478 60.3699 344.478 58.8652H342.998C342.998 60.4574 343.139 62.0173 343.409 63.5334L344.866 63.2737ZM343.709 64.9083C344.473 64.7769 345.005 64.0539 344.866 63.2737L343.409 63.5334C343.4 63.4821 343.436 63.4534 343.458 63.4497L343.709 64.9083ZM342.065 63.7645C342.204 64.5411 342.948 65.0391 343.709 64.9083L343.458 63.4497C343.469 63.4477 343.483 63.4508 343.494 63.4582C343.505 63.4658 343.518 63.4821 343.522 63.5048L342.065 63.7645ZM341.634 58.8652C341.634 60.5352 341.781 62.1724 342.065 63.7645L343.522 63.5048C343.254 61.9979 343.114 60.4477 343.114 58.8652H341.634ZM368.698 30.7025C353.619 31.5387 341.634 43.8165 341.634 58.8652H343.114C343.114 44.6294 354.458 32.9744 368.779 32.1802L368.698 30.7025ZM364.998 28.8051L368.22 31.9693L369.257 30.9134L366.035 27.7492L364.998 28.8051ZM364.998 26.8018C364.437 27.3534 364.437 28.2535 364.998 28.8051L366.035 27.7492C366.048 27.7617 366.057 27.7824 366.057 27.8034C366.057 27.8245 366.048 27.8451 366.035 27.8577L364.998 26.8018ZM367 26.8018C366.446 26.2574 365.553 26.2574 364.998 26.8018L366.035 27.8577C366.023 27.8695 366.009 27.8735 365.999 27.8735C365.99 27.8735 365.975 27.8695 365.963 27.8577L367 26.8018ZM380.157 32.3499C379.43 32.0901 378.613 32.4533 378.34 33.1899L379.727 33.7043C379.72 33.7247 379.705 33.737 379.694 33.7419C379.684 33.7466 379.67 33.7477 379.659 33.7435L380.157 32.3499ZM399.047 58.8652C399.047 46.6654 391.168 36.2871 380.157 32.3499L379.659 33.7435C390.113 37.4816 397.567 47.3239 397.567 58.8652H399.047ZM395.984 71.5565C397.943 67.7406 399.047 63.4279 399.047 58.8652H397.567C397.567 63.1865 396.522 67.2681 394.667 70.8804L395.984 71.5565ZM399.541 69.3482L395.138 70.5026L395.513 71.9342L399.916 70.7798L399.541 69.3482ZM401.278 70.3444C401.071 69.5847 400.287 69.1525 399.541 69.3482L399.916 70.7798C399.905 70.7828 399.891 70.7808 399.881 70.7748C399.87 70.7686 399.855 70.7542 399.85 70.7326L401.278 70.3444ZM400.268 72.0744C401.019 71.8774 401.486 71.1093 401.278 70.3444L399.85 70.7326C399.836 70.6826 399.87 70.6488 399.893 70.6428L400.268 72.0744ZM394.337 73.6295L400.268 72.0744L399.893 70.6428L393.962 72.1979L394.337 73.6295ZM392.6 72.6333C392.807 73.393 393.591 73.8252 394.337 73.6295L393.962 72.1979C393.973 72.1949 393.987 72.1969 393.997 72.2029C394.008 72.2091 394.022 72.2235 394.028 72.2451L392.6 72.6333ZM391.017 66.8077L392.6 72.6333L394.028 72.2451L392.445 66.4195L391.017 66.8077ZM392.026 65.0778C391.275 65.2747 390.809 66.0428 391.017 66.8077L392.445 66.4195C392.459 66.4695 392.425 66.5033 392.402 66.5094L392.026 65.0778ZM393.763 66.074C393.557 65.3143 392.773 64.8821 392.026 65.0778L392.402 66.5094C392.39 66.5124 392.376 66.5104 392.366 66.5043C392.355 66.4982 392.341 66.4838 392.335 66.4621L393.763 66.074ZM394.902 70.2636L393.763 66.074L392.335 66.4621L393.474 70.6518L394.902 70.2636ZM396.203 58.8652C396.203 62.9108 395.24 66.7323 393.527 70.1242L394.848 70.7912C396.663 67.1979 397.683 63.1485 397.683 58.8652H396.203ZM379.192 35.0026C389.125 38.5542 396.203 47.9049 396.203 58.8652H397.683C397.683 47.2466 390.18 37.3597 379.69 33.609L379.192 35.0026ZM378.34 33.1899C378.064 33.933 378.459 34.7406 379.192 35.0026L379.69 33.609C379.715 33.6178 379.745 33.6565 379.727 33.7043L378.34 33.1899ZM347.071 70.9034C346.324 70.7077 345.54 71.1399 345.334 71.8996L346.762 72.2878C346.756 72.3095 346.742 72.3238 346.731 72.33C346.72 72.336 346.707 72.3381 346.695 72.335L347.071 70.9034ZM353.002 72.4586L347.071 70.9034L346.695 72.335L352.627 73.8902L353.002 72.4586ZM354.011 74.1886C354.219 73.4236 353.753 72.6555 353.002 72.4586L352.627 73.8902C352.603 73.8841 352.57 73.8504 352.583 73.8004L354.011 74.1886ZM352.275 75.1848C353.021 75.3805 353.805 74.9482 354.011 74.1886L352.583 73.8004C352.589 73.7787 352.604 73.7643 352.614 73.7582C352.625 73.7522 352.638 73.7501 352.65 73.7532L352.275 75.1848ZM348.009 74.0663L352.275 75.1848L352.65 73.7532L348.384 72.6347L348.009 74.0663ZM370.34 84.2536C361.356 84.2536 353.445 79.758 348.809 72.9346L347.584 73.7664C352.489 80.9842 360.853 85.7336 370.34 85.7336V84.2536ZM386.969 78.3104C382.474 82.0193 376.675 84.2536 370.34 84.2536V85.7336C377.029 85.7336 383.158 83.3734 387.911 79.452L386.969 78.3104ZM388.964 78.4823C388.458 77.8907 387.567 77.8169 386.969 78.3104L387.911 79.452C387.899 79.4622 387.885 79.4649 387.875 79.4641C387.866 79.4633 387.851 79.4579 387.839 79.4443L388.964 78.4823ZM388.789 80.478C389.395 79.9781 389.476 79.0818 388.964 78.4823L387.839 79.4443C387.811 79.4114 387.818 79.3604 387.847 79.3364L388.789 80.478ZM370.34 87.0735C377.362 87.0735 383.799 84.5945 388.789 80.478L387.847 79.3364C383.115 83.2405 377.008 85.5935 370.34 85.5935V87.0735ZM346.343 74.3522C351.475 82.0156 360.308 87.0735 370.34 87.0735V85.5935C360.815 85.5935 352.438 80.7929 347.573 73.5287L346.343 74.3522ZM346.497 78.459L347.672 74.1345L346.244 73.7463L345.069 78.0708L346.497 78.459ZM344.76 79.4552C345.506 79.6509 346.29 79.2187 346.497 78.459L345.069 78.0708C345.075 78.0491 345.089 78.0348 345.1 78.0286C345.11 78.0226 345.124 78.0205 345.135 78.0236L344.76 79.4552ZM343.751 77.7252C343.543 78.4902 344.009 79.2583 344.76 79.4552L345.135 78.0236C345.159 78.0297 345.192 78.0634 345.179 78.1134L343.751 77.7252ZM345.334 71.8996L343.751 77.7252L345.179 78.1134L346.762 72.2878L345.334 71.8996Z" fill="#EAD8C2" mask="url(#path-7-outside-1_3949_39694)"/>
    </g>
    <defs>
        <clipPath id="clip0_3949_39694">
            <rect width="368" height="148" fill="white"/>
        </clipPath>
    </defs>
</svg>
