<svg width="32" height="32" viewBox="0 0 32 32" fill="none" xmlns="http://www.w3.org/2000/svg">
    <path d="M2.66687 16.0001C2.66687 8.63628 8.63641 2.66675 16.0002 2.66675C23.364 2.66675 29.3335 8.63628 29.3335 16.0001C29.3335 23.3639 23.364 29.3334 16.0002 29.3334C8.63641 29.3334 2.66687 23.3639 2.66687 16.0001Z" fill="white"/>
    <path fill-rule="evenodd" clip-rule="evenodd" d="M16.0002 2.66675C8.63641 2.66675 2.66687 8.63628 2.66687 16.0001C2.66687 23.3639 8.63641 29.3334 16.0002 29.3334C23.364 29.3334 29.3335 23.3639 29.3335 16.0001C29.3335 8.63628 23.364 2.66675 16.0002 2.66675ZM15.24 19.9869L21.5733 13.6536C22.0266 13.2003 22.0266 12.4669 21.5733 12.0003C21.12 11.5469 20.3733 11.5469 19.92 12.0003L14.4133 17.5069L12.08 15.1736C11.6266 14.7203 10.88 14.7203 10.4267 15.1736C9.97332 15.6269 9.97332 16.3603 10.4267 16.8269L13.6 19.9869C13.8266 20.2136 14.12 20.3203 14.4133 20.3203C14.72 20.3203 15.0133 20.2136 15.24 19.9869Z" fill="#FD6A58"/>
</svg>
