<svg width="36" height="36" viewBox="0 0 36 36" fill="none" xmlns="http://www.w3.org/2000/svg">
    <circle cx="18" cy="18" r="18" fill="white"/>
    <path fill-rule="evenodd" clip-rule="evenodd"
          d="M27.6651 18.9614C28.1356 18.9016 28.5 18.4939 28.5 18.0002C28.5 17.4655 28.0724 17.0315 27.5455 17.0315H10.7658L16.8278 10.9052L16.9136 10.8062C17.1994 10.4274 17.171 9.88281 16.8304 9.53471C16.4587 9.15625 15.8542 9.15496 15.4813 9.53212L7.78127 17.3144L7.69636 17.4118C7.56717 17.5823 7.5 17.7904 7.5 18.0002C7.5 18.1255 7.52418 18.2508 7.57255 18.3697C7.72018 18.7326 8.06764 18.969 8.45455 18.969H27.5455L27.6651 18.9614ZM16.8305 26.4654C17.2021 26.0856 17.2021 25.4721 16.8279 25.0949L12.5808 20.8027L12.4828 20.716C12.1077 20.4271 11.5724 20.4572 11.2317 20.8053C11.0459 20.9952 10.953 21.2419 10.953 21.4886C10.953 21.7379 11.0459 21.9859 11.2343 22.1757L15.4801 26.4679L15.5782 26.5543C15.9534 26.8423 16.4898 26.8123 16.8305 26.4654Z"
          fill="#292929"/>
</svg>
