<svg width="40" height="40" viewBox="0 0 40 40" fill="none" xmlns="http://www.w3.org/2000/svg">
    <circle cx="20" cy="20" r="20" fill="white"/>
    <path fill-rule="evenodd" clip-rule="evenodd" d="M29.6651 20.9614C30.1356 20.9016 30.5 20.4938 30.5 20.0002C30.5 19.4654 30.0724 19.0314 29.5455 19.0314H12.7658L18.8278 12.9051L18.9136 12.8061C19.1994 12.4273 19.171 11.8827 18.8304 11.5346C18.4587 11.1562 17.8542 11.1549 17.4813 11.5321L9.78127 19.3143L9.69636 19.4118C9.56717 19.5822 9.5 19.7903 9.5 20.0002C9.5 20.1255 9.52418 20.2508 9.57255 20.3696C9.72018 20.7325 10.0676 20.9689 10.4545 20.9689H29.5455L29.6651 20.9614ZM18.8305 28.4653C19.2021 28.0856 19.2021 27.4721 18.8279 27.0949L14.5808 22.8027L14.4828 22.716C14.1077 22.4271 13.5724 22.4572 13.2317 22.8053C13.0459 22.9952 12.953 23.2419 12.953 23.4886C12.953 23.7379 13.0459 23.9859 13.2343 24.1757L17.4801 28.4679L17.5782 28.5543C17.9534 28.8423 18.4898 28.8123 18.8305 28.4653Z" fill="#292929"/>
</svg>
