<svg width="32" height="32" viewBox="0 0 32 32" fill="none" xmlns="http://www.w3.org/2000/svg">
    <path fill-rule="evenodd" clip-rule="evenodd" d="M20.9963 2.66638H11.0057C5.88033 2.66638 2.667 5.85705 2.667 11.0037V14.0997C2.66566 14.6624 3.12166 15.1197 3.68433 15.1197H3.687H3.699C4.255 15.1197 4.707 14.669 4.707 14.1117V14.0877V11.0037C4.707 6.94638 6.947 4.70638 11.0043 4.70638H20.9963C25.067 4.70638 27.2937 6.94638 27.2937 11.0037V21.0037C27.2937 25.0611 25.0537 27.289 20.9963 27.289H11.0057C6.93633 27.289 4.70833 25.049 4.70833 21.0037C4.70833 20.441 4.251 19.9837 3.68833 19.9837C3.12433 19.9837 2.66833 20.441 2.66833 21.0037C2.667 26.1437 5.85633 29.333 10.9923 29.333H20.9963C26.1443 29.333 29.3337 26.1437 29.3337 21.0077V11.0077C29.3337 5.85705 26.1443 2.66638 20.9963 2.66638ZM15.9928 22.0608C15.4408 22.0608 14.9928 21.6128 14.9928 21.0608V15.1675C14.9928 14.6155 15.4408 14.1675 15.9928 14.1675C16.5448 14.1675 16.9928 14.6155 16.9928 15.1675V21.0608C16.9928 21.6128 16.5448 22.0608 15.9928 22.0608ZM15.9933 11.9385H16.0067C16.5587 11.9385 17.0067 11.4905 17.0067 10.9385C17.0067 10.3865 16.5587 9.93848 16.0067 9.93848C15.4547 9.93848 15 10.3865 15 10.9385C15 11.4905 15.4413 11.9385 15.9933 11.9385Z" fill="#292929"/>
</svg>
