<svg width="190" height="133" viewBox="0 0 190 133" fill="none" xmlns="http://www.w3.org/2000/svg">
    <path fill-rule="evenodd" clip-rule="evenodd" d="M51.6421 132.961C55.101 132.961 58.245 131.784 60.5248 129.503C62.8054 127.221 64.2041 123.852 64.2041 119.5C64.2041 115.148 62.8054 111.779 60.5248 109.497C58.245 107.216 55.101 106.04 51.6421 106.04C48.1831 106.04 45.0391 107.216 42.7594 109.497C40.4787 111.779 39.0801 115.148 39.0801 119.5C39.0801 123.852 40.4787 127.221 42.7594 129.503C45.0391 131.784 48.1831 132.961 51.6421 132.961ZM59.2972 119.5C59.2972 122.452 58.4297 124.701 57.0487 126.21C55.6685 127.718 53.7601 128.503 51.6421 128.503C49.524 128.503 47.6157 127.718 46.2354 126.21C44.8544 124.701 43.9869 122.452 43.9869 119.5C43.9869 116.548 44.8544 114.299 46.2354 112.79C47.6157 111.283 49.524 110.497 51.6421 110.497C53.7601 110.497 55.6685 111.283 57.0487 112.79C58.4297 114.299 59.2972 116.548 59.2972 119.5Z" fill="#292929"/>
    <path fill-rule="evenodd" clip-rule="evenodd" d="M4.68733 106.04H0.431941C0.192403 106.04 -0.00645997 106.234 0.000160683 106.48C0.0363491 107.827 0.218522 114.841 0.218522 119.5C0.218522 124.16 0.0363492 131.173 0.000160708 132.52C-0.00645994 132.766 0.192403 132.961 0.431941 132.961H4.68733C4.92553 132.961 5.1258 132.769 5.11914 132.521C5.08796 131.361 4.94781 125.972 4.91011 121.521C4.91004 121.512 4.91672 121.504 4.92759 121.504H16.59C16.6009 121.504 16.6076 121.512 16.6075 121.521C16.5698 125.972 16.4296 131.361 16.3985 132.521C16.3918 132.769 16.5921 132.961 16.8303 132.961H21.0857C21.3252 132.961 21.5241 132.766 21.5174 132.52C21.4813 131.173 21.2991 124.16 21.2991 119.5C21.2991 114.841 21.4813 107.827 21.5174 106.48C21.5241 106.234 21.3252 106.04 21.0857 106.04H16.8303C16.5913 106.04 16.3918 106.233 16.3985 106.48C16.4286 107.602 16.5605 112.673 16.6034 117.03C16.6035 117.039 16.5965 117.047 16.5859 117.047H4.93171C4.92108 117.047 4.91414 117.039 4.91423 117.03C4.95706 112.673 5.08896 107.602 5.11912 106.48C5.12576 106.233 4.92631 106.04 4.68733 106.04Z" fill="#292929"/>
    <path d="M129.608 106.921V132.08C129.608 132.566 130.002 132.961 130.489 132.961H149.358C149.597 132.961 149.79 132.767 149.79 132.529V128.822C149.79 128.584 149.597 128.391 149.358 128.391H134.869C134.86 128.391 134.852 128.383 134.852 128.373V121.746C134.852 121.737 134.86 121.729 134.869 121.729H147.561C147.8 121.729 147.993 121.536 147.993 121.297V117.029C147.993 116.791 147.8 116.597 147.561 116.597H134.757C134.747 116.597 134.739 116.59 134.739 116.58V110.739C134.739 110.73 134.747 110.722 134.757 110.722H149.134C149.372 110.722 149.565 110.528 149.565 110.29V106.471C149.565 106.233 149.372 106.04 149.134 106.04H130.489C130.002 106.04 129.608 106.434 129.608 106.921Z" fill="#292929"/>
    <path d="M169.818 106.921V132.08C169.818 132.566 170.212 132.961 170.699 132.961H189.568C189.807 132.961 190 132.767 190 132.529V128.822C190 128.584 189.807 128.391 189.568 128.391H175.079C175.07 128.391 175.062 128.383 175.062 128.373V121.746C175.062 121.737 175.07 121.729 175.079 121.729H188.445C188.683 121.729 188.877 121.536 188.877 121.297V117.029C188.877 116.791 188.683 116.597 188.445 116.597H174.967C174.957 116.597 174.949 116.59 174.949 116.58V110.739C174.949 110.73 174.957 110.722 174.967 110.722H189.344C189.582 110.722 189.775 110.528 189.775 110.29V106.471C189.775 106.233 189.582 106.04 189.344 106.04H170.699C170.212 106.04 169.818 106.434 169.818 106.921Z" fill="#292929"/>
    <path d="M82.1925 132.961H86.0099C86.2493 132.961 86.443 132.766 86.4416 132.526L86.3338 114.733L95.3617 123.973C95.5311 124.146 95.81 124.146 95.9793 123.973L105.007 114.733L104.899 132.526C104.898 132.766 105.092 132.961 105.331 132.961H109.149C109.387 132.961 109.58 132.767 109.58 132.529V106.471C109.58 106.233 109.387 106.04 109.149 106.04H106.398C106.089 106.04 105.794 106.169 105.584 106.397L95.6835 117.158C95.6765 117.166 95.6646 117.166 95.6576 117.158L85.7567 106.397C85.5474 106.169 85.2523 106.04 84.943 106.04H82.1925C81.954 106.04 81.7607 106.233 81.7607 106.471V132.529C81.7607 132.767 81.954 132.961 82.1925 132.961Z" fill="#292929"/>
    <rect x="54.5" y="0.0397949" width="81" height="81" rx="8.1" fill="#FD6A58"/>
    <path d="M73.7541 33.3086L73.6159 33.4053V33.574V58.036C73.6159 58.7518 74.1962 59.332 74.9119 59.332H77.1799C77.8957 59.332 78.4759 58.7518 78.4759 58.036V36.3473C78.4759 36.1362 78.5788 35.9382 78.7516 35.8169L94.6276 24.6732C94.8511 24.5164 95.1488 24.5164 95.3722 24.6732L111.248 35.8169C111.421 35.9382 111.524 36.1362 111.524 36.3473V58.036C111.524 58.7518 112.104 59.332 112.82 59.332H115.088C115.804 59.332 116.384 58.7518 116.384 58.036V33.574V33.4053L116.246 33.3086L95.1857 18.5666L94.9999 18.4365L94.8141 18.5666L73.7541 33.3086ZM92.5699 49.936V58.036C92.5699 58.7518 93.1502 59.332 93.8659 59.332H96.1339C96.8497 59.332 97.4299 58.7518 97.4299 58.036V49.936C97.4299 49.2203 96.8497 48.64 96.1339 48.64H93.8659C93.1502 48.64 92.5699 49.2203 92.5699 49.936Z" fill="white" stroke="white" stroke-width="0.648" stroke-linecap="round"/>
</svg>
