<svg width="127" height="43" viewBox="0 0 127 43" fill="none" xmlns="http://www.w3.org/2000/svg">
    <path fill-rule="evenodd" clip-rule="evenodd" d="M11.3584 34.3893C11.2971 34.4186 11.2306 34.4195 11.1718 34.3943C11.114 34.3695 11.0712 34.3232 11.045 34.2708L10.4619 33.1047C10.4289 33.0386 10.4322 32.9652 10.4516 32.9069C10.4748 32.8373 10.5232 32.7728 10.5928 32.7489C12.9382 31.9457 14.864 30.6294 16.3725 28.8641C16.4173 28.8116 16.485 28.791 16.5548 28.7911C17.0107 28.7918 17.4668 28.7948 17.9226 28.7911C17.9537 28.7908 18.04 28.7901 18.1033 28.8639C19.4482 30.433 21.3738 31.7189 23.9191 32.6854C23.9854 32.7106 24.034 32.7739 24.0567 32.8422C24.0784 32.9073 24.0765 32.9797 24.0456 33.0416L23.3976 34.2403C23.3714 34.2919 23.3289 34.3374 23.2718 34.3619C23.2129 34.3871 23.1464 34.3863 23.085 34.3568C23.085 34.3568 22.5684 34.1474 22.2429 34.0005C21.911 33.8508 21.6815 33.7342 21.4026 33.5968V34.2837C21.4026 34.3538 21.3688 34.4142 21.3282 34.4547C21.2876 34.4953 21.2273 34.5292 21.1572 34.5292H13.4807C13.4048 34.5292 13.3359 34.4995 13.29 34.4384C13.2479 34.3824 13.2353 34.3136 13.2353 34.2513V33.5294C12.9531 33.6992 12.6646 33.8474 12.3586 33.9699L11.3584 34.3893ZM20.685 37.4443C20.1082 37.4443 13.7909 37.4443 13.7909 37.4443V40.9698C16.089 40.9698 18.3747 40.9698 20.685 40.9698V37.4443ZM12.3471 35.9817H22.1289C22.199 35.9817 22.2593 36.0156 22.2999 36.0561C22.3405 36.0967 22.3743 36.1571 22.3743 36.2271V42.2193C22.3743 42.2894 22.3405 42.3498 22.2999 42.3903C22.2593 42.4309 22.199 42.4648 22.1289 42.4648H12.3471C12.277 42.4648 12.2166 42.4309 12.176 42.3903C12.1355 42.3498 12.1016 42.2894 12.1016 42.2193V36.2271C12.1016 36.1571 12.1355 36.0967 12.176 36.0561C12.2166 36.0156 12.277 35.9817 12.3471 35.9817ZM20.3258 32.9553C20.3281 32.9465 20.3252 32.9301 20.3103 32.9189C19.1279 32.1516 18.1461 31.3815 17.2165 30.3447C17.2139 30.3418 17.2112 30.3388 17.2087 30.336C17.2078 30.335 17.2069 30.334 17.2061 30.3331C17.2022 30.3369 17.1978 30.3414 17.1931 30.3464C16.2809 31.3238 15.2705 32.2039 14.2266 32.9217C14.2168 32.9284 14.2132 32.9397 14.2163 32.95C14.2176 32.9543 14.22 32.9579 14.2242 32.9609C14.2281 32.9637 14.2386 32.9694 14.261 32.9694H20.2867C20.3098 32.9694 20.3191 32.9636 20.3214 32.962C20.3236 32.9604 20.3249 32.9586 20.3258 32.9553Z" fill="white"/>
    <path fill-rule="evenodd" clip-rule="evenodd" d="M54.6304 42.1182V41.2946C54.6304 41.1107 54.4909 40.9482 54.3169 40.9482H52.6039C52.5361 40.9482 52.4892 40.9012 52.4892 40.8335V33.0922C52.4892 32.8965 52.3385 32.7458 52.1427 32.7458C52.1427 32.7458 43.8067 32.7458 43.6109 32.7458C43.4152 32.7458 43.2645 32.8965 43.2645 33.0922V40.8335C43.2645 40.9012 43.2175 40.9482 43.1498 40.9482H41.5027C41.3069 40.9482 41.1562 41.0989 41.1562 41.2946V42.1182C41.1562 42.3139 41.3069 42.4646 41.5027 42.4646H54.2839C54.4797 42.4646 54.6304 42.3139 54.6304 42.1182ZM44.9615 34.2293H50.7592C50.8202 34.2293 50.8739 34.2667 50.8739 34.344V35.3323C50.8739 35.4 50.827 35.447 50.7592 35.447H44.9615C44.8938 35.447 44.8468 35.4 44.8468 35.3323V34.344C44.8468 34.2762 44.8938 34.2293 44.9615 34.2293ZM50.7921 38.1811H44.9945C44.9267 38.1811 44.8798 38.1342 44.8798 38.0664V37.0123C44.8798 36.9445 44.9267 36.8975 44.9945 36.8975H50.7921C50.8599 36.8975 50.9069 36.9445 50.9069 37.0123V38.0664C50.9069 38.1342 50.8599 38.1811 50.7921 38.1811ZM50.7921 40.9482H44.9945C44.9267 40.9482 44.8798 40.9012 44.8798 40.8335V39.7464C44.8798 39.6786 44.9267 39.6317 44.9945 39.6317H50.7921C50.8599 39.6317 50.9069 39.6786 50.9069 39.7464V40.8335C50.9069 40.9012 50.8599 40.9482 50.7921 40.9482Z" fill="white"/>
    <path fill-rule="evenodd" clip-rule="evenodd" d="M42.6556 33.7022C42.8514 33.7022 43.0021 33.5515 43.0021 33.3558V31.6105C43.0021 31.5469 43.0537 31.4952 43.118 31.4952H52.6028C52.6668 31.4952 52.7186 31.5471 52.7186 31.6111V33.2899C52.7186 33.4856 52.8693 33.6364 53.0651 33.6364H54.0204C54.2161 33.6364 54.3668 33.4856 54.3668 33.2899V30.3252C54.3668 30.1294 54.2161 29.9787 54.0204 29.9787H48.8789C48.8771 29.9724 48.8754 29.9661 48.8736 29.9599C48.8595 29.9108 48.8399 29.8534 48.8171 29.7939C48.7719 29.6758 48.7115 29.5421 48.6515 29.442L48.355 28.9479C48.2735 28.8122 48.1379 28.7814 48.0139 28.7934L46.9927 28.8922C46.8702 28.9041 46.7854 28.9876 46.7429 29.0782C46.7008 29.1681 46.6918 29.2804 46.7316 29.38L46.9293 29.8741C46.9485 29.9222 46.9469 29.9693 46.9333 29.9973C46.9245 30.0155 46.9023 30.0446 46.8225 30.0446H41.7004C41.5046 30.0446 41.3539 30.1953 41.3539 30.3911V33.3558C41.3539 33.5515 41.5046 33.7022 41.7004 33.7022H42.6556Z" fill="white"/>
    <path fill-rule="evenodd" clip-rule="evenodd" d="M76.5515 41.2784L76.8475 42.2321L76.8517 42.2405C76.8742 42.2856 76.9078 42.3307 76.9489 42.366C76.9867 42.3983 77.041 42.4308 77.1065 42.4342C77.3089 42.467 77.5414 42.4669 77.7921 42.4669H77.7995C78.3906 42.4669 78.8891 42.4096 79.2882 42.2961C79.6867 42.1829 79.9946 42.0113 80.1933 41.7766C80.3887 41.5455 80.5324 41.2087 80.6279 40.7771C80.7236 40.3442 80.7726 39.8076 80.7726 39.1692C80.7726 38.6117 80.7464 38.0564 80.637 37.5602C80.6295 37.5265 80.6483 37.4874 80.684 37.4716C80.7675 37.4346 80.8595 37.3898 80.9447 37.3484L80.9456 37.348C80.9686 37.3368 80.9912 37.3258 81.0129 37.3154C81.0376 37.3034 81.0711 37.3132 81.0851 37.3454C81.4925 38.2831 82.0641 39.1853 82.6408 39.9838C83.0689 40.5765 83.6265 41.1665 84.3111 41.786C84.4256 41.8975 84.6399 41.8938 84.7468 41.7335L85.3908 40.7676C85.4473 40.7049 85.4596 40.6274 85.4459 40.5589C85.4323 40.4909 85.3939 40.4306 85.3492 40.386L85.3454 40.3822L85.3413 40.3788C84.0752 39.3289 83.097 38.0474 82.4637 36.6281C82.442 36.5795 82.4583 36.5201 82.5057 36.4878C83.0805 36.0958 83.6204 35.6802 84.1714 35.2332C84.2482 35.1709 84.2763 35.0841 84.2715 35.0039C84.2668 34.9271 84.2324 34.8535 84.1804 34.8015L84.1786 34.7998L83.3638 34.0513C83.2761 33.9707 83.1426 33.9702 83.0538 34.0474C82.2048 34.7855 81.2515 35.3781 80.2409 35.8849C80.1845 35.9132 80.1133 35.8894 80.0846 35.8285C79.8256 35.2791 79.5592 34.797 79.225 34.3291L79.2195 34.3213L79.2127 34.3145C79.207 34.3088 79.2 34.2948 79.2016 34.2762C79.2029 34.2602 79.2102 34.2451 79.2264 34.2338L79.7432 33.9108C79.9086 33.8116 80.1075 33.679 80.2746 33.5453L80.2796 33.5413L80.2825 33.5385C80.2864 33.5383 80.2909 33.5382 80.2996 33.5382H82.962C83.0584 33.5382 83.1392 33.501 83.1947 33.4385C83.2484 33.3781 83.2727 33.301 83.2727 33.2276V32.3184C83.2727 32.2221 83.2354 32.1413 83.1729 32.0857C83.1126 32.0321 83.0354 32.0077 82.962 32.0077H74.3254C74.229 32.0077 74.1482 32.045 74.0927 32.1075C74.0391 32.1679 74.0147 32.245 74.0147 32.3184V33.2276C74.0147 33.3239 74.052 33.4047 74.1145 33.4603C74.1748 33.5139 74.252 33.5382 74.3254 33.5382H77.0852C77.1196 33.5382 77.1425 33.5593 77.1491 33.5919C77.1524 33.6082 77.1503 33.6242 77.144 33.6373C77.1382 33.6493 77.1269 33.6631 77.1031 33.6736C75.9471 34.1874 74.432 34.5751 72.5846 34.8992L72.5805 34.8999L72.5765 34.9009C72.4807 34.9248 72.4033 34.9863 72.363 35.067C72.3229 35.1471 72.3205 35.2459 72.3744 35.3313L72.8261 36.2024C72.8544 36.2584 72.9048 36.3065 72.9582 36.3362C73.0063 36.363 73.0841 36.3888 73.1619 36.3571C73.2542 36.334 73.3407 36.3113 73.4209 36.2903C73.5683 36.2518 73.6945 36.2187 73.7962 36.1984L73.7986 36.1979L73.801 36.1973C75.3942 35.8072 76.6326 35.384 77.548 34.9921C77.5742 34.984 77.5878 34.9864 77.5965 34.9893C77.6078 34.9931 77.6236 35.0022 77.6472 35.0249L77.7357 35.143L77.8231 35.2886C77.8331 35.3222 77.8345 35.346 77.8316 35.3619C77.8294 35.3744 77.8238 35.388 77.8009 35.4034C76.55 36.2051 74.6811 36.9155 72.1524 37.5963L72.1491 37.5972L72.1459 37.5983C72.0618 37.6263 71.9976 37.6932 71.966 37.7691C71.9339 37.8461 71.9311 37.9434 71.9866 38.029L72.5446 38.9809L72.5551 38.9914C72.5934 39.0297 72.641 39.0681 72.7019 39.0884C72.7644 39.1093 72.8295 39.1073 72.8965 39.0858C72.9665 39.068 73.0352 39.0422 73.0969 39.0191L73.0998 39.018C73.166 38.9932 73.2247 38.9713 73.2821 38.957L73.2868 38.9558L73.2915 38.9542C75.5832 38.1693 77.3385 37.4119 78.55 36.6217L78.5661 36.6684C78.6199 36.8243 78.6723 36.9761 78.7144 37.1326C78.7253 37.173 78.7092 37.218 78.6706 37.2444C76.8815 38.4661 74.5769 39.5352 71.921 40.3573L71.9198 40.3576L71.9186 40.358C71.8345 40.386 71.7703 40.4529 71.7387 40.5289C71.7065 40.6062 71.7038 40.704 71.76 40.7899L72.3831 41.8064L72.3928 41.8161C72.4381 41.8615 72.4952 41.8962 72.5551 41.9142C72.6115 41.9311 72.6813 41.936 72.7463 41.9064C75.2173 41.0281 77.2707 40.0508 78.9037 38.9404L78.9059 38.9389L78.9081 38.9372C78.9358 38.9164 78.9616 38.9179 78.9815 38.9279C79.0048 38.9395 79.0149 38.9594 79.0149 38.9744V39.1367C79.0149 39.716 78.9501 40.1856 78.8283 40.4899C78.7712 40.6327 78.6884 40.7336 78.5823 40.7999C78.4752 40.8668 78.3356 40.904 78.1567 40.904H76.8255C76.6557 40.904 76.4993 41.0694 76.5507 41.2753L76.5515 41.2784Z" fill="white"/>
    <path fill-rule="evenodd" clip-rule="evenodd" d="M73.2384 33.7022C73.4341 33.7022 73.5848 33.5515 73.5848 33.3558V31.6105C73.5848 31.5469 73.6364 31.4952 73.7007 31.4952H83.4891C83.5531 31.4952 83.605 31.5471 83.605 31.6111V33.2899C83.605 33.4856 83.7557 33.6364 83.9514 33.6364H84.9067C85.1025 33.6364 85.2532 33.4856 85.2532 33.2899V30.3252C85.2532 30.1294 85.1025 29.9787 84.9067 29.9787H79.3457C79.344 29.9724 79.3422 29.9661 79.3405 29.9599C79.3263 29.9108 79.3067 29.8534 79.284 29.7939C79.2388 29.6758 79.1784 29.5421 79.1183 29.442L78.8219 28.9479C78.7404 28.8122 78.6047 28.7814 78.4808 28.7934L77.4596 28.8922C77.337 28.9041 77.2522 28.9876 77.2098 29.0782C77.1676 29.1681 77.1586 29.2804 77.1985 29.38L77.3961 29.8741C77.4154 29.9222 77.4138 29.9693 77.4001 29.9973C77.3913 30.0155 77.3691 30.0446 77.2894 30.0446H72.2831C72.0873 30.0446 71.9366 30.1953 71.9366 30.3911V33.3558C71.9366 33.5515 72.0873 33.7022 72.2831 33.7022H73.2384Z" fill="white"/>
    <path fill-rule="evenodd" clip-rule="evenodd" d="M105.496 36.0737L105.496 36.0681V36.0626C105.496 35.9703 105.568 35.8707 105.734 35.8106H109.694C109.768 35.8106 109.82 35.8348 109.854 35.8686C109.888 35.9025 109.912 35.9551 109.912 36.0291V36.9654C109.912 37.0393 109.888 37.092 109.854 37.1258C109.82 37.1597 109.768 37.1839 109.694 37.1839H106.484C106.357 37.1839 106.243 37.2266 106.159 37.3098C106.076 37.3929 106.034 37.5075 106.034 37.6341V42.0145C106.034 42.1411 106.076 42.2556 106.159 42.3388C106.243 42.422 106.357 42.4647 106.484 42.4647H115.311C115.438 42.4647 115.553 42.422 115.636 42.3388C115.719 42.2556 115.762 42.1411 115.762 42.0145V37.6341C115.762 37.5075 115.719 37.3929 115.636 37.3098C115.553 37.2266 115.438 37.1839 115.311 37.1839H111.7C111.626 37.1839 111.573 37.1597 111.54 37.1258C111.506 37.092 111.482 37.0393 111.482 36.9654V36.0291C111.482 35.9551 111.506 35.9025 111.54 35.8686C111.573 35.8348 111.626 35.8106 111.7 35.8106H116.248C116.374 35.8106 116.489 35.7679 116.572 35.6847C116.655 35.6015 116.698 35.487 116.698 35.3604V34.725C116.698 34.5984 116.655 34.4839 116.572 34.4007C116.489 34.3175 116.374 34.2748 116.248 34.2748H111.7C111.626 34.2748 111.573 34.2506 111.54 34.2168C111.506 34.1829 111.482 34.1303 111.482 34.0563V33.2538C111.482 33.1798 111.506 33.1272 111.54 33.0933C111.573 33.0594 111.626 33.0353 111.7 33.0353H115.713C115.839 33.0353 115.954 32.9926 116.037 32.9094C116.12 32.8262 116.163 32.7117 116.163 32.585V29.2413C116.163 29.1146 116.12 29.0001 116.037 28.9169C115.954 28.8337 115.839 28.791 115.713 28.791H104.411C104.284 28.791 104.169 28.8337 104.086 28.9169C104.003 29.0001 103.96 29.1146 103.96 29.2413V32.6853C103.96 34.2874 103.894 35.7196 103.727 36.9833C103.562 38.1748 103.198 39.4336 102.568 40.7265L102.562 40.7374L102.559 40.7492C102.523 40.8955 102.513 41.0818 102.656 41.2259L103.291 41.8947L103.292 41.8958C103.51 42.1135 103.912 42.078 104.049 41.7592C104.789 40.043 105.294 38.1588 105.496 36.0737ZM114.375 31.5329H105.782C105.708 31.5329 105.655 31.5087 105.621 31.4749C105.587 31.441 105.563 31.3884 105.563 31.3144V30.5453C105.563 30.4714 105.587 30.4187 105.621 30.3849C105.655 30.351 105.708 30.3268 105.782 30.3268H114.375C114.449 30.3268 114.502 30.351 114.536 30.3849C114.569 30.4187 114.594 30.4714 114.594 30.5453V31.3144C114.594 31.3884 114.569 31.441 114.536 31.4749C114.502 31.5087 114.449 31.5329 114.375 31.5329ZM105.563 34.0897V33.2872C105.563 33.1764 105.652 33.0687 105.782 33.0687H109.694C109.768 33.0687 109.82 33.0929 109.854 33.1267C109.888 33.1606 109.912 33.2132 109.912 33.2872V34.0897C109.912 34.1637 109.888 34.2164 109.854 34.2502C109.82 34.2841 109.768 34.3082 109.694 34.3082H105.782C105.708 34.3082 105.655 34.2841 105.621 34.2502C105.587 34.2164 105.563 34.1637 105.563 34.0897ZM107.821 38.7866H113.974C114.048 38.7866 114.1 38.8107 114.134 38.8446C114.168 38.8784 114.192 38.9311 114.192 39.0051V40.7438C114.192 40.8178 114.168 40.8704 114.134 40.9043C114.1 40.9382 114.048 40.9623 113.974 40.9623H107.821C107.747 40.9623 107.695 40.9382 107.661 40.9043C107.627 40.8704 107.603 40.8178 107.603 40.7438V39.0051C107.603 38.9311 107.627 38.8784 107.661 38.8446C107.695 38.8107 107.747 38.7866 107.821 38.7866Z" fill="white"/>
    <path fill-rule="evenodd" clip-rule="evenodd" d="M34.5188 17.9946C36.8308 17.9946 38.9323 17.208 40.4562 15.6835C41.9806 14.1584 42.9155 11.9063 42.9155 8.99732C42.9155 6.08829 41.9806 3.83627 40.4562 2.31117C38.9323 0.786666 36.8308 0 34.5188 0C32.2067 0 30.1052 0.786666 28.5814 2.31117C27.057 3.83627 26.1221 6.08829 26.1221 8.99732C26.1221 11.9063 27.057 14.1584 28.5814 15.6835C30.1052 17.208 32.2067 17.9946 34.5188 17.9946ZM39.6356 8.99732C39.6356 10.9704 39.0558 12.4737 38.1327 13.4822C37.2101 14.4901 35.9345 15.0151 34.5188 15.0151C33.103 15.0151 31.8274 14.4901 30.9048 13.4822C29.9818 12.4737 29.4019 10.9704 29.4019 8.99732C29.4019 7.02419 29.9818 5.52092 30.9048 4.51247C31.8274 3.50454 33.103 2.97955 34.5188 2.97955C35.9345 2.97955 37.2101 3.50454 38.1327 4.51247C39.0558 5.52092 39.6356 7.02419 39.6356 8.99732Z" fill="white"/>
    <path fill-rule="evenodd" clip-rule="evenodd" d="M3.13312 0H0.288719C0.128606 0 -0.00431799 0.129766 0.000107404 0.294502C0.0242966 1.19495 0.146065 5.88277 0.146065 8.99731C0.146065 12.1119 0.0242966 16.7997 0.000107421 17.7001C-0.00431797 17.8649 0.128606 17.9946 0.288719 17.9946H3.13312C3.29233 17.9946 3.4262 17.8665 3.42175 17.7008C3.40091 16.9252 3.30723 13.3231 3.28203 10.3481C3.28198 10.3424 3.28644 10.3369 3.29371 10.3369H11.0891C11.0964 10.3369 11.1009 10.3424 11.1008 10.3481C11.0756 13.3231 10.9819 16.9252 10.9611 17.7008C10.9566 17.8665 11.0905 17.9946 11.2497 17.9946H14.0941C14.2542 17.9946 14.3872 17.8649 14.3827 17.7001C14.3585 16.7997 14.2368 12.1119 14.2368 8.99731C14.2368 5.88277 14.3585 1.19495 14.3827 0.294503C14.3872 0.129767 14.2542 0 14.0941 0H11.2497C11.09 0 10.9567 0.129103 10.9611 0.294204C10.9813 1.04471 11.0694 4.43423 11.0981 7.3461C11.0981 7.35197 11.0935 7.35739 11.0864 7.35739H3.29646C3.28936 7.35739 3.28472 7.35197 3.28478 7.3461C3.31341 4.43423 3.40157 1.04471 3.42174 0.294204C3.42617 0.129103 3.29286 0 3.13312 0Z" fill="white"/>
    <path d="M86.6328 0.588872V17.4058C86.6328 17.731 86.8965 17.9946 87.2217 17.9946H99.8343C99.9937 17.9946 100.123 17.8654 100.123 17.7061V15.2286C100.123 15.0692 99.9937 14.94 99.8343 14.94H90.1496C90.1431 14.94 90.1379 14.9347 90.1379 14.9283V10.4988C90.1379 10.4923 90.1431 10.4871 90.1496 10.4871H98.6331C98.7925 10.4871 98.9217 10.3579 98.9217 10.1985V7.34566C98.9217 7.18628 98.7925 7.05709 98.6331 7.05709H90.0745C90.0681 7.05709 90.0628 7.05183 90.0628 7.04535V3.14144C90.0628 3.13496 90.0681 3.1297 90.0745 3.1297H99.6842C99.8436 3.1297 99.9728 3.00051 99.9728 2.84113V0.288571C99.9728 0.129198 99.8436 0 99.6842 0H87.2217C86.8965 0 86.6328 0.263647 86.6328 0.588872Z" fill="white"/>
    <path d="M113.51 0.588872V17.4058C113.51 17.731 113.773 17.9946 114.099 17.9946H126.711C126.871 17.9946 127 17.8654 127 17.7061V15.2286C127 15.0692 126.871 14.94 126.711 14.94H117.027C117.02 14.94 117.015 14.9347 117.015 14.9283V10.4988C117.015 10.4923 117.02 10.4871 117.027 10.4871H125.961C126.12 10.4871 126.249 10.3579 126.249 10.1985V7.34566C126.249 7.18628 126.12 7.05709 125.961 7.05709H116.952C116.945 7.05709 116.94 7.05183 116.94 7.04535V3.14144C116.94 3.13496 116.945 3.1297 116.952 3.1297H126.561C126.721 3.1297 126.85 3.00051 126.85 2.84113V0.288571C126.85 0.129198 126.721 0 126.561 0H114.099C113.773 0 113.51 0.263647 113.51 0.588872Z" fill="white"/>
    <path d="M54.9394 17.9946H57.4911C57.6512 17.9946 57.7806 17.8644 57.7797 17.7043L57.7076 5.81064L63.7421 11.9871C63.8553 12.103 64.0417 12.103 64.1549 11.9871L70.1894 5.81064L70.1173 17.7043C70.1164 17.8644 70.2458 17.9946 70.4059 17.9946H72.9575C73.1169 17.9946 73.2461 17.8654 73.2461 17.7061V0.288571C73.2461 0.129198 73.1169 0 72.9575 0H71.119C70.9123 0 70.7151 0.0865548 70.5751 0.238663L63.9571 7.43213C63.9525 7.43718 63.9445 7.43718 63.9399 7.43213L57.3219 0.238663C57.1819 0.0865547 56.9847 0 56.778 0H54.9394C54.7801 0 54.6509 0.129198 54.6509 0.288571V17.7061C54.6509 17.8654 54.7801 17.9946 54.9394 17.9946Z" fill="white"/>
</svg>
