<svg width="32" height="32" viewBox="0 0 32 32" fill="none" xmlns="http://www.w3.org/2000/svg">
    <path fill-rule="evenodd" clip-rule="evenodd"
          d="M11.6245 15.9998C11.6245 15.1211 10.9085 14.4051 10.0271 14.4051C9.14714 14.4051 8.42981 15.1211 8.42981 15.9998C8.42981 16.8798 9.14714 17.5958 10.0271 17.5958C10.9085 17.5958 11.6245 16.8798 11.6245 15.9998ZM17.5973 15.9998C17.5973 15.1211 16.88 14.4051 16 14.4051C15.1186 14.4051 14.4026 15.1211 14.4026 15.9998C14.4026 16.8798 15.1186 17.5958 16 17.5958C16.88 17.5958 17.5973 16.8798 17.5973 15.9998ZM21.9718 14.4051C22.8531 14.4051 23.5691 15.1211 23.5691 15.9998C23.5691 16.8798 22.8531 17.5958 21.9718 17.5958C21.0918 17.5958 20.3745 16.8798 20.3745 15.9998C20.3745 15.1211 21.0918 14.4051 21.9718 14.4051Z"
          fill="#1E1E1E"/>
</svg>
