<svg width="32" height="32" viewBox="0 0 32 32" fill="none" xmlns="http://www.w3.org/2000/svg">
    <path fill-rule="evenodd" clip-rule="evenodd" d="M15.9998 7.66667C11.3975 7.66667 7.6665 11.3976 7.6665 16C7.6665 18.4922 8.76055 20.7289 10.4946 22.2561C10.9926 22.6946 11.3332 23.3026 11.3332 23.9662V25.7333C11.3332 27.7216 12.9449 29.3333 14.9332 29.3333H17.0665C19.0547 29.3333 20.6665 27.7216 20.6665 25.7333V23.9662C20.6665 23.3026 21.0071 22.6946 21.5051 22.2561C23.2391 20.7289 24.3332 18.4922 24.3332 16C24.3332 11.3976 20.6022 7.66667 15.9998 7.66667ZM15.9998 9.70667C12.5241 9.70667 9.7065 12.5243 9.7065 16C9.7065 17.8818 10.5299 19.5688 11.8428 20.7251C12.5695 21.3651 13.1981 22.3128 13.3422 23.4666H18.6575C18.8016 22.3128 19.4302 21.3651 20.1568 20.7251C21.4698 19.5688 22.2932 17.8818 22.2932 16C22.2932 12.5243 19.4755 9.70667 15.9998 9.70667ZM13.3732 25.7333C13.3732 26.5949 14.0716 27.2933 14.9332 27.2933H17.0665C17.9281 27.2933 18.6265 26.5949 18.6265 25.7333V25.5066H13.3732V25.7333Z" fill="#292929"/>
    <path fill-rule="evenodd" clip-rule="evenodd" d="M25.6465 16C25.6465 15.4366 26.1032 14.98 26.6665 14.98H28.3125C28.8759 14.98 29.3325 15.4366 29.3325 16C29.3325 16.5633 28.8759 17.02 28.3125 17.02H26.6665C26.1032 17.02 25.6465 16.5633 25.6465 16Z" fill="#292929"/>
    <path fill-rule="evenodd" clip-rule="evenodd" d="M2.6665 16C2.6665 15.4366 3.12317 14.98 3.6865 14.98H5.33317C5.8965 14.98 6.35317 15.4366 6.35317 16C6.35317 16.5633 5.8965 17.02 5.33317 17.02H3.6865C3.12317 17.02 2.6665 16.5633 2.6665 16Z" fill="#292929"/>
    <path fill-rule="evenodd" clip-rule="evenodd" d="M15.9994 2.66699C16.5627 2.66699 17.0194 3.12366 17.0194 3.68699V5.33366C17.0194 5.89699 16.5627 6.35366 15.9994 6.35366C15.436 6.35366 14.9794 5.89699 14.9794 5.33366V3.68699C14.9794 3.12366 15.436 2.66699 15.9994 2.66699Z" fill="#292929"/>
    <path fill-rule="evenodd" clip-rule="evenodd" d="M25.427 6.57221C25.8254 6.97054 25.8254 7.61637 25.427 8.01471L24.2627 9.17908C23.8643 9.57741 23.2185 9.57741 22.8202 9.17908C22.4218 8.78074 22.4218 8.13491 22.8202 7.73658L23.9845 6.57221C24.3829 6.17387 25.0287 6.17387 25.427 6.57221Z" fill="#292929"/>
    <path fill-rule="evenodd" clip-rule="evenodd" d="M6.57156 6.57216C6.96989 6.17383 7.61572 6.17383 8.01405 6.57216L9.17842 7.73653C9.57676 8.13486 9.57676 8.78069 9.17842 9.17903C8.78009 9.57736 8.13426 9.57736 7.73593 9.17903L6.57156 8.01466C6.17322 7.61632 6.17322 6.97049 6.57156 6.57216Z" fill="#292929"/>
</svg>
