<svg width="32" height="32" viewBox="0 0 32 32" fill="none" xmlns="http://www.w3.org/2000/svg">
    <path d="M15.9995 22.3533C15.4362 22.3533 14.9795 21.8966 14.9795 21.3333V19.3733C14.9795 18.81 15.4362 18.3533 15.9995 18.3533C16.5629 18.3533 17.0195 18.81 17.0195 19.3733V21.3333C17.0195 21.8966 16.5629 22.3533 15.9995 22.3533Z" fill="#292929"/>
    <path d="M21.9997 16C21.9997 15.4366 21.5431 14.98 20.9797 14.98H12.6664C11.1936 14.98 9.99972 16.1739 9.99972 17.6466V21.3334C9.99972 21.8967 10.4564 22.3534 11.0197 22.3534C11.5831 22.3534 12.0397 21.8967 12.0397 21.3334V17.6866C12.0397 17.3185 12.3382 17.02 12.7064 17.02L20.9797 17.02C21.543 17.02 21.9997 16.5633 21.9997 16Z" fill="#292929"/>
    <path d="M20.9797 22.3534C20.4164 22.3534 19.9597 21.8967 19.9597 21.3334V19.3734C19.9597 18.81 20.4164 18.3534 20.9797 18.3534C21.543 18.3534 21.9997 18.81 21.9997 19.3734L21.9997 21.3334C21.9997 21.8967 21.543 22.3534 20.9797 22.3534Z" fill="#292929"/>
    <path d="M25.7829 12.5027L17.9362 6.71943C17.2265 6.19631 16.6728 6.04004 15.9997 6.04C15.3264 6.03996 14.7726 6.19622 14.0629 6.71939L5.39573 13.1078C5.07022 13.3477 4.93312 13.5416 4.85872 13.6983C4.77932 13.8656 4.7065 14.1289 4.7065 14.5961V25.3332C4.7065 25.6793 4.98707 25.9599 5.33317 25.9599H26.6665C27.0126 25.9599 27.2932 25.6793 27.2932 25.3332V15.6867C27.2932 15.1233 27.7498 14.6667 28.3132 14.6667C28.8765 14.6667 29.3332 15.1233 29.3332 15.6867V25.3332C29.3332 26.806 28.1393 27.9999 26.6665 27.9999H5.33317C3.86041 27.9999 2.6665 26.806 2.6665 25.3332V14.5961C2.6665 13.2373 3.09156 12.2719 4.18535 11.4657L12.8525 5.07726C13.8982 4.30646 14.873 3.99993 15.9998 4C17.1265 4.00007 18.101 4.30664 19.1466 5.07726L26.9933 10.8605C27.4467 11.1947 27.5434 11.8333 27.2092 12.2868C26.8749 12.7402 26.2364 12.8369 25.7829 12.5027Z" fill="#292929"/>
</svg>
