<svg width="28" height="28" viewBox="0 0 28 28" fill="none" xmlns="http://www.w3.org/2000/svg">
    <path fill-rule="evenodd" clip-rule="evenodd"
          d="M23.1297 13.1941C23.6033 13.907 23.875 14.7331 23.9163 15.5859L23.8853 15.8015C23.921 16.9685 23.5315 18.1092 22.7881 19.0146C21.8388 20.0389 20.5411 20.6787 19.1447 20.811C15.705 21.1886 12.2337 21.1886 8.79399 20.811C7.41798 20.6697 6.14284 20.0301 5.21266 19.0146C4.45706 18.1222 4.05588 16.987 4.08443 15.822V15.6783C4.14134 14.8 4.43441 13.9528 4.93319 13.2249L5.016 13.1222C5.53471 12.5385 5.89141 11.8309 6.05106 11.0691V10.1863V8.95446C6.19784 8.5836 6.57687 8.3562 6.97621 8.3994C7.37555 8.44261 7.69623 8.74572 7.75893 9.13924V10.1658V11.2539C7.76295 11.2914 7.76295 11.3293 7.75893 11.3668C7.54341 12.4259 7.05079 13.4101 6.33053 14.2206C6.05315 14.6588 5.89615 15.1613 5.8751 15.6783V15.9042C5.85212 16.6313 6.09472 17.3421 6.55825 17.9059C7.20089 18.5642 8.06025 18.9722 8.98031 19.0556C12.3103 19.4149 15.6698 19.4149 18.9998 19.0556C19.945 18.9696 20.8253 18.5422 21.4736 17.8546C21.9143 17.3041 22.1452 16.6171 22.1257 15.9144V15.6783C22.1044 15.1596 21.9513 14.6547 21.6806 14.2104C20.9304 13.409 20.4088 12.424 20.1694 11.3566C20.1654 11.319 20.1654 11.2812 20.1694 11.2437V10.1452V9.1187C19.8692 6.01854 16.7537 4.09891 14.0418 4.09891C12.8888 4.09628 11.7549 4.38982 10.7503 4.95094C10.4721 5.11678 10.125 5.11932 9.84437 4.95759C9.56376 4.79585 9.39415 4.49547 9.40174 4.17367C9.40932 3.85188 9.59289 3.55968 9.88082 3.41112C11.1256 2.71367 12.5293 2.34268 13.959 2.33325C17.5403 2.33325 21.5564 4.85855 22.0118 8.9134V10.1247V11.0281C22.1673 11.7913 22.5245 12.4999 23.0469 13.0812C23.0778 13.1163 23.1055 13.1541 23.1297 13.1941ZM14.2927 23.8359C14.901 23.7453 15.4476 23.4177 15.8113 22.9258H15.8217C16.1361 22.5487 16.6991 22.4959 17.0793 22.8077C17.4594 23.1195 17.5127 23.6779 17.1983 24.055C16.4232 25.0602 15.2241 25.6548 13.9482 25.6666C12.676 25.6516 11.4813 25.0573 10.7084 24.055C10.394 23.6779 10.4473 23.1195 10.8275 22.8077C11.2076 22.4959 11.7707 22.5487 12.0851 22.9258C12.2232 23.1088 12.387 23.2713 12.5716 23.4082C13.0649 23.7725 13.6845 23.9264 14.2927 23.8359Z"
          fill="#292929"/>
</svg>
