<svg width="24" height="24" viewBox="0 0 24 24" fill="none" xmlns="http://www.w3.org/2000/svg">
    <path fill-rule="evenodd" clip-rule="evenodd"
          d="M22.7736 11.4869C23.2618 11.4925 23.6664 11.1226 23.6663 10.625V7.62877C23.6663 3.12422 20.8549 0.333252 16.3811 0.333252H7.62852C3.12398 0.333252 0.333008 3.12422 0.333008 7.62877V16.3813C0.333008 20.8756 3.12398 23.6666 7.62852 23.6666H16.3811C20.8754 23.6666 23.6663 20.8756 23.6663 16.3813C23.6663 15.8883 23.2667 15.4886 22.7736 15.4886C22.2806 15.4886 21.8809 15.8883 21.8809 16.3813C21.8809 19.9214 19.9314 21.8812 16.3811 21.8812H7.62852C4.07824 21.8812 2.11841 19.9214 2.11841 16.3813V7.62877C2.11841 4.07849 4.07824 2.11865 7.62852 2.11865H16.3811C19.9314 2.11865 21.8809 4.06823 21.8809 7.62877V10.5942C21.8809 11.0872 22.2806 11.4869 22.7736 11.4869ZM11.9995 7.04167C12.4828 7.04167 12.8745 7.43342 12.8745 7.91667V11.125H16.0828C16.5661 11.125 16.9578 11.5168 16.9578 12C16.9578 12.4832 16.5661 12.875 16.0828 12.875H12.8745V16.0833C12.8745 16.5666 12.4828 16.9583 11.9995 16.9583C11.5163 16.9583 11.1245 16.5666 11.1245 16.0833V12.875H7.91618C7.43293 12.875 7.04118 12.4832 7.04118 12C7.04118 11.5168 7.43293 11.125 7.91618 11.125H11.1245V7.91667C11.1245 7.43342 11.5163 7.04167 11.9995 7.04167Z"
          fill="#292929"/>
</svg>
