<svg width="28" height="28" viewBox="0 0 28 28" fill="none" xmlns="http://www.w3.org/2000/svg">
<path fill-rule="evenodd" clip-rule="evenodd" d="M2.33301 13.9997C2.33301 7.56551 7.56667 2.33301 13.9997 2.33301C20.4327 2.33301 25.6663 7.56551 25.6663 13.9997C25.6663 20.4327 20.4327 25.6663 13.9997 25.6663C10.3515 25.6663 6.97984 24.0062 4.75151 21.114C4.46567 20.7418 4.53451 20.2087 4.90667 19.924C5.27651 19.637 5.80851 19.7082 6.09551 20.078C8.00067 22.5513 10.8812 23.97 13.9997 23.97C19.497 23.97 23.97 19.4982 23.97 13.9997C23.97 8.50234 19.497 4.02934 13.9997 4.02934C8.50234 4.02934 4.02934 8.50234 4.02934 13.9997C4.02934 14.5107 4.06784 15.0182 4.14367 15.5152C4.21367 15.9772 3.89634 16.41 3.43317 16.4812C2.96767 16.5582 2.53717 16.235 2.46717 15.7718C2.37851 15.1908 2.33301 14.5947 2.33301 13.9997ZM11.9581 10.7917C11.9581 9.66409 12.8722 8.75 13.9998 8.75C15.1273 8.75 16.0414 9.66409 16.0414 10.7917C16.0414 11.3451 15.8224 11.8456 15.4644 12.2141C15.3691 12.3121 15.2631 12.418 15.1506 12.5303L15.1506 12.5303C14.7891 12.8912 14.3619 13.3176 14.0186 13.7587C13.5552 14.3541 13.1248 15.1162 13.1248 16.0417C13.1248 16.5249 13.5165 16.9167 13.9998 16.9167C14.483 16.9167 14.8748 16.5249 14.8748 16.0417C14.8748 15.6785 15.0414 15.2938 15.3997 14.8335C15.6696 14.4867 15.982 14.1746 16.3231 13.8338L16.3231 13.8338L16.3232 13.8337C16.4515 13.7055 16.5839 13.5732 16.7196 13.4335C17.3821 12.7515 17.7914 11.8185 17.7914 10.7917C17.7914 8.69759 16.0938 7 13.9998 7C11.9057 7 10.2081 8.69759 10.2081 10.7917C10.2081 11.2749 10.5998 11.6667 11.0831 11.6667C11.5663 11.6667 11.9581 11.2749 11.9581 10.7917ZM13.9999 18.4283H14.0116C14.4946 18.4283 14.8866 18.8203 14.8866 19.3033C14.8866 19.7863 14.4946 20.1783 14.0116 20.1783C13.5286 20.1783 13.1307 19.7863 13.1307 19.3033C13.1307 18.8203 13.5169 18.4283 13.9999 18.4283Z" fill="#292929"/>
</svg>
