<svg width="22" height="18" viewBox="0 0 22 18" fill="none" xmlns="http://www.w3.org/2000/svg">
    <path fill-rule="evenodd" clip-rule="evenodd" d="M3.3467 5.76204C3.3467 6.17389 3.0047 6.50926 2.5847 6.50926C2.1647 6.50926 1.8237 6.17389 1.8237 5.76204V3.90281C1.8237 1.75332 3.6067 0.00294182 5.7977 0.000980606L7.4267 0H7.4277C7.8477 0 8.1887 0.334387 8.1887 0.747222C8.1887 1.15908 7.8487 1.49346 7.4277 1.49346L5.7997 1.49444C4.4467 1.4964 3.3467 2.57605 3.3467 3.90281V5.76204ZM14.6008 1.49317H16.1938C17.5508 1.49317 18.6548 2.57576 18.6548 3.90644V5.76273C18.6548 6.1736 18.9958 6.50897 19.4158 6.50897C19.8358 6.50897 20.1768 6.1736 20.1768 5.76273V3.90644C20.1768 1.75205 18.3908 0.000686424 16.1938 0.000686424H14.6008C14.1808 0.000686424 13.8398 0.334092 13.8398 0.746927C13.8398 1.15878 14.1808 1.49317 14.6008 1.49317ZM21.239 9.04119H0.761C0.342 9.04119 0 9.37557 0 9.78841C0 10.2003 0.342 10.5346 0.761 10.5346H1.823V14.0962C1.823 16.2467 3.607 17.9971 5.799 17.999L7.427 18C7.848 18 8.188 17.6656 8.189 17.2528C8.189 16.8409 7.848 16.5065 7.428 16.5065L5.8 16.5056C4.447 16.5036 3.346 15.4239 3.346 14.0962V10.5346H18.655V14.0933C18.655 15.4249 17.551 16.5065 16.194 16.5065H14.601C14.181 16.5065 13.84 16.8409 13.84 17.2528C13.84 17.6656 14.181 18 14.601 18H16.194C18.39 18 20.177 16.2486 20.177 14.0933V10.5346H21.239C21.659 10.5346 22 10.2003 22 9.78841C22 9.37557 21.659 9.04119 21.239 9.04119ZM9.1418 6.50926H12.8588C13.2798 6.50926 13.6208 6.17389 13.6208 5.76204C13.6208 5.35019 13.2798 5.0158 12.8588 5.0158H9.1418C8.7218 5.0158 8.3808 5.35019 8.3808 5.76204C8.3808 6.17389 8.7218 6.50926 9.1418 6.50926ZM9.1421 12.774H12.8591C13.2791 12.774 13.6201 13.1083 13.6201 13.5202C13.6201 13.933 13.2791 14.2664 12.8591 14.2664H9.1421C8.7211 14.2664 8.3801 13.933 8.3801 13.5202C8.3801 13.1083 8.7211 12.774 9.1421 12.774Z" fill="#292929"/>
</svg>
