<svg width="16" height="16" viewBox="0 0 16 16" fill="none" xmlns="http://www.w3.org/2000/svg">
    <path d="M15.3167 14.4544L12.7386 11.9339L12.6782 11.842C12.5658 11.7301 12.4122 11.6671 12.2519 11.6671C12.0915 11.6671 11.9379 11.7301 11.8256 11.842C9.63461 13.852 6.25861 13.9613 3.9365 12.0973C1.6144 10.2333 1.06675 6.97454 2.65676 4.48214C4.24678 1.98974 7.48105 1.03715 10.2146 2.25611C12.9482 3.47508 14.3329 6.48735 13.4503 9.29521C13.3867 9.49805 13.4387 9.71864 13.5866 9.87388C13.7345 10.0291 13.9558 10.0954 14.1673 10.0478C14.3787 10.0002 14.5482 9.84594 14.6117 9.64309C15.6668 6.31099 14.0733 2.72518 10.8621 1.2053C7.65087 -0.314567 3.78563 0.68763 1.76679 3.56357C-0.252047 6.43952 0.181384 10.3261 2.7867 12.7091C5.39201 15.0922 9.38734 15.2564 12.1881 13.0957L14.4707 15.3274C14.7065 15.5569 15.0876 15.5569 15.3234 15.3274C15.5589 15.0947 15.5589 14.72 15.3234 14.4872L15.3167 14.4544Z" fill="white"/>
</svg>
