<svg width="24" height="24" viewBox="0 0 24 24" fill="none" xmlns="http://www.w3.org/2000/svg">
    <mask id="mask0_3949_31808" style="mask-type:alpha" maskUnits="userSpaceOnUse" x="2" y="1" width="20" height="22">
        <path fill-rule="evenodd" clip-rule="evenodd" d="M2.5 1.59998H21.7849V22.321H2.5V1.59998Z" fill="white"/>
    </mask>
    <g mask="url(#mask0_3949_31808)">
        <path fill-rule="evenodd" clip-rule="evenodd" d="M7.70232 17.04C7.93132 17.04 8.16032 17.069 8.38432 17.129C9.06032 17.311 9.64732 17.763 9.99532 18.37C10.2213 18.751 10.3463 19.196 10.3503 19.65C10.3503 20.3 10.8723 20.821 11.5143 20.821H12.7673C13.4063 20.821 13.9283 20.303 13.9313 19.664C13.9273 18.958 14.2033 18.287 14.7083 17.782C15.2063 17.284 15.9023 16.985 16.5983 17.005C17.0543 17.016 17.4933 17.139 17.8803 17.359C18.4373 17.678 19.1483 17.488 19.4703 16.938L20.1343 15.831C20.2823 15.576 20.3253 15.256 20.2463 14.961C20.1683 14.666 19.9723 14.41 19.7083 14.259C19.0903 13.903 18.6493 13.329 18.4663 12.641C18.2853 11.966 18.3843 11.229 18.7373 10.622C18.9673 10.222 19.3043 9.88498 19.7083 9.65298C20.2503 9.33598 20.4403 8.62698 20.1253 8.07498C20.1123 8.05298 20.1003 8.02998 20.0903 8.00598L19.5043 6.98998C19.1853 6.43498 18.4753 6.24398 17.9183 6.56098C17.3163 6.91698 16.6003 7.01898 15.9123 6.83798C15.2253 6.65998 14.6493 6.22498 14.2903 5.61098C14.0603 5.22698 13.9353 4.77998 13.9313 4.32498C13.9403 3.98298 13.8203 3.67598 13.6023 3.45098C13.3853 3.22698 13.0803 3.09998 12.7673 3.09998H11.5143C11.2043 3.09998 10.9143 3.22098 10.6953 3.43898C10.4773 3.65798 10.3583 3.94898 10.3603 4.25898C10.3393 5.72098 9.14432 6.89798 7.69732 6.89798C7.23332 6.89298 6.78632 6.76798 6.39832 6.53598C5.85332 6.22598 5.14132 6.41698 4.82232 6.97198L4.14532 8.08498C3.83532 8.62298 4.02532 9.33398 4.57732 9.65498C5.39632 10.129 5.90732 11.013 5.90732 11.961C5.90732 12.909 5.39632 13.792 4.57532 14.267C4.02632 14.585 3.83632 15.292 4.15432 15.842L4.78532 16.93C4.94132 17.211 5.19632 17.414 5.49132 17.497C5.78532 17.579 6.10932 17.544 6.37932 17.394C6.77632 17.161 7.23832 17.04 7.70232 17.04M12.7673 22.321H11.5143C10.0453 22.321 8.85032 21.127 8.85032 19.658C8.84832 19.477 8.79632 19.289 8.69932 19.126C8.54232 18.852 8.28832 18.656 7.99532 18.578C7.70432 18.5 7.38532 18.543 7.12332 18.695C6.49532 19.045 5.75632 19.13 5.08032 18.94C4.40532 18.749 3.82232 18.285 3.48032 17.67L2.85532 16.593C2.12432 15.325 2.55932 13.7 3.82532 12.968C4.18432 12.761 4.40732 12.375 4.40732 11.961C4.40732 11.547 4.18432 11.16 3.82532 10.953C2.55832 10.217 2.12432 8.58798 2.85432 7.31998L3.53232 6.20698C4.25332 4.95298 5.88332 4.51098 7.15432 5.24098C7.32732 5.34398 7.51532 5.39598 7.70632 5.39798C8.32932 5.39798 8.85032 4.88398 8.86032 4.25198C8.85632 3.55498 9.13132 2.88598 9.63232 2.38098C10.1353 1.87698 10.8033 1.59998 11.5143 1.59998H12.7673C13.4833 1.59998 14.1793 1.89398 14.6783 2.40498C15.1763 2.91898 15.4513 3.62398 15.4303 4.33898C15.4323 4.49998 15.4853 4.68598 15.5813 4.84898C15.7403 5.11898 15.9913 5.30898 16.2893 5.38698C16.5873 5.46098 16.8993 5.42098 17.1643 5.26398C18.4443 4.53298 20.0733 4.97098 20.8043 6.24098L21.4273 7.31998C21.4433 7.34898 21.4573 7.37698 21.4693 7.40598C22.1313 8.65698 21.6893 10.232 20.4593 10.951C20.2803 11.054 20.1353 11.198 20.0353 11.372C19.8803 11.641 19.8373 11.961 19.9153 12.255C19.9953 12.555 20.1863 12.804 20.4553 12.958C21.0623 13.307 21.5153 13.895 21.6963 14.574C21.8773 15.252 21.7783 15.988 21.4253 16.595L20.7613 17.701C20.0303 18.957 18.4013 19.392 17.1343 18.66C16.9653 18.563 16.7703 18.51 16.5763 18.505H16.5703C16.2813 18.505 15.9843 18.628 15.7683 18.843C15.5493 19.062 15.4293 19.354 15.4313 19.664C15.4243 21.133 14.2293 22.321 12.7673 22.321" fill="#292929"/>
    </g>
    <path fill-rule="evenodd" clip-rule="evenodd" d="M12.1453 10.0741C11.1053 10.0741 10.2593 10.9211 10.2593 11.9611C10.2593 13.0011 11.1053 13.8461 12.1453 13.8461C13.1853 13.8461 14.0313 13.0011 14.0313 11.9611C14.0313 10.9211 13.1853 10.0741 12.1453 10.0741M12.1453 15.3461C10.2783 15.3461 8.75928 13.8281 8.75928 11.9611C8.75928 10.0941 10.2783 8.5741 12.1453 8.5741C14.0123 8.5741 15.5313 10.0941 15.5313 11.9611C15.5313 13.8281 14.0123 15.3461 12.1453 15.3461" fill="#292929"/>
</svg>
