<svg width="28" height="28" viewBox="0 0 28 28" fill="none" xmlns="http://www.w3.org/2000/svg">
    <path d="M15.6299 8.33291C16.0134 8.25235 16.288 7.91411 16.288 7.52227V5.10121C16.288 4.73069 16.4905 4.48662 16.7305 4.38315C16.9655 4.2819 17.2357 4.31088 17.4558 4.54605L24.6636 12.2494C24.8966 12.4984 24.8966 12.9143 24.6636 13.1633L17.4558 20.8667C17.2357 21.1018 16.9655 21.1308 16.7305 21.0296C16.4905 20.9261 16.288 20.682 16.288 20.3115V18.0354C16.288 17.8074 16.194 17.5895 16.0282 17.433C15.8624 17.2765 15.6394 17.1953 15.4118 17.2085C11.9251 17.4102 7.77493 20.0674 4.83172 24.7034C4.77156 24.7981 4.68574 24.8383 4.60856 24.8383C4.493 24.8383 4.32833 24.7272 4.32833 24.5002C4.32833 21.3367 4.77495 17.7851 6.40103 14.7881C8.00556 11.8307 10.791 9.34948 15.6299 8.33291Z"
          stroke="#292929" stroke-width="1.65667" stroke-linejoin="round"/>
</svg>
