<svg width="28" height="28" viewBox="0 0 28 28" fill="none" xmlns="http://www.w3.org/2000/svg">
    <path fill-rule="evenodd" clip-rule="evenodd"
          d="M21.583 4.08337C20.2943 4.08337 19.2497 5.12804 19.2497 6.41671C19.2497 6.80663 19.3446 7.1718 19.5119 7.49285C19.9022 8.24179 20.684 8.75004 21.583 8.75004C22.8717 8.75004 23.9163 7.70537 23.9163 6.41671C23.9163 5.12804 22.8717 4.08337 21.583 4.08337ZM17.4997 6.41671C17.4997 4.16154 19.3278 2.33337 21.583 2.33337C23.8382 2.33337 25.6663 4.16154 25.6663 6.41671C25.6663 8.67187 23.8382 10.5 21.583 10.5C20.3225 10.5 19.1964 9.92877 18.4481 9.03311L11.4712 12.6611C11.5982 13.0858 11.6663 13.5354 11.6663 14C11.6663 14.4102 11.6132 14.8088 11.5133 15.1888L16.1236 17.3938C17.0733 16.0476 18.6413 15.1667 20.4163 15.1667C23.3158 15.1667 25.6663 17.5172 25.6663 20.4167C25.6663 23.3162 23.3158 25.6667 20.4163 25.6667C17.5168 25.6667 15.1663 23.3162 15.1663 20.4167C15.1663 19.9164 15.2365 19.4316 15.3678 18.9721L10.7576 16.7672C9.90853 17.9184 8.54208 18.6667 6.99967 18.6667C4.42235 18.6667 2.33301 16.5774 2.33301 14C2.33301 11.4227 4.42235 9.33337 6.99967 9.33337C8.48602 9.33337 9.80904 10.0284 10.663 11.1089L17.64 7.48087C17.5484 7.14112 17.4997 6.78423 17.4997 6.41671ZM6.99967 11.0834C5.38884 11.0834 4.08301 12.3892 4.08301 14C4.08301 15.6109 5.38884 16.9167 6.99967 16.9167C8.15843 16.9167 9.1611 16.241 9.63196 15.2583C9.81397 14.8784 9.91634 14.4524 9.91634 14C9.91634 13.513 9.79767 13.0563 9.58842 12.6547C9.1009 11.7191 8.12381 11.0834 6.99967 11.0834ZM20.4163 16.9167C19.0256 16.9167 17.8225 17.7278 17.2577 18.9067C17.0392 19.3628 16.9163 19.8742 16.9163 20.4167C16.9163 22.3497 18.4833 23.9167 20.4163 23.9167C22.3493 23.9167 23.9163 22.3497 23.9163 20.4167C23.9163 18.4837 22.3493 16.9167 20.4163 16.9167Z"
          fill="#292929"/>
</svg>
