<svg width="32" height="32" viewBox="0 0 32 32" fill="none" xmlns="http://www.w3.org/2000/svg">
    <path fill-rule="evenodd" clip-rule="evenodd" d="M16.8206 2.80062L25.6773 5.82321C26.668 6.16187 27.3334 7.07385 27.3334 8.09516V16.9496C27.3334 19.6335 26.3359 22.2321 24.5262 24.2601C23.6974 25.1894 22.6341 25.988 21.2757 26.7027L16.4885 29.216C16.339 29.2933 16.1743 29.3333 16.0083 29.3333C15.8437 29.3333 15.679 29.2933 15.5295 29.216L10.7327 26.7014C9.37159 25.9854 8.30686 25.1867 7.4795 24.2614C5.66699 22.2308 4.66675 19.6309 4.66675 16.9443C4.66675 16.4029 5.11953 15.963 5.67659 15.963C6.23366 15.963 6.68644 16.4029 6.68644 16.9443C6.68644 19.1602 7.50969 21.3015 9.00387 22.9761C9.66933 23.7214 10.5488 24.3748 11.6918 24.9747L16.0083 27.2373L20.3153 24.9761C21.4555 24.3774 22.3349 23.7241 23.0018 22.9761C24.4932 21.3028 25.3151 19.1642 25.3151 16.9496V8.09516C25.3151 7.90583 25.1916 7.73783 25.0091 7.67517L16.1524 4.65258C16.055 4.61924 15.9466 4.61924 15.8478 4.65258L6.99241 7.67517C6.80993 7.73783 6.68644 7.90583 6.68644 8.09516V10.6284C6.68644 11.1711 6.23366 11.6111 5.67659 11.6111C5.11953 11.6111 4.66675 11.1711 4.66675 10.6284V8.09516C4.66675 7.07385 5.33358 6.16187 6.32421 5.82321L15.1796 2.80062C15.7092 2.62196 16.2923 2.62196 16.8206 2.80062ZM15.0482 19.09C14.7793 19.09 14.5241 18.986 14.3347 18.802L11.7882 16.3274C11.3944 15.9435 11.3944 15.3248 11.7882 14.9408C12.1833 14.5568 12.8214 14.5568 13.2151 14.9408L15.0482 16.7208L19.5788 12.3195C19.9726 11.9369 20.612 11.9369 21.0058 12.3195C21.3996 12.7022 21.3996 13.3235 21.0058 13.7062L15.7617 18.802C15.5724 18.986 15.3158 19.09 15.0482 19.09Z" fill="#292929"/>
</svg>
