<svg width="306" height="89" viewBox="0 0 306 89" fill="none" xmlns="http://www.w3.org/2000/svg">
    <g filter="url(#filter0_d_3949_39718)">
        <path d="M12.9948 41.445L9.4708 42.3414V37.921H12.9639V34.4589H9.4708V28.6165H5.73045V34.4589H1.7428V37.921H5.73045V43.2379C4.15393 43.6397 2.63925 43.9798 1.40277 44.2271L2.42286 47.8747L5.73045 47.0401V53.1606C5.73045 53.6243 5.57589 53.7789 5.14312 53.7789C4.74126 53.7789 3.44296 53.7789 2.20648 53.7171C2.67016 54.7062 3.19566 56.2209 3.2884 57.1792C5.51406 57.1792 6.99784 57.0865 8.04885 56.4991C9.09985 55.9427 9.4708 55.0154 9.4708 53.1916V46.02C10.8 45.6799 12.1292 45.309 13.4584 44.9381L12.9948 41.445ZM30.1818 30.9349H13.4584V34.6134H21.2792V52.5733C21.2792 53.1606 21.0319 53.3461 20.4136 53.3461C19.7954 53.3461 17.477 53.377 15.5605 53.2534C16.1478 54.3044 16.8588 56.1282 17.0133 57.2719C19.8881 57.2719 21.9592 57.2101 23.3503 56.5301C24.7722 55.8809 25.2668 54.799 25.2668 52.6351V34.6134H30.1818V30.9349ZM48.049 51.0586H53.644V48.462H48.049V47.2565H53.5204V37.7046H48.049V36.4991H53.9841V38.9102H56.7971C56.5807 44.4435 55.8388 48.8639 53.4277 52.2024C51.6348 52.3569 49.811 52.5115 48.049 52.6351V51.0586ZM42.2993 44.969V43.5779H44.7105V44.969H42.2993ZM50.4601 43.5779V44.969H48.049V43.5779H50.4601ZM48.049 41.3832V40.023H50.4601V41.3832H48.049ZM42.2993 40.023H44.7105V41.3832H42.2993V40.023ZM60.3829 35.5408C60.4447 33.5006 60.4447 31.3368 60.4447 29.0802H56.9207C56.9207 31.3677 56.9207 33.5006 56.8898 35.5408H53.9841V33.8406H48.049V32.326C50.0583 32.1096 51.9748 31.8314 53.6131 31.4913L52.0057 28.7402C48.6054 29.4821 43.2576 30.0076 38.6826 30.2549C39.0227 30.9658 39.3627 32.1096 39.4863 32.8515C41.1556 32.8205 42.9176 32.7278 44.7105 32.6042V33.8406H38.6208V36.4991H44.7105V37.7046H39.3936V47.2565H44.7105V48.462H39.27V51.0586H44.7105V52.9133C42.3303 53.0679 40.1664 53.2225 38.4353 53.3461L38.8681 56.4373C42.2066 56.1591 46.6579 55.6954 51.1093 55.2317C51.913 55.9118 52.8094 56.9319 53.2731 57.6738C58.4663 53.5625 59.8883 47.1946 60.2901 38.9102H63.0722C62.8867 48.8948 62.5776 52.6661 61.9285 53.5007C61.6503 53.9025 61.3411 54.0262 60.8775 54.0262C60.2901 54.0262 59.1155 53.9953 57.7553 53.8716C58.3736 54.8917 58.7754 56.3755 58.8373 57.3956C60.321 57.4265 61.743 57.4574 62.6703 57.2719C63.6904 57.0556 64.4014 56.7464 65.1124 55.7263C66.1016 54.3044 66.3489 49.8221 66.6271 37.1791C66.6271 36.7464 66.658 35.5408 66.658 35.5408H60.3829ZM87.5545 28.6165C87.4309 33.8406 88.0182 47.6892 75.4679 54.3971C76.7044 55.2317 77.8791 56.4064 78.5282 57.3956C84.9579 53.6243 88.2037 48.0293 89.9038 42.5887C91.6967 47.9056 95.1279 53.9334 101.99 57.2101C102.485 56.1591 103.536 54.9226 104.68 54.0262C93.8915 49.2657 92.0058 37.6119 91.5731 33.4388C91.6967 31.5841 91.7585 29.9148 91.7895 28.6165H87.5545ZM121.805 31.5841C124.68 33.5315 128.482 36.4682 130.151 38.3538L132.871 35.479C131.017 33.5624 127.091 30.8422 124.309 29.0802L121.805 31.5841ZM134.355 39.6212C135.963 43.2379 137.57 48.122 138.034 51.275L141.774 49.7294C141.125 46.5455 139.518 41.9087 137.787 38.2301L134.355 39.6212ZM115.19 39.2193C114.788 43.3306 113.892 47.9674 112.81 51.2441L116.519 52.7279C117.57 49.2348 118.343 43.887 118.776 39.8994L115.19 39.2193ZM120.754 37.3955V51.7387C120.754 55.6336 121.867 56.8701 125.885 56.8701H131.048C134.819 56.8701 135.808 55.0463 136.241 49.173C135.221 48.9257 133.644 48.2765 132.779 47.6274C132.562 52.4497 132.284 53.4389 130.739 53.4389H126.318C124.834 53.4389 124.587 53.1916 124.587 51.7387V37.3955H120.754ZM181.946 35.9427C181.297 35.3244 180.122 34.428 179.01 33.6552C179.504 32.2332 179.875 30.7185 180.184 29.142L176.691 28.6165C175.918 33.0678 174.249 37.0555 171.498 39.4357C172.271 39.9921 173.569 41.2595 174.095 41.9396C175.578 40.5485 176.815 38.7247 177.835 36.6227C178.793 37.3955 179.751 38.1992 180.308 38.8175L181.946 35.9427ZM168.809 28.6165C167.51 30.6258 164.945 33.1915 162.75 34.7371C163.306 35.3862 164.203 36.6845 164.666 37.4264C167.232 35.5408 170.107 32.5423 172.054 29.8839L168.809 28.6165ZM169.365 35.2008C167.758 38.1992 165.037 41.1977 162.472 43.1452C163.059 43.918 164.048 45.7727 164.388 46.5764C165.192 45.8963 165.996 45.1544 166.799 44.2889V57.5192H170.231V40.1467C171.096 38.9102 171.9 37.6428 172.58 36.4063L169.365 35.2008ZM183.986 48.5548H189.952V45.4636H183.986V41.105H183.337C184.326 40.023 185.192 38.7866 185.903 37.3646C187.356 38.8175 188.778 40.4249 189.551 41.5686L191.993 39.1266C191.003 37.7665 188.963 35.7881 187.201 34.1807C187.727 32.6042 188.098 30.8731 188.376 29.0184L184.945 28.6165C184.326 33.4079 182.688 37.3955 179.69 39.7139C180.215 40.023 180.988 40.5795 181.668 41.105H180.555V52.326C179.288 51.3987 178.237 49.9767 177.495 47.782C177.742 46.4218 177.897 44.9999 178.02 43.4543L174.466 43.1761C174.187 48.3384 173.136 52.5733 170.231 55.0463C171.034 55.5409 172.487 56.7773 173.013 57.3956C174.466 56.0045 175.517 54.2735 176.289 52.2333C178.546 56.0355 181.792 57.0556 185.996 57.0556H190.756C190.88 56.1282 191.313 54.5208 191.776 53.748C190.602 53.7789 187.201 53.8098 186.336 53.7789C185.532 53.7789 184.728 53.748 183.986 53.6243V48.5548ZM204.79 34.3661H224.079V38.0138H227.851V31.0277H216.846C216.537 30.1312 216.011 29.1111 215.517 28.2765L211.622 29.3893C211.869 29.853 212.147 30.4403 212.364 31.0277H201.173V38.0138H204.79V34.3661ZM222.874 39.6521C221.39 41.1668 219.164 42.8979 217.031 44.3507C216.413 43.0215 215.517 41.7232 214.311 40.6104C214.991 40.1776 215.609 39.683 216.166 39.1884H223.028V36.0663H205.748V39.1884H211.065C208.283 40.7031 204.636 41.8778 201.143 42.5887C201.73 43.2997 202.657 44.7526 202.997 45.4636C205.903 44.6908 208.901 43.6397 211.591 42.2178C211.9 42.5578 212.178 42.8979 212.456 43.2379C209.767 45.0308 204.697 46.9782 200.895 47.782C201.544 48.5548 202.317 49.7912 202.719 50.6259C206.243 49.5439 210.756 47.5347 213.847 45.5872C214.033 45.9891 214.187 46.3909 214.311 46.7619C211.251 49.3585 205.316 52.0169 200.432 53.0679C201.143 53.9025 201.946 55.2317 202.348 56.1282C206.459 54.8917 211.313 52.6042 214.837 50.1931C214.837 51.6769 214.466 52.8206 213.94 53.3152C213.507 53.9644 213.013 54.0571 212.271 54.0571C211.56 54.0571 210.571 54.0262 209.489 53.9025C210.107 54.9226 210.416 56.3755 210.478 57.3956C211.374 57.4265 212.302 57.4574 212.982 57.4265C214.589 57.3956 215.578 57.0865 216.66 55.9736C218.237 54.6753 218.979 51.1205 218.113 47.411C218.422 47.2255 218.762 47.0401 219.072 46.8237C220.586 51.0277 223.028 54.3353 226.738 56.0973C227.263 55.2008 228.345 53.7789 229.18 53.0988C225.625 51.6769 223.152 48.6166 221.946 44.969C223.306 44.0416 224.698 43.0524 225.934 42.0941L222.874 39.6521ZM259.999 44.0107V52.1096H253.477V42.4033H262.874V31.1822H258.793V38.8484H253.477V28.5856H249.396V38.8484H244.296V31.1822H240.401V42.4033H249.396V52.1096H242.905V44.0416H238.762V55.7573H259.999V57.4265H264.141V44.0107H259.999ZM296.042 49.2039C295.486 50.0076 294.837 50.7186 294.095 51.3677C292.704 50.5949 291.282 49.884 289.984 49.2039H296.042ZM298.237 46.6691L297.681 46.7619H287.634V49.2039H288.376L287.14 50.6877C288.469 51.3987 289.922 52.2333 291.437 53.0679C289.829 53.8716 287.943 54.4589 285.934 54.799C286.522 55.479 287.171 56.6537 287.48 57.4574C290.045 56.8701 292.426 56.0045 294.373 54.799C296.042 55.7882 297.526 56.7464 298.577 57.4883L300.432 55.0463C299.505 54.428 298.237 53.6552 296.846 52.8824C298.33 51.4296 299.474 49.6367 300.246 47.3801L298.237 46.6691ZM299.845 31.8314C299.01 32.8205 297.588 34.1188 296.413 35.0462C295.857 34.6134 295.301 34.1498 294.775 33.6552C295.95 32.8205 297.279 31.7077 298.546 30.6567L295.919 28.7711C295.177 29.6366 294.033 30.7494 293.013 31.615C292.302 30.7494 291.715 29.7603 291.251 28.7092L288.314 29.5748C289.798 32.8824 291.869 35.6335 294.559 37.7665H288.654V39.9612C288.654 41.3523 288.376 42.836 286.46 44.1034V37.9519H282.41C284.914 36.0663 286.985 33.6552 288.222 30.6258L285.965 29.513L285.347 29.6675H277.279V32.5423H283.369C282.843 33.2533 282.225 33.9025 281.576 34.5207C280.679 33.8406 279.381 33.0988 278.33 32.5732L276.228 34.5207C277.155 35.0462 278.268 35.7572 279.103 36.3754C277.495 37.3955 275.733 38.2301 273.909 38.7557C274.559 39.4048 275.455 40.6413 275.888 41.445C276.846 41.105 277.773 40.7031 278.701 40.2394V40.734H283.183V42.8979H277.712C277.433 45.3399 276.939 48.4002 276.506 50.4095H282.998C282.781 52.5115 282.503 53.5007 282.132 53.8407C281.854 54.1189 281.514 54.1498 281.019 54.1498C280.339 54.1498 278.824 54.1189 277.279 53.9953C277.835 54.8299 278.268 56.0973 278.33 57.0556C279.968 57.1174 281.576 57.1174 282.41 57.0246C283.492 56.9628 284.234 56.7155 284.883 56.0045C285.687 55.2008 286.058 53.2225 286.398 49.0493C286.429 48.6166 286.46 47.751 286.46 47.751H280.03C280.123 47.071 280.215 46.3291 280.339 45.6181H286.46V44.6908C287.078 45.2472 287.974 46.1436 288.314 46.6691C290.88 45.0308 291.622 42.7124 291.715 40.5485H294.559V42.3414C294.559 44.8453 295.053 45.8963 297.65 45.8963H299.566C300.216 45.8963 300.927 45.8654 301.359 45.7109C301.236 44.9999 301.174 43.9489 301.112 43.207C300.71 43.3306 299.968 43.3615 299.535 43.3615H298.021C297.619 43.3615 297.557 43.1142 297.557 42.3724V39.7139C298.67 40.3013 299.814 40.7958 301.081 41.1977C301.576 40.3013 302.503 39.0029 303.276 38.292C301.699 37.8592 300.216 37.2719 298.855 36.5609C299.999 35.7572 301.328 34.768 302.503 33.717L299.845 31.8314Z" fill="white"/>
        <path d="M123.942 9.7465H117.806V6.82531H123.942V9.7465ZM125.101 5.72794H116.693V10.8439H125.101V5.72794ZM118.779 13.5796V17.2427H115.549V13.5796H118.779ZM114.452 19.1901H115.549V18.3555H118.779V19.051H119.908V12.4668H114.452V19.1901ZM122.705 17.2427V13.5796H126.214V17.2427H122.705ZM121.592 12.4668V19.1901H122.705V18.3555H126.214V19.0819H127.342V12.4668H121.592ZM137.481 10.3493H140.093V5.09424H139.119V9.34464H137.481V5.40336H136.43V11.2921C136.43 13.5332 136.291 16.6244 135.348 18.8192C135.673 18.8964 136.136 19.0665 136.384 19.1901C137.048 17.5363 137.327 15.4652 137.419 13.5332H139.027V19.1747H140.109V12.5286H137.466C137.481 12.0958 137.481 11.694 137.481 11.2766V10.3493ZM142.288 11.8485V10.1638H144.436C144.375 10.6584 144.22 11.2457 143.957 11.8485H142.288ZM142.288 7.61357H144.498V9.26736H142.288V7.61357ZM147.667 9.26736H145.534V7.61357H147.667V9.26736ZM147.667 11.8485H145.008C145.256 11.2148 145.395 10.6429 145.472 10.1638H147.667V11.8485ZM149.537 15.0015H146.801V13.1623H145.735V15.0015H142.705C143.555 14.3369 144.158 13.5641 144.575 12.7913H148.779V6.6553H144.622C144.838 6.25344 145.086 5.75885 145.317 5.27971L144.035 5.07878C143.911 5.52701 143.633 6.1607 143.401 6.6553H141.206V12.7913H143.432C142.999 13.3941 142.427 13.9969 141.639 14.5224C141.793 14.6306 142.056 14.8161 142.257 15.0015H140.588V16.0371H145.735V19.1747H146.801V16.0371H149.537V15.0015ZM165.642 9.00461H168.888C168.563 11.0603 168.053 12.7604 167.265 14.1669C166.492 12.6986 165.951 10.9521 165.611 9.06643L165.642 9.00461ZM162.133 16.3617H158.826V13.0386H162.133V16.3617ZM171.175 9.00461V7.90723H165.997C166.276 7.05715 166.508 6.1607 166.678 5.2488L165.534 5.06333C165.039 7.67539 164.174 10.1638 162.844 11.7249C162.937 11.7867 163.061 11.864 163.184 11.9567H161.067V9.14371H163.834V8.06179H161.067V5.06333H159.939V8.06179H157.11V9.14371H159.939V11.9567H157.759V18.5255H158.826V17.4436H163.231V11.9876C163.463 12.1576 163.695 12.3431 163.818 12.4668C164.22 11.9567 164.576 11.3694 164.9 10.7202C165.302 12.3895 165.858 13.9042 166.569 15.2025C165.58 16.5008 164.266 17.4745 162.489 18.1855C162.69 18.4173 163.03 18.9274 163.154 19.2056C164.854 18.4482 166.167 17.4745 167.188 16.2226C168.053 17.5054 169.135 18.51 170.495 19.1901C170.665 18.881 171.021 18.4482 171.283 18.2164C169.877 17.5827 168.78 16.5626 167.899 15.2488C168.95 13.6105 169.63 11.5703 170.047 9.00461H171.175ZM190.001 15.9598H186.291V14.8006H190.001V15.9598ZM186.291 12.8068H190.001V13.8887H186.291V12.8068ZM181.824 10.0711V8.95824H185.147V10.0711H181.824ZM189.753 8.95824V10.0711H186.291V8.95824H189.753ZM192.736 13.8887H191.144V11.9567H186.291V10.8748H190.897V8.15453H186.291V7.25808H192.443V6.31526H186.291V5.07878H185.147V6.31526H179.12V7.25808H185.147V8.15453H180.727V10.8748H185.147V11.9567H180.294V12.8068H185.147V13.8887H178.826V14.8006H185.147V15.9598H180.155V16.8408H185.147V17.9073C185.147 18.17 185.055 18.2628 184.761 18.2782C184.498 18.2782 183.571 18.2937 182.644 18.2628C182.798 18.5255 182.984 18.9428 183.045 19.2365C184.328 19.2365 185.132 19.221 185.611 19.051C186.075 18.881 186.291 18.6182 186.291 17.9073V16.8408H190.001V17.5363H191.144V14.8006H192.736V13.8887Z" fill="white"/>
        <path d="M78.3189 79.6182V82.886H70.6704V79.6182H78.3189ZM69.01 85.2884H70.6704V84.4052H78.3189V85.2177H80.05V78.1521H69.01V85.2884ZM71.006 74.7959C72.2778 73.9127 73.4789 72.8882 74.5035 71.7577C75.7576 72.9942 76.9764 73.9657 78.2659 74.7959H71.006ZM74.6271 69.0551C72.8077 71.7754 69.5575 74.0187 66.272 75.3082C66.7313 75.7145 67.1906 76.3327 67.4732 76.792C68.3387 76.4034 69.1866 75.9264 70.0168 75.4318V76.315H78.8135V75.1492C79.6967 75.6791 80.5975 76.1561 81.5337 76.5977C81.7634 76.0854 82.2403 75.4848 82.6819 75.0962C80.0676 74.054 77.6653 72.7116 75.5103 70.5919C75.7223 70.3269 75.8989 70.062 76.0756 69.797L74.6271 69.0551ZM89.8358 72.5526H101.282V74.9726H102.96V71.0688H96.4951L96.7778 70.9982C96.6541 70.4506 96.2478 69.6204 95.8769 68.9845L94.2695 69.3731C94.5521 69.8853 94.8524 70.5566 95.0114 71.0688H88.2284V74.9726H89.8358V72.5526ZM92.6797 81.5789H98.2969V83.3453H92.6797V81.5789ZM98.2969 75.5732V77.1806H92.6797V75.5732H98.2969ZM98.2969 80.2364H92.6797V78.5407H98.2969V80.2364ZM99.9573 83.3453V74.1424H91.09V83.3453H87.8221V84.8291H103.366V83.3453H99.9573ZM119.794 72.0933H118.169V71.1748H119.794V72.0933ZM122.709 73.0825V74.5663H121.119V73.0825H122.709ZM118.169 73.0825H119.794V74.5663H118.169V73.0825ZM115.325 73.0825H116.862V74.5663H115.325V73.0825ZM116.862 72.0933H113.894V75.5732H124.192V72.0933H121.119V71.1748H124.74V69.9383H113.523V71.1748H116.862V72.0933ZM111.969 69.1788C111.156 71.8284 109.796 74.4427 108.33 76.1561C108.577 76.5623 109.001 77.4809 109.143 77.8871C109.637 77.3219 110.096 76.6683 110.556 75.9441V85.306H112.11V73.0825C112.64 71.952 113.099 70.7685 113.488 69.6027L111.969 69.1788ZM115.749 80.8724H122.408V81.7556H115.749V80.8724ZM115.749 79.0706H122.408V79.9362H115.749V79.0706ZM115.749 77.3042H122.408V78.1521H115.749V77.3042ZM124.016 82.7271V76.315H114.212V82.7271H117.021C116.085 83.3276 114.424 83.9106 112.923 84.2108C113.223 84.4935 113.612 85.0234 113.806 85.3413C115.378 84.9704 117.109 84.3168 118.204 83.522L117.074 82.7271H124.016ZM119.812 83.6633C121.278 84.1755 122.814 84.8468 123.68 85.359L125.093 84.4228C124.086 83.9106 122.373 83.2393 120.854 82.7447L119.812 83.6633ZM138.553 78.8587C139.454 78.3641 140.302 77.7635 141.079 77.0923C141.839 77.7458 142.722 78.3641 143.693 78.8587H138.553ZM138.818 83.204V80.2541H143.181V83.204H138.818ZM136.327 77.5339C135.992 77.1276 134.614 75.4318 134.137 74.9196V74.319H135.656L135.533 74.425C135.904 74.6723 136.539 75.2199 136.804 75.5202C137.334 75.0432 137.847 74.4956 138.359 73.8774C138.8 74.6016 139.33 75.3259 139.966 76.0148C138.677 77.1099 137.175 77.9578 135.621 78.5054L136.327 77.5339ZM142.863 72.3936C142.386 73.3475 141.768 74.2307 141.044 75.0079C140.302 74.2484 139.701 73.4358 139.277 72.6409L139.436 72.3936H142.863ZM143.905 70.9099L143.605 70.9805H140.249C140.496 70.5036 140.726 70.009 140.92 69.5144L139.348 69.0905C138.677 70.8569 137.582 72.5173 136.292 73.7538V72.7999H134.137V69.1081H132.6V72.7999H130.11V74.319H132.441C131.911 76.5977 130.816 79.1943 129.703 80.6604C129.951 81.0313 130.357 81.6672 130.498 82.1265C131.276 81.0667 132.017 79.4239 132.6 77.6752V85.306H134.137V76.7743C134.561 77.4102 135.02 78.1168 135.285 78.6114L135.179 78.6467C135.515 78.9823 135.921 79.5829 136.115 79.9715C136.522 79.8302 136.91 79.6712 137.299 79.4946V85.3237H138.818V84.6348H143.181V85.2707H144.771V79.3532C144.965 79.4416 145.159 79.5122 145.354 79.5829C145.583 79.1766 146.043 78.523 146.378 78.2051C144.736 77.7282 143.322 76.9509 142.174 76.0324C143.358 74.7429 144.329 73.2062 144.93 71.3868L143.905 70.9099ZM169.494 71.8814C168.769 72.7822 167.815 73.5948 166.738 74.2837C166.084 73.7361 164.954 73.0295 163.912 72.4996C164.23 72.3053 164.548 72.0933 164.83 71.8814H169.494ZM170.836 70.4329L170.571 70.5036H166.508C166.862 70.168 167.197 69.8147 167.515 69.4614L165.696 69.0551C164.512 70.5212 162.251 72.111 159.142 73.1532C159.496 73.4181 160.008 73.9834 160.238 74.372C161.068 74.0364 161.827 73.6831 162.534 73.3122C163.505 73.8244 164.601 74.5133 165.307 75.1139C163.364 76.1031 161.156 76.8096 159.001 77.1806C159.284 77.5162 159.619 78.1698 159.761 78.5937C164.565 77.5692 169.653 75.2022 171.896 71.0688L170.836 70.4329ZM172.055 78.1344C171.348 79.3003 170.359 80.2541 169.193 81.0313C168.469 80.3601 167.233 79.5476 166.155 78.947C166.597 78.682 167.003 78.4171 167.409 78.1344H172.055ZM173.274 76.6507L172.991 76.7213H169.158C169.6 76.315 169.988 75.9088 170.359 75.4848L168.54 75.0609C167.18 76.739 164.583 78.4877 160.927 79.6182C161.262 79.9008 161.739 80.5191 161.916 80.89C162.905 80.5367 163.823 80.1481 164.671 79.7419C165.731 80.3248 166.95 81.1903 167.709 81.8792C165.572 82.939 163.029 83.5396 160.361 83.8399C160.644 84.2108 160.962 84.8997 161.068 85.3413C166.915 84.5111 172.196 82.3738 174.369 77.2336L173.274 76.6507ZM194.135 70.4153H181.699V72.005H194.135V70.4153ZM191.609 83.469C190.973 83.469 190.867 83.363 190.867 82.7271V76.845H195.672V75.2552H180.145V76.845H184.402C184.155 79.9538 183.554 82.5858 179.862 83.9636C180.233 84.2815 180.71 84.8644 180.887 85.2884C185.038 83.6279 185.833 80.5721 186.151 76.845H189.171V82.7447C189.171 84.4758 189.631 85.0234 191.379 85.0234H193.729C195.371 85.0234 195.795 84.1579 195.972 81.102C195.53 80.9783 194.824 80.6957 194.435 80.3954C194.364 83.0097 194.258 83.469 193.605 83.469H191.609ZM215.102 70.8215V71.8284H212.965V70.8215H215.102ZM215.597 75.0962C216.091 75.0962 216.586 75.0786 216.851 74.9902C216.815 74.69 216.762 74.1954 216.727 73.8421C216.444 73.9127 215.897 73.9481 215.561 73.9481H213.424C213.035 73.9481 212.965 73.7714 212.965 73.2945V72.9059H216.497V69.7617H211.658V73.2592C211.658 74.584 211.993 75.0962 213.353 75.0962H215.597ZM209.467 70.8039V71.8107H207.4V70.8039H209.467ZM207.4 74.0187V72.8882H210.863V69.744H206.111V73.2592C206.111 73.9127 205.846 74.1954 205.616 74.3013C205.793 74.6016 206.076 75.2199 206.164 75.5555C206.464 75.3965 207.03 75.2729 210.774 74.637C210.792 74.3543 210.863 73.8421 210.951 73.4711L207.4 74.0187ZM210.068 77.7282H212.452V79.1236H210.068V77.7282ZM216.957 80.3601V79.1236H213.971V77.7282H216.338V76.4917H213.971V75.3788H212.452V76.4917H210.068V75.3788H208.566V76.4917H206.252V77.7282H208.566V79.1236H205.563V80.3601H216.957ZM216.639 82.3385C215.809 81.7202 214.395 80.9253 213.141 80.3601L212.064 81.0843C213.247 81.6672 214.466 82.4621 215.173 83.045L216.639 82.3385ZM209.132 80.3778C208.372 81.049 207.083 81.6849 205.846 82.1265C206.235 82.3385 206.8 82.8331 207.1 83.1157C208.266 82.5858 209.697 81.7379 210.598 80.89L209.132 80.3778ZM204.91 71.8284C204.433 71.1395 203.444 70.0267 202.631 69.1788L201.412 69.9383C202.19 70.8039 203.179 72.005 203.673 72.7469L204.91 71.8284ZM204.716 77.4455L204.451 77.4809H203.055C203.868 76.2797 204.875 74.4956 205.475 73.5065L204.433 73.1002L204.221 73.1885H201.147V74.5133H203.338C202.755 75.5555 202.031 76.7743 201.73 77.1099C201.448 77.4632 201.183 77.5692 200.918 77.6575C201.094 77.9401 201.377 78.6644 201.465 79.0353C201.607 78.894 202.101 78.7703 202.49 78.7703H203.885C203.355 81.3316 202.296 83.1863 200.794 84.2462C201.13 84.4758 201.642 85.0234 201.872 85.359C202.684 84.7231 203.408 83.8929 203.991 82.7977C205.369 84.7054 207.506 85.0587 210.933 85.0587C212.912 85.0587 215.137 85.0057 216.868 84.8997C216.957 84.4581 217.151 83.7163 217.398 83.363C215.526 83.5396 212.823 83.6279 210.951 83.6279C207.807 83.6279 205.669 83.3453 204.61 81.4376C204.998 80.3601 205.316 79.1236 205.51 77.7282L204.716 77.4455ZM227.29 76.5093L225.789 76.9686V74.0717H227.467V72.5526H225.789V69.1435H224.287V72.5526H222.291V74.0717H224.287V77.3925C223.457 77.6398 222.698 77.8695 222.079 78.0284L222.468 79.6182L224.287 79.053V83.4513C224.287 83.6986 224.199 83.7516 223.969 83.7692C223.775 83.7692 223.121 83.7869 222.415 83.7516C222.627 84.1755 222.821 84.8821 222.856 85.2707C223.987 85.2707 224.676 85.2354 225.153 84.9527C225.63 84.7231 225.789 84.2638 225.789 83.4513V78.5584C226.354 78.3817 226.937 78.2051 227.502 78.0108L227.29 76.5093ZM234.833 77.9578C234.674 78.3994 234.426 78.9823 234.197 79.4592H231.706C231.6 79.0706 231.353 78.4347 231.106 77.9578H234.833ZM230.947 72.3936H229.569V70.8745H230.947V72.3936ZM232.236 70.8745H233.685V72.3936H232.236V70.8745ZM234.974 70.8745H236.458V72.3936H234.974V70.8745ZM238.26 81.7909H233.649V80.7134H237.641V79.4592H235.698C235.928 79.0883 236.157 78.6644 236.387 78.2404L235.274 77.9578H238.03V76.6683H233.649V75.6261H237.5V74.425H233.649V73.5418H237.8V69.7264H228.262V73.5418H232.112V74.425H228.456V75.6261H232.112V76.6683H227.714V77.9578H230.841L229.728 78.2051C229.922 78.576 230.081 79.0706 230.205 79.4592H228.067V80.7134H232.112V81.7909H227.449V83.0274H232.112V85.3237H233.649V83.0274H238.277L238.26 81.7909Z" fill="white"/>
    </g>
    <defs>
        <filter id="filter0_d_3949_39718" x="1.40283" y="5.06348" width="304.081" height="82.5034" filterUnits="userSpaceOnUse" color-interpolation-filters="sRGB">
            <feFlood flood-opacity="0" result="BackgroundImageFix"/>
            <feColorMatrix in="SourceAlpha" type="matrix" values="0 0 0 0 0 0 0 0 0 0 0 0 0 0 0 0 0 0 127 0" result="hardAlpha"/>
            <feOffset dx="1.104" dy="1.104"/>
            <feGaussianBlur stdDeviation="0.552"/>
            <feComposite in2="hardAlpha" operator="out"/>
            <feColorMatrix type="matrix" values="0 0 0 0 0 0 0 0 0 0 0 0 0 0 0 0 0 0 0.25 0"/>
            <feBlend mode="normal" in2="BackgroundImageFix" result="effect1_dropShadow_3949_39718"/>
            <feBlend mode="normal" in="SourceGraphic" in2="effect1_dropShadow_3949_39718" result="shape"/>
        </filter>
    </defs>
</svg>
