<svg width="40" height="40" viewBox="0 0 40 40" fill="none" xmlns="http://www.w3.org/2000/svg">
    <path d="M3.33374 20.0002C3.33374 10.7954 10.7957 3.3335 20.0004 3.3335C29.2052 3.3335 36.6671 10.7954 36.6671 20.0002C36.6671 29.2049 29.2052 36.6668 20.0004 36.6668C10.7957 36.6668 3.33374 29.2049 3.33374 20.0002Z"
          fill="#292929"/>
    <path fill-rule="evenodd" clip-rule="evenodd"
          d="M20.0004 3.3335C10.7957 3.3335 3.33374 10.7954 3.33374 20.0002C3.33374 29.2049 10.7957 36.6668 20.0004 36.6668C29.2052 36.6668 36.6671 29.2049 36.6671 20.0002C36.6671 10.7954 29.2052 3.3335 20.0004 3.3335ZM19.0513 24.9839L26.968 17.0672C27.5347 16.5005 27.5347 15.5839 26.968 15.0005C26.4013 14.4339 25.468 14.4339 24.9013 15.0005L18.018 21.8839L15.1013 18.9672C14.5347 18.4005 13.6013 18.4005 13.0347 18.9672C12.468 19.5339 12.468 20.4505 13.0347 21.0339L17.0013 24.9839C17.2847 25.2672 17.6513 25.4005 18.018 25.4005C18.4013 25.4005 18.768 25.2672 19.0513 24.9839Z"
          fill="white"/>
</svg>
