<svg width="24" height="24" viewBox="0 0 24 24" fill="none" xmlns="http://www.w3.org/2000/svg">
    <path fill-rule="evenodd" clip-rule="evenodd" d="M2 12.43C2 9.97946 3.98711 8 6.435 8C6.84921 8 7.185 8.33579 7.185 8.75C7.185 9.16421 6.84921 9.5 6.435 9.5C4.81289 9.5 3.5 10.8105 3.5 12.43V17.57C3.5 19.1886 4.81302 20.5 6.435 20.5H17.565C19.187 20.5 20.5 19.1886 20.5 17.57V12.43C20.5 10.8136 19.1892 9.5 17.576 9.5C17.1618 9.5 16.826 9.16421 16.826 8.75C16.826 8.33579 17.1618 8 17.576 8C20.0208 8 22 9.98838 22 12.43V17.57C22 20.0194 20.013 22 17.565 22H6.435C3.98698 22 2 20.0194 2 17.57V12.43Z" fill="#858585"/>
    <path fill-rule="evenodd" clip-rule="evenodd" d="M11.9997 2C12.1987 1.99999 12.3894 2.079 12.5301 2.21965L15.5303 5.21965C15.8232 5.51253 15.8232 5.98741 15.5303 6.28031C15.2375 6.57321 14.7626 6.57323 14.4697 6.28035L11.9998 3.81066L9.53035 6.28031C9.23747 6.57321 8.76259 6.57323 8.46969 6.28035C8.17679 5.98747 8.17677 5.51259 8.46965 5.21969L11.4694 2.21969C11.6101 2.07903 11.8008 2.00001 11.9997 2Z" fill="#858585"/>
    <path fill-rule="evenodd" clip-rule="evenodd" d="M12 2C12.4142 2 12.75 2.33579 12.75 2.75V14.75C12.75 15.1642 12.4142 15.5 12 15.5C11.5858 15.5 11.25 15.1642 11.25 14.75V2.75C11.25 2.33579 11.5858 2 12 2Z" fill="#858585"/>
    <path fill-rule="evenodd" clip-rule="evenodd" d="M11.9995 2C12.1984 1.99998 12.3892 2.07898 12.5299 2.21962L15.0303 4.71962C15.3232 5.01249 15.3232 5.48737 15.0304 5.78028C14.7375 6.0732 14.2626 6.07324 13.9697 5.78038L11.9997 3.81066L10.0304 5.78028C9.73751 6.0732 9.26263 6.07324 8.96972 5.78038C8.6768 5.48751 8.67676 5.01263 8.96962 4.71972L11.4692 2.21972C11.6098 2.07905 11.8006 2.00002 11.9995 2Z" fill="#858585"/>
</svg>
