<svg width="127" height="18" viewBox="0 0 127 18" fill="none" xmlns="http://www.w3.org/2000/svg">
    <path fill-rule="evenodd" clip-rule="evenodd" d="M34.5188 17.9946C36.8308 17.9946 38.9323 17.208 40.4561 15.6835C41.9806 14.1584 42.9155 11.9063 42.9155 8.99732C42.9155 6.08829 41.9806 3.83627 40.4561 2.31117C38.9323 0.786666 36.8308 0 34.5188 0C32.2067 0 30.1052 0.786666 28.5814 2.31117C27.0569 3.83627 26.122 6.08829 26.122 8.99732C26.122 11.9063 27.0569 14.1584 28.5814 15.6835C30.1052 17.208 32.2067 17.9946 34.5188 17.9946ZM39.6356 8.99732C39.6356 10.9704 39.0558 12.4737 38.1327 13.4822C37.2101 14.4901 35.9345 15.0151 34.5188 15.0151C33.103 15.0151 31.8274 14.4901 30.9048 13.4822C29.9817 12.4737 29.4019 10.9704 29.4019 8.99732C29.4019 7.02419 29.9817 5.52092 30.9048 4.51247C31.8274 3.50454 33.103 2.97955 34.5188 2.97955C35.9345 2.97955 37.2101 3.50454 38.1327 4.51247C39.0558 5.52092 39.6356 7.02419 39.6356 8.99732Z" fill="#292929"/>
    <path fill-rule="evenodd" clip-rule="evenodd" d="M3.13312 0H0.288719C0.128606 0 -0.00431799 0.129766 0.000107404 0.294502C0.0242966 1.19495 0.146065 5.88277 0.146065 8.99731C0.146065 12.1119 0.0242966 16.7997 0.000107421 17.7001C-0.00431797 17.8649 0.128606 17.9946 0.288719 17.9946H3.13312C3.29233 17.9946 3.4262 17.8665 3.42175 17.7008C3.40091 16.9252 3.30723 13.3231 3.28203 10.3481C3.28198 10.3424 3.28644 10.3369 3.29371 10.3369H11.0891C11.0964 10.3369 11.1009 10.3424 11.1008 10.3481C11.0756 13.3231 10.9819 16.9252 10.9611 17.7008C10.9566 17.8665 11.0905 17.9946 11.2497 17.9946H14.0941C14.2542 17.9946 14.3872 17.8649 14.3827 17.7001C14.3585 16.7997 14.2368 12.1119 14.2368 8.99731C14.2368 5.88277 14.3585 1.19495 14.3827 0.294503C14.3872 0.129767 14.2542 0 14.0941 0H11.2497C11.09 0 10.9567 0.129103 10.9611 0.294204C10.9813 1.04471 11.0694 4.43423 11.0981 7.3461C11.0981 7.35197 11.0935 7.35739 11.0864 7.35739H3.29646C3.28936 7.35739 3.28472 7.35197 3.28478 7.3461C3.31341 4.43423 3.40157 1.04471 3.42174 0.294204C3.42617 0.129103 3.29286 0 3.13312 0Z" fill="#292929"/>
    <path d="M86.6328 0.588872V17.4058C86.6328 17.731 86.8964 17.9946 87.2216 17.9946H99.8343C99.9937 17.9946 100.123 17.8654 100.123 17.7061V15.2286C100.123 15.0692 99.9937 14.94 99.8343 14.94H90.1496C90.1431 14.94 90.1378 14.9347 90.1378 14.9283V10.4988C90.1378 10.4923 90.1431 10.4871 90.1496 10.4871H98.6331C98.7925 10.4871 98.9217 10.3579 98.9217 10.1985V7.34566C98.9217 7.18628 98.7925 7.05709 98.6331 7.05709H90.0745C90.068 7.05709 90.0628 7.05183 90.0628 7.04535V3.14144C90.0628 3.13496 90.068 3.1297 90.0745 3.1297H99.6841C99.8435 3.1297 99.9727 3.00051 99.9727 2.84113V0.288571C99.9727 0.129198 99.8435 0 99.6841 0H87.2216C86.8964 0 86.6328 0.263647 86.6328 0.588872Z" fill="#292929"/>
    <path d="M113.51 0.588872V17.4058C113.51 17.731 113.774 17.9946 114.099 17.9946H126.712C126.871 17.9946 127 17.8654 127 17.7061V15.2286C127 15.0692 126.871 14.94 126.712 14.94H117.027C117.02 14.94 117.015 14.9347 117.015 14.9283V10.4988C117.015 10.4923 117.02 10.4871 117.027 10.4871H125.961C126.12 10.4871 126.249 10.3579 126.249 10.1985V7.34566C126.249 7.18628 126.12 7.05709 125.961 7.05709H116.952C116.945 7.05709 116.94 7.05183 116.94 7.04535V3.14144C116.94 3.13496 116.945 3.1297 116.952 3.1297H126.561C126.721 3.1297 126.85 3.00051 126.85 2.84113V0.288571C126.85 0.129198 126.721 0 126.561 0H114.099C113.774 0 113.51 0.263647 113.51 0.588872Z" fill="#292929"/>
    <path d="M54.9393 17.9946H57.491C57.651 17.9946 57.7805 17.8644 57.7795 17.7043L57.7075 5.81064L63.742 11.9871C63.8552 12.103 64.0416 12.103 64.1548 11.9871L70.1893 5.81064L70.1172 17.7043C70.1162 17.8644 70.2457 17.9946 70.4058 17.9946H72.9574C73.1168 17.9946 73.246 17.8654 73.246 17.7061V0.288571C73.246 0.129198 73.1168 0 72.9574 0H71.1189C70.9122 0 70.7149 0.0865548 70.575 0.238663L63.957 7.43213C63.9524 7.43718 63.9444 7.43718 63.9397 7.43213L57.3218 0.238663C57.1818 0.0865547 56.9846 0 56.7779 0H54.9393C54.78 0 54.6508 0.129198 54.6508 0.288571V17.7061C54.6508 17.8654 54.78 17.9946 54.9393 17.9946Z" fill="#292929"/>
</svg>
