<svg width="16" height="16" viewBox="0 0 16 16" fill="none" xmlns="http://www.w3.org/2000/svg">
    <path fill-rule="evenodd" clip-rule="evenodd" d="M2.82775 5.16266C3.0421 4.94627 3.38959 4.94479 3.60394 5.16415L8.38834 10.0482C8.60269 10.2668 8.60196 10.62 8.38688 10.8371C8.28007 10.945 8.13961 11 7.99989 11C7.85869 11 7.71823 10.945 7.61143 10.8357L2.82702 5.95163C2.61267 5.73301 2.61341 5.3798 2.82775 5.16266ZM12.3952 5.16423C12.6096 4.94486 12.9571 4.94635 13.1714 5.16274C13.3865 5.37987 13.3872 5.73309 13.1736 5.95171L9.99646 9.19533C9.88965 9.30464 9.74846 9.35967 9.608 9.35967C9.46827 9.35967 9.32781 9.30464 9.22101 9.19682C9.00593 8.97969 9.0052 8.62647 9.21881 8.40785L12.3952 5.16423Z" fill="#858585"/>
</svg>
