<svg width="28" height="28" viewBox="0 0 28 28" fill="none" xmlns="http://www.w3.org/2000/svg">
    <path d="M16.8161 4.36477C15.2159 3.07844 12.7838 3.07845 11.1835 4.36477L4.18312 9.95442C3.32913 10.6413 2.8275 11.6748 2.81653 12.7707L2.81653 23.6076C2.81692 24.1536 3.25799 24.5969 3.80396 24.6C4.35461 24.6031 4.80268 24.1576 4.80268 23.607L4.81218 12.7928C4.81937 12.3082 5.04382 11.8525 5.42358 11.5515L12.4257 5.96049C13.2826 5.25501 14.7171 5.255 15.574 5.96049L22.5758 11.5513C22.9555 11.8523 23.1802 12.3082 23.1875 12.7927L23.197 23.607C23.197 24.1576 23.645 24.6031 24.1957 24.6C24.7416 24.5969 25.1827 24.1536 25.1831 23.6076L25.1831 12.7707C25.1721 11.6748 24.6705 10.6413 23.8165 9.95442L16.8161 4.36477Z" fill="#1E1E1E"/>
    <path d="M14 17.4095C13.4405 17.4095 12.987 17.863 12.987 18.4225V23.5922C12.987 24.1538 13.4439 24.6083 14.0056 24.6052C14.5629 24.6021 15.013 24.1494 15.013 23.5922V18.4225C15.013 17.863 14.5595 17.4095 14 17.4095Z" fill="#1E1E1E"/>
</svg>
