<svg width="28" height="28" viewBox="0 0 28 28" fill="none" xmlns="http://www.w3.org/2000/svg">
    <path d="M16.8161 4.36465C15.2159 3.07832 12.7838 3.07832 11.1835 4.36465L4.18312 9.9543C3.32913 10.6411 2.8275 11.6747 2.81653 12.7706L2.81653 23.6075C2.81692 24.1535 3.25799 24.5968 3.80396 24.5999C4.35461 24.603 4.80268 24.1575 4.80268 23.6068L4.81218 12.7926C4.81937 12.3081 5.04382 11.8524 5.42358 11.5514L12.4257 5.96037C13.2826 5.25489 14.7171 5.25488 15.574 5.96037L22.5758 11.5512C22.9555 11.8522 23.1802 12.3081 23.1875 12.7926L23.197 23.6068C23.197 24.1575 23.645 24.603 24.1957 24.5999C24.7416 24.5968 25.1827 24.1535 25.1831 23.6075L25.1831 12.7706C25.1721 11.6747 24.6705 10.6412 23.8165 9.9543L16.8161 4.36465Z" fill="#FE5541"/>
    <path d="M14 17.4093C13.4405 17.4093 12.987 17.8629 12.987 18.4224V23.592C12.987 24.1537 13.4439 24.6082 14.0056 24.6051C14.5629 24.602 15.013 24.1493 15.013 23.592V18.4224C15.013 17.8629 14.5595 17.4093 14 17.4093Z" fill="#FE5541"/>
</svg>
