<svg width="29" height="28" viewBox="0 0 29 28" fill="none" xmlns="http://www.w3.org/2000/svg">
    <path d="M14.4998 2.2334C13.9516 2.2334 13.5073 2.67776 13.5073 3.2259V4.66673C13.5073 5.21487 13.9516 5.65923 14.4998 5.65923C15.0479 5.65923 15.4923 5.21487 15.4923 4.66673V3.2259C15.4923 2.67776 15.0479 2.2334 14.4998 2.2334Z" fill="#1E1E1E"/>
    <path d="M7.58334 5.67971C7.19574 5.29211 6.56733 5.29211 6.17973 5.67971C5.79214 6.0673 5.79214 6.69572 6.17973 7.08332L7.19855 8.10214C7.58615 8.48974 8.21457 8.48973 8.60216 8.10214C8.98976 7.71454 8.98976 7.08613 8.60216 6.69853L7.58334 5.67971Z" fill="#1E1E1E"/>
    <path d="M22.8197 5.67975C22.4321 5.29216 21.8037 5.29216 21.4161 5.67975L20.3973 6.69858C20.0097 7.08617 20.0097 7.71459 20.3973 8.10218C20.7849 8.48978 21.4133 8.48978 21.8009 8.10218L22.8197 7.08336C23.2073 6.69576 23.2073 6.06735 22.8197 5.67975Z" fill="#1E1E1E"/>
    <path fill-rule="evenodd" clip-rule="evenodd" d="M14.5002 6.60811C10.4179 6.60811 7.10852 9.91748 7.10852 13.9998C7.10852 16.2104 8.07908 18.1945 9.61699 19.5489C10.0365 19.9183 10.3169 20.4247 10.3169 20.9702V22.5164C10.3169 24.3114 11.7719 25.7664 13.5669 25.7664H15.4335C17.2284 25.7664 18.6835 24.3114 18.6835 22.5164V20.9702C18.6835 20.4247 18.9639 19.9183 19.3834 19.5489C20.9213 18.1945 21.8919 16.2104 21.8919 13.9998C21.8919 9.91748 18.5825 6.60811 14.5002 6.60811ZM9.09352 13.9998C9.09352 11.0138 11.5142 8.59311 14.5002 8.59311C17.4862 8.59311 19.9069 11.0138 19.9069 13.9998C19.9069 15.6165 19.1996 17.0657 18.0715 18.0592C17.4398 18.6155 16.8882 19.4341 16.7384 20.4331H12.2619C12.1122 19.4341 11.5606 18.6155 10.9289 18.0592C9.80075 17.0657 9.09352 15.6165 9.09352 13.9998ZM12.3019 22.5164V22.4181H16.6985V22.5164C16.6985 23.2151 16.1322 23.7815 15.4335 23.7815H13.5669C12.8682 23.7815 12.3019 23.2151 12.3019 22.5164Z" fill="#1E1E1E"/>
    <path d="M3.72602 13.0073C3.17788 13.0073 2.73352 13.4516 2.73352 13.9998C2.73352 14.5479 3.17788 14.9923 3.72602 14.9923H5.16685C5.715 14.9923 6.15935 14.5479 6.15935 13.9998C6.15935 13.4516 5.715 13.0073 5.16685 13.0073H3.72602Z" fill="#1E1E1E"/>
    <path d="M23.8335 13.0073C23.2854 13.0073 22.841 13.4516 22.841 13.9998C22.841 14.5479 23.2854 14.9923 23.8335 14.9923H25.2738C25.822 14.9923 26.2663 14.5479 26.2663 13.9998C26.2663 13.4516 25.822 13.0073 25.2738 13.0073H23.8335Z" fill="#1E1E1E"/>
</svg>
