<svg width="28" height="28" viewBox="0 0 28 28" fill="none" xmlns="http://www.w3.org/2000/svg">
    <path d="M13.9998 3.3999C12.9916 3.39984 12.118 3.67542 11.1865 4.36201L3.60281 9.95187C3.11342 10.3126 2.76928 10.7123 2.5484 11.1777C2.32777 11.6426 2.23315 12.1666 2.23315 12.7715V22.1665C2.23315 23.5104 3.32259 24.5998 4.66649 24.5998H23.3332C24.6771 24.5998 25.7665 23.5104 25.7665 22.1665V13.7257C25.7665 13.1776 25.3221 12.7332 24.774 12.7332C24.2258 12.7332 23.7815 13.1776 23.7815 13.7257V22.1665C23.7815 22.4141 23.5808 22.6148 23.3332 22.6148H4.66649C4.41888 22.6148 4.21815 22.4141 4.21815 22.1665V12.7715C4.21815 12.3731 4.28022 12.1583 4.34169 12.0288C4.39854 11.909 4.50665 11.7516 4.78056 11.5497L12.3643 5.95986C12.9689 5.51425 13.4328 5.38487 13.9997 5.3849C14.5665 5.38494 15.0303 5.51432 15.6348 5.9599L22.5007 11.0202C22.9419 11.3455 23.5633 11.2514 23.8885 10.8101C24.2137 10.3689 24.1196 9.74756 23.6784 9.42235L16.8125 4.36201C15.8812 3.67558 15.0079 3.39996 13.9998 3.3999Z" fill="#1E1E1E"/>
    <path d="M11.0832 13.0074C9.73926 13.0074 8.64982 14.0968 8.64982 15.4407L8.64982 18.6666C8.64982 19.2147 9.09418 19.6591 9.64232 19.6591C10.1905 19.6591 10.6348 19.2147 10.6348 18.6666V15.4757C10.6348 15.2088 10.8512 14.9924 11.1182 14.9924H18.3573C18.9055 14.9924 19.3498 14.548 19.3498 13.9999C19.3498 13.4517 18.9055 13.0074 18.3573 13.0074H11.0832Z" fill="#1E1E1E"/>
    <path d="M13.9997 15.9591C13.4515 15.9591 13.0072 16.4034 13.0072 16.9516V18.6666C13.0072 19.2147 13.4515 19.659 13.9997 19.659C14.5478 19.659 14.9922 19.2147 14.9922 18.6666V16.9516C14.9922 16.4034 14.5478 15.9591 13.9997 15.9591Z" fill="#1E1E1E"/>
    <path d="M18.3573 15.9591C17.8092 15.9591 17.3648 16.4034 17.3648 16.9516V18.6666C17.3648 19.2147 17.8092 19.6591 18.3573 19.6591C18.9055 19.6591 19.3498 19.2147 19.3498 18.6666V16.9516C19.3498 16.4034 18.9055 15.9591 18.3573 15.9591Z" fill="#1E1E1E"/>
</svg>
