<svg width="29" height="28" viewBox="0 0 29 28" fill="none" xmlns="http://www.w3.org/2000/svg">
<path d="M3.87384 2.24656C3.33739 2.15908 2.83839 2.51639 2.74766 3.05729C2.65723 3.59524 3.00986 4.11009 3.54171 4.20454L5.22735 4.50187L6.28733 17.3959C6.42213 19.0342 7.74024 20.2735 9.35607 20.2735H22.0852C23.6076 20.2735 24.9155 19.1163 25.1323 17.5838L26.2406 9.77512C26.3461 9.0303 26.1291 8.27898 25.6474 7.71063C25.1655 7.14207 24.4646 6.81453 23.7266 6.81453H11.1912C10.6511 6.81453 10.2162 7.26124 10.2162 7.80743C10.2162 8.35362 10.6511 8.80033 11.1912 8.80033H23.7266C23.9598 8.80033 24.1047 8.92908 24.1718 9.00778C24.2389 9.08778 24.3441 9.25409 24.3101 9.49109L23.203 17.2997C23.1223 17.8639 22.6405 18.2877 22.0852 18.2877H9.35607C8.76462 18.2877 8.28032 17.8352 8.23077 17.2306L7.10731 3.57284C7.07103 3.12412 6.74088 2.75376 6.30285 2.67656L3.87517 2.24678L3.87384 2.24656Z" fill="#1E1E1E"/>
<path d="M9.16005 21.9604C8.12878 21.9604 7.2926 22.8167 7.2926 23.8641C7.2926 24.9116 8.12887 25.7666 9.16005 25.7666C10.1913 25.7666 11.0263 24.9115 11.0263 23.8641C11.0263 22.8168 10.1914 21.9604 9.16005 21.9604Z" fill="#1E1E1E"/>
<path d="M22.2873 21.9604C21.2559 21.9604 20.421 22.8168 20.421 23.8641C20.421 24.9115 21.256 25.7666 22.2873 25.7666C23.3185 25.7666 24.1547 24.9116 24.1547 23.8641C24.1547 22.8167 23.3186 21.9604 22.2873 21.9604Z" fill="#1E1E1E"/>
<path d="M16.0055 12.2084C16.0055 11.6623 16.4391 11.2155 16.9805 11.2155H20.2155C20.7557 11.2155 21.1905 11.6622 21.1905 12.2084C21.1905 12.7545 20.7557 13.2013 20.2155 13.2013H16.9805C16.4391 13.2013 16.0055 12.7545 16.0055 12.2084Z" fill="#1E1E1E"/>
</svg>
