<svg width="28" height="28" viewBox="0 0 28 28" fill="none" xmlns="http://www.w3.org/2000/svg">
    <path fill-rule="evenodd" clip-rule="evenodd" d="M14.0002 2.2334C10.4799 2.2334 7.61459 5.07983 7.61459 8.57954C7.61459 12.0781 10.4799 14.9245 14.0002 14.9245C17.5205 14.9245 20.3846 12.0781 20.3846 8.57954C20.3846 5.07985 17.5205 2.2334 14.0002 2.2334ZM9.5013 8.57958C9.5013 6.11548 11.5187 4.10988 13.9999 4.10988C16.4811 4.10988 18.4984 6.11548 18.4984 8.57958C18.4984 11.0425 16.4811 13.0481 13.9999 13.0481C11.5186 13.0481 9.5013 11.0425 9.5013 8.57958Z" fill="#FE5541"/>
    <path fill-rule="evenodd" clip-rule="evenodd" d="M14.0032 16.979C11.9991 16.979 9.64894 17.0898 7.80028 17.6859C6.87531 17.9841 6.06739 18.4063 5.48985 19.0038C4.90988 19.6039 4.56689 20.3762 4.56689 21.3617C4.56689 21.9521 4.70517 22.6486 5.17447 23.3082C5.64381 23.9679 6.43796 24.5819 7.73409 25.0182C8.22957 25.1878 8.76242 24.9198 8.93034 24.431C9.09747 23.9406 8.83276 23.4088 8.33928 23.2432C7.47408 22.9518 7.00538 22.6082 6.752 22.2796C6.50033 21.9533 6.45276 21.6311 6.45276 21.3617C6.45276 20.5622 7.04203 19.9348 8.30598 19.5039C9.56774 19.0737 11.4663 18.8543 14.0002 18.8543C16.534 18.8543 18.4325 19.0757 19.6941 19.5098C20.9576 19.9444 21.5476 20.5775 21.5476 21.3851C21.5476 22.1839 20.9584 22.8108 19.6944 23.2413C18.4326 23.6711 16.5341 23.8902 14.0002 23.8902C13.6136 23.8902 13.2329 23.8855 12.8583 23.875L12.8548 23.875C12.3565 23.8789 11.905 24.2634 11.8903 24.7852C11.8746 25.3039 12.2846 25.7358 12.8044 25.7491C13.1964 25.7608 13.5954 25.7666 14.0002 25.7666C16.0043 25.7666 18.3514 25.6559 20.2001 25.0599C21.125 24.7617 21.933 24.3397 22.5105 23.7423C23.0905 23.1424 23.4335 22.3703 23.4335 21.3851C23.4335 20.277 22.9798 19.443 22.2654 18.8203C21.5544 18.2005 20.5875 17.7916 19.5578 17.5206C17.5005 16.979 15.1569 16.979 14.0032 16.979Z" fill="#FE5541"/>
</svg>
