<svg width="28" height="28" viewBox="0 0 28 28" fill="none" xmlns="http://www.w3.org/2000/svg">
    <path fill-rule="evenodd" clip-rule="evenodd" d="M14.0001 2.2334C10.4798 2.2334 7.61447 5.07983 7.61447 8.57954C7.61447 12.0781 10.4798 14.9245 14.0001 14.9245C17.5203 14.9245 20.3845 12.0781 20.3845 8.57954C20.3845 5.07985 17.5204 2.2334 14.0001 2.2334ZM9.50118 8.57958C9.50118 6.11548 11.5185 4.10988 13.9997 4.10988C16.4809 4.10988 18.4983 6.11548 18.4983 8.57958C18.4983 11.0425 16.481 13.0481 13.9997 13.0481C11.5185 13.0481 9.50118 11.0425 9.50118 8.57958Z" fill="#1E1E1E"/>
    <path fill-rule="evenodd" clip-rule="evenodd" d="M14.0031 16.979C11.999 16.979 9.64882 17.0898 7.80015 17.6859C6.87519 17.9841 6.06727 18.4063 5.48973 19.0038C4.90976 19.6039 4.56677 20.3762 4.56677 21.3617C4.56677 21.9521 4.70505 22.6486 5.17434 23.3082C5.64369 23.9679 6.43784 24.5819 7.73397 25.0182C8.22945 25.1878 8.76229 24.9198 8.93022 24.431C9.09735 23.9406 8.83264 23.4088 8.33916 23.2432C7.47396 22.9518 7.00526 22.6082 6.75188 22.2796C6.50021 21.9533 6.45263 21.6311 6.45263 21.3617C6.45263 20.5622 7.04191 19.9348 8.30586 19.5039C9.56761 19.0737 11.4662 18.8543 14.0001 18.8543C16.5339 18.8543 18.4324 19.0757 19.694 19.5098C20.9575 19.9444 21.5475 20.5775 21.5475 21.3851C21.5475 22.1839 20.9583 22.8108 19.6943 23.2413C18.4325 23.6711 16.5339 23.8902 14.0001 23.8902C13.6134 23.8902 13.2328 23.8855 12.8582 23.875L12.8546 23.875C12.3563 23.8789 11.9049 24.2634 11.8902 24.7852C11.8745 25.3039 12.2845 25.7358 12.8043 25.7491C13.1963 25.7608 13.5952 25.7666 14.0001 25.7666C16.0042 25.7666 18.3513 25.6559 20.2 25.0599C21.1249 24.7617 21.9328 24.3397 22.5104 23.7423C23.0904 23.1424 23.4333 22.3703 23.4333 21.3851C23.4333 20.277 22.9797 19.443 22.2653 18.8203C21.5543 18.2005 20.5873 17.7916 19.5577 17.5206C17.5004 16.979 15.1568 16.979 14.0031 16.979Z" fill="#1E1E1E"/>
</svg>
