<svg width="28" height="28" viewBox="0 0 28 28" fill="none" xmlns="http://www.w3.org/2000/svg">
    <path fill-rule="evenodd" clip-rule="evenodd" d="M23.6651 14.9614C24.1356 14.9016 24.5 14.4939 24.5 14.0002C24.5 13.4655 24.0724 13.0315 23.5455 13.0315L6.76582 13.0315L12.8278 6.90516L12.9136 6.80621C13.1994 6.42736 13.171 5.88281 12.8304 5.5347C12.4587 5.15625 11.8542 5.15496 11.4813 5.53212L3.78127 13.3144L3.69636 13.4118C3.56717 13.5823 3.5 13.7904 3.5 14.0002C3.5 14.1255 3.52418 14.2508 3.57255 14.3697C3.72018 14.7326 4.06764 14.969 4.45455 14.969H23.5455L23.6651 14.9614ZM12.8305 22.4653C13.2021 22.0856 13.2021 21.4721 12.8279 21.0949L8.58082 16.8027L8.48277 16.716C8.1077 16.4271 7.5724 16.4572 7.23173 16.8053C7.04591 16.9952 6.953 17.2419 6.953 17.4886C6.953 17.7379 7.04591 17.9859 7.23428 18.1757L11.4801 22.4679L11.5782 22.5543C11.9534 22.8423 12.4898 22.8123 12.8305 22.4653Z" fill="#292929"/>
</svg>
