<svg width="16" height="16" viewBox="0 0 16 16" fill="none" xmlns="http://www.w3.org/2000/svg">
    <path d="M11.2393 13.9579C11.3066 13.986 11.3777 14.0001 11.4487 14.0001C11.5923 14.0001 11.7329 13.9438 11.8377 13.8364L14.1382 11.4989C14.3521 11.2811 14.3514 10.9292 14.1368 10.7128C13.9214 10.4965 13.5735 10.4972 13.3597 10.7143L11.9981 12.099V4.36425C11.9981 4.05753 11.7527 3.80859 11.4487 3.80859C11.1455 3.80859 10.8994 4.05753 10.8994 4.36425V13.4445C10.8994 13.6697 11.0334 13.8719 11.2393 13.9579Z" fill="#858585"/>
    <path d="M9.44039 12.1918C9.54806 12.3014 9.68942 12.3555 9.83005 12.3555C9.96994 12.3555 10.1106 12.3014 10.2175 12.1933C10.4328 11.9769 10.4336 11.6257 10.2197 11.4079L9.15035 10.3211C8.93501 10.1032 8.58784 10.1032 8.37324 10.3196C8.1579 10.5359 8.15717 10.8878 8.37104 11.1056L9.44039 12.1918Z" fill="#858585"/>
    <path d="M2.21617 5.84156C2.07627 5.84156 1.93564 5.78747 1.82871 5.6793C1.61337 5.46297 1.61264 5.11179 1.82724 4.89397L2.8966 3.8071C3.1112 3.58929 3.45838 3.58929 3.67371 3.80562C3.88832 4.02196 3.88905 4.37388 3.67518 4.59169L2.60509 5.67782C2.49815 5.78747 2.35679 5.84156 2.21617 5.84156Z" fill="#858585"/>
    <path d="M4.90455 12.1905C4.60132 12.1905 4.35522 11.9415 4.35522 11.6348V2.55536C4.35522 2.33013 4.48926 2.12787 4.69507 2.04193C4.89942 1.95673 5.13673 2.00341 5.29347 2.16343L7.98151 4.89357C8.19611 5.11139 8.19538 5.46331 7.98005 5.67964C7.76471 5.89598 7.41754 5.89598 7.20367 5.67816L5.45388 3.90153V11.6348C5.45388 11.9415 5.20778 12.1905 4.90455 12.1905Z" fill="#858585"/>
</svg>
