<svg width="16" height="16" viewBox="0 0 16 16" fill="none" xmlns="http://www.w3.org/2000/svg">
    <path fill-rule="evenodd" clip-rule="evenodd" d="M5.16278 2.82861C4.94639 3.04295 4.9449 3.39045 5.16426 3.60479L8.40789 6.78123L8.46519 6.83017C8.68443 6.99323 8.99782 6.97619 9.19686 6.77903C9.30468 6.67223 9.35971 6.53177 9.35971 6.39204C9.35971 6.25158 9.30468 6.11039 9.19537 6.00358L5.95175 2.82641L5.89444 2.77747C5.6752 2.61441 5.36182 2.63145 5.16278 2.82861ZM5.11391 12.4524C4.94653 12.6675 4.96431 12.9759 5.16266 13.1724C5.3798 13.3867 5.73301 13.3874 5.95163 13.1731L10.8357 8.38868L10.8858 8.33262C10.9618 8.23503 11 8.11788 11 8.00022C11 7.86049 10.945 7.72003 10.8371 7.61322C10.62 7.39815 10.2668 7.39741 10.0482 7.61176L5.16415 12.3962L5.11391 12.4524Z" fill="#858585"/>
</svg>
