<svg width="36" height="36" viewBox="0 0 36 36" fill="none" xmlns="http://www.w3.org/2000/svg">
    <path fill-rule="evenodd" clip-rule="evenodd" d="M5.91953 19.6118C5.03453 18.7265 5.03453 17.2861 5.91953 16.3873L6.99953 15.3054C7.85453 14.4516 8.31953 13.3263 8.31953 12.1244V10.5789C8.31953 9.33346 9.33953 8.31313 10.5845 8.31313H12.1295C13.3295 8.31313 14.4545 7.84798 15.3095 6.9927L16.3895 5.91234C17.2595 5.04206 18.6845 5.02706 19.5845 5.88384L19.5992 5.89726C19.6031 5.90091 19.6068 5.90466 19.6145 5.91234C19.8095 6.0924 20.0795 6.21244 20.3795 6.21244C20.9945 6.21244 21.5045 5.71728 21.5045 5.08708C21.5045 4.78698 21.3845 4.51689 21.1895 4.30682C21.1295 4.2468 21.0695 4.20179 21.0095 4.15677C19.2395 2.55125 16.4945 2.62627 14.7995 4.32333L13.7195 5.40218C13.2995 5.82382 12.7295 6.06239 12.1295 6.06239H10.5845C8.09453 6.06239 6.06953 8.08805 6.06953 10.5789V12.1244C6.06953 12.7246 5.82953 13.2948 5.40953 13.7149L4.31453 14.8102C2.55953 16.5808 2.55953 19.4483 4.32953 21.2038C4.55453 21.4274 4.83953 21.5324 5.12453 21.5324C5.40953 21.5324 5.70953 21.4124 5.91953 21.2038C6.35453 20.7522 6.35453 20.047 5.91953 19.6118ZM30.5923 13.7195L31.6693 14.7969C32.5228 15.6447 32.9953 16.7775 32.9998 17.9854C33.0028 19.1933 32.5363 20.3292 31.6858 21.1845L30.5908 22.2798C30.1738 22.7 29.9338 23.2807 29.9323 23.8764V25.4174C29.9323 27.9082 27.9058 29.9353 25.4158 29.9353C24.7948 29.9353 24.2908 29.4312 24.2908 28.81C24.2908 28.1888 24.7948 27.6846 25.4158 27.6846C26.6668 27.6846 27.6823 26.6673 27.6823 25.4174V23.8749C27.6838 22.6715 28.1503 21.5401 28.9978 20.6908L30.0778 19.609C30.5173 19.1678 30.7513 18.5976 30.7498 17.9914C30.7483 17.3867 30.5098 16.8181 30.0808 16.3904L28.9993 15.3086C28.1503 14.4533 27.6838 13.3234 27.6823 12.123V10.579C27.6823 9.32761 26.6668 8.31178 25.4158 8.31178C24.7948 8.31178 24.2908 7.80762 24.2908 7.18641C24.2908 6.56521 24.7948 6.06105 25.4158 6.06105C27.9058 6.06105 29.9323 8.08671 29.9323 10.579V12.1215C29.9338 12.7232 30.1678 13.2919 30.5923 13.7195ZM17.9992 30.7521C18.6142 30.7761 19.1782 30.5166 19.6072 30.0829C20.0452 29.6448 20.7577 29.6403 21.1987 30.0784C21.6382 30.5181 21.6397 31.2308 21.2017 31.6719C20.3212 32.5572 19.1602 32.9999 17.9992 32.9999C16.8472 32.9999 15.6937 32.5632 14.8147 31.6884L13.7197 30.5931C13.2952 30.1714 12.7267 29.9359 12.1222 29.9344H10.5832C8.09315 29.9344 6.06665 27.9087 6.06665 25.4179C6.06665 24.7967 6.57065 24.2925 7.19165 24.2925C7.81265 24.2925 8.31665 24.7967 8.31665 25.4179C8.31665 26.6678 9.33215 27.6836 10.5832 27.6836H12.1252C13.3267 27.6851 14.4577 28.1533 15.3082 28.9981L16.3897 30.0814C16.8277 30.5181 17.3962 30.7521 17.9992 30.7521ZM13.3493 21.0582C12.9098 21.4978 12.9098 22.2106 13.3493 22.6502C13.5683 22.8693 13.8563 22.9788 14.1443 22.9788C14.4323 22.9788 14.7203 22.8693 14.9408 22.6502L22.6493 14.9377C23.0888 14.4981 23.0888 13.7853 22.6493 13.3457C22.2098 12.906 21.4988 12.906 21.0593 13.3457L13.3493 21.0582ZM14.1314 12.8628C14.8499 12.8628 15.4334 13.4465 15.4334 14.1652C15.4334 14.884 14.8499 15.4661 14.1314 15.4661C13.4129 15.4661 12.8294 14.884 12.8294 14.1652C12.8294 13.4465 13.4129 12.8628 14.1314 12.8628ZM21.8548 20.5555C22.5733 20.5555 23.1568 21.1392 23.1568 21.858C23.1568 22.5767 22.5733 23.1604 21.8548 23.1604C21.1348 23.1604 20.5528 22.5767 20.5528 21.858C20.5528 21.1392 21.1348 20.5555 21.8548 20.5555Z" fill="#1E1E1E"/>
</svg>
