<svg width="24" height="24" viewBox="0 0 24 24" fill="none" xmlns="http://www.w3.org/2000/svg">
    <path d="M0.5 11.9999C0.5 5.6486 5.64873 0.499878 12 0.499878C18.3513 0.499878 23.5 5.6486 23.5 11.9999C23.5 18.3512 18.3513 23.4999 12 23.4999C5.64873 23.4999 0.5 18.3512 0.5 11.9999Z" fill="#FE5541" stroke="white"/>
    <path d="M17.4758 10.1779L11.0216 16.6512C10.686 16.9773 10.2448 17.1595 9.7845 17.1595H7.53082C7.40614 17.1595 7.29106 17.1115 7.20475 17.0252C7.11844 16.9389 7.08008 16.8238 7.08008 16.6992L7.13762 14.4263C7.14721 13.9756 7.32942 13.5536 7.6459 13.2372L12.2204 8.66268C12.2971 8.58596 12.4314 8.58596 12.5081 8.66268L14.1097 10.2546C14.2152 10.3601 14.3686 10.4273 14.5316 10.4273C14.8865 10.4273 15.1646 10.1396 15.1646 9.79431C15.1646 9.62169 15.0974 9.46825 14.992 9.35317C14.9632 9.31481 13.4384 7.79958 13.4384 7.79958C13.3424 7.70368 13.3424 7.54064 13.4384 7.44474L14.0809 6.79262C14.6755 6.19803 15.6345 6.19803 16.2291 6.79262L17.4758 8.03933C18.0608 8.62432 18.0608 9.58333 17.4758 10.1779Z" fill="white"/>
</svg>
