<svg width="28" height="28" viewBox="0 0 28 28" fill="none" xmlns="http://www.w3.org/2000/svg">
    <path fill-rule="evenodd" clip-rule="evenodd" d="M23.1299 13.1943C23.6036 13.9073 23.8753 14.7334 23.9166 15.5862L23.8855 15.8017C23.9212 16.9688 23.5317 18.1095 22.7884 19.0148C21.8391 20.0391 20.5413 20.679 19.1449 20.8113C15.7052 21.1889 12.234 21.1889 8.79424 20.8113C7.41822 20.67 6.14308 20.0304 5.2129 19.0148C4.4573 18.1225 4.05612 16.9872 4.08468 15.8223V15.6786C4.14158 14.8002 4.43466 13.9531 4.93343 13.2251L5.01624 13.1225C5.53495 12.5387 5.89165 11.8312 6.05131 11.0694V10.1866V8.9547C6.19808 8.58385 6.57712 8.35644 6.97646 8.39965C7.37579 8.44285 7.69647 8.74596 7.75917 9.13948V10.166V11.2542C7.7632 11.2917 7.7632 11.3295 7.75917 11.3671C7.54365 12.4261 7.05104 13.4103 6.33078 14.2209C6.0534 14.6591 5.89639 15.1616 5.87535 15.6786V15.9044C5.85237 16.6315 6.09497 17.3424 6.55849 17.9062C7.20113 18.5645 8.0605 18.9724 8.98055 19.0559C12.3105 19.4152 15.67 19.4152 19 19.0559C19.9452 18.9699 20.8256 18.5424 21.4738 17.8548C21.9146 17.3043 22.1455 16.6173 22.1259 15.9147V15.6786C22.1047 15.1599 21.9516 14.6549 21.6808 14.2106C20.9306 13.4093 20.409 12.4243 20.1696 11.3568C20.1656 11.3193 20.1656 11.2814 20.1696 11.2439V10.1455V9.11895C19.8695 6.01879 16.7539 4.09915 14.042 4.09915C12.8891 4.09652 11.7551 4.39006 10.7505 4.95118C10.4724 5.11702 10.1252 5.11957 9.84462 4.95783C9.56401 4.7961 9.3944 4.49571 9.40198 4.17392C9.40956 3.85212 9.59314 3.55993 9.88106 3.41137C11.1259 2.71391 12.5295 2.34293 13.9592 2.3335C17.5406 2.3335 21.5566 4.85879 22.0121 8.91364V10.125V11.0283C22.1675 11.7916 22.5248 12.5001 23.0471 13.0814C23.0781 13.1165 23.1058 13.1543 23.1299 13.1943ZM14.2934 23.8361C14.9016 23.7456 15.4483 23.418 15.812 22.926H15.8224C16.1368 22.549 16.6998 22.4962 17.08 22.808C17.4601 23.1198 17.5134 23.6782 17.199 24.0552C16.4239 25.0605 15.2248 25.6551 13.9489 25.6669C12.6766 25.6519 11.482 25.0576 10.7091 24.0552C10.3947 23.6782 10.448 23.1198 10.8282 22.808C11.2083 22.4962 11.7714 22.549 12.0858 22.926C12.2238 23.1091 12.3877 23.2716 12.5722 23.4085C13.0656 23.7728 13.6851 23.9267 14.2934 23.8361Z" fill="#1E1E1E"/>
</svg>
