<svg width="36" height="36" viewBox="0 0 36 36" fill="none" xmlns="http://www.w3.org/2000/svg">
    <rect x="0.675" y="0.675" width="34.65" height="34.65" rx="17.325" stroke="#D6D6D6" stroke-width="1.35"/>
    <path d="M17.999 11.3115C17.2229 11.3115 16.593 12.0072 16.593 12.8643V16.386H13.406C12.6299 16.386 12 17.0817 12 17.9388C12 18.796 12.6299 19.4916 13.406 19.4916H16.593V23.0113C16.593 23.8684 17.2229 24.5641 17.999 24.5641C18.7752 24.5641 19.4051 23.8684 19.4051 23.0113V19.4916H22.5939C23.3701 19.4916 24 18.796 24 17.9388C24 17.0817 23.3701 16.386 22.5939 16.386H19.4051V12.8643C19.4051 12.0072 18.7752 11.3115 17.999 11.3115Z" fill="#858585"/>
</svg>
