<svg width="28" height="28" viewBox="0 0 28 28" fill="none" xmlns="http://www.w3.org/2000/svg">
    <path fill-rule="evenodd" clip-rule="evenodd" d="M5.07123 10.2224C5.07123 10.7029 4.67223 11.0941 4.18223 11.0941C3.69223 11.0941 3.2944 10.7029 3.2944 10.2224V8.05328C3.2944 5.54554 5.37457 3.50343 7.93073 3.50114L9.83123 3.5H9.8324C10.3224 3.5 10.7202 3.89012 10.7202 4.37176C10.7202 4.85226 10.3236 5.24237 9.8324 5.24237L7.93307 5.24352C6.35457 5.24581 5.07123 6.50539 5.07123 8.05328V10.2224ZM18.201 5.2418H20.0595C21.6427 5.2418 22.9307 6.50482 22.9307 8.05728V10.223C22.9307 10.7023 23.3285 11.0936 23.8185 11.0936C24.3085 11.0936 24.7064 10.7023 24.7064 10.223V8.05728C24.7064 5.54383 22.6227 3.50057 20.0595 3.50057H18.201C17.711 3.50057 17.3132 3.88954 17.3132 4.37118C17.3132 4.85168 17.711 5.2418 18.201 5.2418ZM25.9456 14.0479H2.05458C1.56575 14.0479 1.16675 14.438 1.16675 14.9196C1.16675 15.4001 1.56575 15.7902 2.05458 15.7902H3.29358V19.9454C3.29358 22.4543 5.37492 24.4964 7.93225 24.4987L9.83158 24.4998C10.3227 24.4998 10.7194 24.1097 10.7206 23.628C10.7206 23.1476 10.3227 22.7574 9.83275 22.7574L7.93342 22.7563C6.35492 22.754 5.07042 21.4944 5.07042 19.9454V15.7902H22.9309V19.9419C22.9309 21.4956 21.6429 22.7574 20.0598 22.7574H18.2013C17.7113 22.7574 17.3134 23.1476 17.3134 23.628C17.3134 24.1097 17.7113 24.4998 18.2013 24.4998H20.0598C22.6218 24.4998 24.7066 22.4566 24.7066 19.9419V15.7902H25.9456C26.4356 15.7902 26.8334 15.4001 26.8334 14.9196C26.8334 14.438 26.4356 14.0479 25.9456 14.0479ZM11.8322 11.0939H16.1687C16.6598 11.0939 17.0577 10.7027 17.0577 10.2222C17.0577 9.74168 16.6598 9.35156 16.1687 9.35156H11.8322C11.3422 9.35156 10.9443 9.74168 10.9443 10.2222C10.9443 10.7027 11.3422 11.0939 11.8322 11.0939ZM11.8325 18.4029H16.169C16.659 18.4029 17.0569 18.793 17.0569 19.2735C17.0569 19.7552 16.659 20.1441 16.169 20.1441H11.8325C11.3414 20.1441 10.9435 19.7552 10.9435 19.2735C10.9435 18.793 11.3414 18.4029 11.8325 18.4029Z" fill="#1E1E1E"/>
</svg>
