<svg width="20" height="20" viewBox="0 0 20 20" fill="none" xmlns="http://www.w3.org/2000/svg">
    <path d="M18.1297 17.1719L15.2652 14.3714L15.1981 14.2693C15.0732 14.145 14.9025 14.075 14.7244 14.075C14.5462 14.075 14.3755 14.145 14.2507 14.2693C11.8163 16.5026 8.0652 16.624 5.48509 14.5529C2.90497 12.4819 2.29647 8.86097 4.06315 6.09164C5.82983 3.32231 9.42347 2.26388 12.4608 3.61828C15.4981 4.97269 17.0366 8.31966 16.0559 11.4395C15.9853 11.6649 16.043 11.91 16.2074 12.0825C16.3717 12.255 16.6177 12.3286 16.8526 12.2757C17.0876 12.2228 17.2758 12.0514 17.3464 11.826C18.5187 8.12371 16.7482 4.13947 13.1802 2.45072C9.61216 0.761972 5.31745 1.87552 3.07429 5.07102C0.83114 8.26651 1.31273 12.585 4.20752 15.2328C7.10232 17.8805 11.5416 18.0631 14.6535 15.6623L17.1898 18.1419C17.4517 18.3969 17.8752 18.3969 18.1372 18.1419C18.3988 17.8833 18.3988 17.467 18.1372 17.2084L18.1297 17.1719Z" fill="#858585"/>
</svg>
