<svg width="24" height="24" viewBox="0 0 24 24" fill="none" xmlns="http://www.w3.org/2000/svg">
    <path d="M13.9611 15.4589C13.9611 15.2635 13.8806 15.0767 13.7385 14.9426C13.5963 14.8085 13.4052 14.7388 13.2101 14.7501C10.2215 14.9231 6.66423 17.2006 4.14148 21.1743C4.08991 21.2555 4.01635 21.29 3.95019 21.29C3.85114 21.29 3.71 21.1947 3.71 21.0002C3.71 18.2886 4.09281 15.2444 5.4866 12.6755C6.86191 10.1406 9.24943 8.01384 13.3971 7.14249C13.7258 7.07344 13.9611 6.78352 13.9611 6.44766V4.37246C13.9611 4.05488 14.1347 3.84568 14.3405 3.75699C14.5418 3.6702 14.7735 3.69504 14.9621 3.89661L21.1402 10.4995C21.3399 10.7129 21.3399 11.0694 21.1402 11.2829L14.9621 17.8857C14.7735 18.0873 14.5418 18.1121 14.3405 18.0253C14.1347 17.9367 13.9611 17.7275 13.9611 17.4099V15.4589Z" stroke="#858585" stroke-width="1.42" stroke-linejoin="round"/>
</svg>
