<svg width="28" height="28" viewBox="0 0 28 28" fill="none" xmlns="http://www.w3.org/2000/svg">
    <path d="M5.83407 11.0834H3.81576C3.49359 11.0834 3.23242 11.3445 3.23242 11.6667V15.75C3.23242 16.0722 3.49359 16.3334 3.81576 16.3334H5.83407M5.83407 16.3334V16.6017C5.83407 20.7899 9.22924 24.185 13.4174 24.185H18.2416C18.4767 24.185 18.6674 23.9944 18.6674 23.7592C18.6674 23.524 18.4767 23.3334 18.2416 23.3334H15.7507M5.83407 16.3334V11.3984C5.83407 7.21024 9.22924 3.81506 13.4174 3.81506H14.5841C18.7722 3.81506 22.1674 7.21024 22.1674 11.3984V15.75C22.1674 16.0722 22.4286 16.3334 22.7507 16.3334H24.1857C24.5079 16.3334 24.7691 16.0722 24.7691 15.75V11.6667C24.7691 11.3445 24.5079 11.0834 24.1857 11.0834H22.1674" stroke="#1E1E1E" stroke-width="1.79667" stroke-linecap="round"/>
</svg>
