<svg width="28" height="28" viewBox="0 0 28 28" fill="none" xmlns="http://www.w3.org/2000/svg">
    <mask id="mask0_3949_31808" style="mask-type:luminance" maskUnits="userSpaceOnUse" x="2" y="1" width="24" height="26">
        <path fill-rule="evenodd" clip-rule="evenodd" d="M2.9165 1.8667H25.4155V26.0412H2.9165V1.8667Z" fill="white"/>
    </mask>
    <g mask="url(#mask0_3949_31808)">
        <path fill-rule="evenodd" clip-rule="evenodd" d="M8.98582 19.88C9.25299 19.88 9.52015 19.9138 9.78149 19.9838C10.5702 20.1961 11.255 20.7235 11.661 21.4316C11.9247 21.8761 12.0705 22.3953 12.0752 22.925C12.0752 23.6833 12.6842 24.2911 13.4332 24.2911H14.895C15.6405 24.2911 16.2495 23.6868 16.253 22.9413C16.2483 22.1176 16.5703 21.3348 17.1595 20.7456C17.7405 20.1646 18.5525 19.8158 19.3645 19.8391C19.8965 19.852 20.4087 19.9955 20.8602 20.2521C21.51 20.6243 22.3395 20.4026 22.7152 19.761L23.4898 18.4695C23.6625 18.172 23.7127 17.7986 23.6205 17.4545C23.5295 17.1103 23.3008 16.8116 22.9928 16.6355C22.2718 16.2201 21.7573 15.5505 21.5438 14.7478C21.3327 13.9603 21.4482 13.1005 21.86 12.3923C22.1283 11.9256 22.5215 11.5325 22.9928 11.2618C23.6252 10.892 23.8468 10.0648 23.4793 9.42081C23.4642 9.39514 23.4502 9.36831 23.4385 9.34031L22.7548 8.15497C22.3827 7.50747 21.5543 7.28464 20.9045 7.65447C20.2022 8.06981 19.3668 8.18881 18.5642 7.97764C17.7627 7.76997 17.0907 7.26247 16.6718 6.54614C16.4035 6.09814 16.2577 5.57664 16.253 5.04581C16.2635 4.64681 16.1235 4.28864 15.8692 4.02614C15.616 3.76481 15.2602 3.61664 14.895 3.61664H13.4332C13.0715 3.61664 12.7332 3.75781 12.4777 4.01214C12.2233 4.26764 12.0845 4.60714 12.0868 4.96881C12.0623 6.67447 10.6682 8.04764 8.97999 8.04764C8.43865 8.04181 7.91715 7.89597 7.46449 7.62531C6.82865 7.26364 5.99799 7.48647 5.62582 8.13397L4.83599 9.43247C4.47432 10.0601 4.69599 10.8896 5.33999 11.2641C6.29549 11.8171 6.89165 12.8485 6.89165 13.9545C6.89165 15.0605 6.29549 16.0906 5.33765 16.6448C4.69715 17.0158 4.47549 17.8406 4.84649 18.4823L5.58265 19.7516C5.76465 20.0795 6.06215 20.3163 6.40632 20.4131C6.74932 20.5088 7.12732 20.468 7.44232 20.293C7.90549 20.0211 8.44449 19.88 8.98582 19.88ZM14.895 26.0412H13.4332C11.7194 26.0412 10.3252 24.6482 10.3252 22.9344C10.3229 22.7232 10.2622 22.5039 10.149 22.3137C9.96588 21.994 9.66954 21.7654 9.32771 21.6744C8.98821 21.5834 8.61604 21.6335 8.31038 21.8109C7.57771 22.2192 6.71554 22.3184 5.92688 22.0967C5.13938 21.8739 4.45921 21.3325 4.06021 20.615L3.33104 19.3585C2.47821 17.8792 2.98571 15.9834 4.46271 15.1294C4.88154 14.8879 5.14171 14.4375 5.14171 13.9545C5.14171 13.4715 4.88154 13.02 4.46271 12.7785C2.98454 11.9199 2.47821 10.0194 3.32988 8.54003L4.12088 7.24153C4.96204 5.77853 6.86371 5.26287 8.34654 6.11453C8.54838 6.2347 8.76771 6.29537 8.99054 6.2977C9.71738 6.2977 10.3252 5.69803 10.3369 4.9607C10.3322 4.14753 10.653 3.36703 11.2375 2.77787C11.8244 2.18987 12.6037 1.8667 13.4332 1.8667H14.895C15.7304 1.8667 16.5424 2.2097 17.1245 2.80587C17.7055 3.40553 18.0264 4.22803 18.0019 5.0622C18.0042 5.25003 18.066 5.46703 18.178 5.6572C18.3635 5.9722 18.6564 6.19387 19.004 6.28487C19.3517 6.3712 19.7157 6.32453 20.0249 6.14137C21.5182 5.28853 23.4187 5.79953 24.2715 7.2812L24.9984 8.54003C25.017 8.57387 25.0334 8.60653 25.0474 8.64037C25.8197 10.0999 25.304 11.9374 23.869 12.7762C23.6602 12.8964 23.491 13.0644 23.3744 13.2674C23.1935 13.5812 23.1434 13.9545 23.2344 14.2975C23.3277 14.6475 23.5505 14.938 23.8644 15.1177C24.5725 15.5249 25.101 16.2109 25.3122 17.003C25.5234 17.794 25.4079 18.6527 24.996 19.3609L24.2214 20.6512C23.3685 22.1165 21.468 22.624 19.9899 21.77C19.7927 21.6569 19.5652 21.595 19.3389 21.5892H19.3319C18.9947 21.5892 18.6482 21.7327 18.3962 21.9835C18.1407 22.239 18.0007 22.5797 18.003 22.9414C17.9949 24.6552 16.6007 26.0412 14.895 26.0412Z" fill="#1E1E1E"/>
    </g>
    <path fill-rule="evenodd" clip-rule="evenodd" d="M14.1695 11.7531C12.9562 11.7531 11.9692 12.7413 11.9692 13.9546C11.9692 15.1679 12.9562 16.1538 14.1695 16.1538C15.3828 16.1538 16.3698 15.1679 16.3698 13.9546C16.3698 12.7413 15.3828 11.7531 14.1695 11.7531ZM14.1696 17.9038C11.9914 17.9038 10.2192 16.1328 10.2192 13.9547C10.2192 11.7765 11.9914 10.0032 14.1696 10.0032C16.3477 10.0032 18.1199 11.7765 18.1199 13.9547C18.1199 16.1328 16.3477 17.9038 14.1696 17.9038Z" fill="#1E1E1E"/>
</svg>
