<svg width="20" height="16" viewBox="0 0 20 16" fill="none" xmlns="http://www.w3.org/2000/svg">
    <path fill-rule="evenodd" clip-rule="evenodd" d="M20 6.03839C20 6.42724 19.675 6.74282 19.2745 6.74282C18.5616 6.74282 17.9812 7.30731 17.9812 7.99953C17.9812 8.69175 18.5616 9.2553 19.2745 9.2553C19.467 9.2553 19.6518 9.3295 19.7872 9.46193C19.9236 9.59342 20 9.77376 20 9.95973L19.999 12.3257C19.999 14.3526 18.3014 16 16.214 16H3.78603C1.69956 16 0.00193461 14.3526 0.00193461 12.3257L0 9.88365C0 9.69768 0.0764171 9.51735 0.212807 9.38491C0.349197 9.25342 0.532985 9.17922 0.725479 9.17922C1.46257 9.17922 2.01877 8.67203 2.01877 7.99953C2.01877 7.30731 1.43935 6.74282 0.725479 6.74282C0.325015 6.74282 0 6.42724 0 6.03839V3.67432C0 1.64837 1.69762 0 3.7841 0H5.00967C5.41014 0 5.73515 0.315586 5.73515 0.704432C5.73515 1.09328 5.41014 1.40886 5.00967 1.40886H3.7841C2.49758 1.40886 1.45096 2.42512 1.45096 3.67432V5.42882C2.61366 5.73877 3.46972 6.77288 3.46972 7.99953C3.46972 9.21303 2.6272 10.2068 1.45192 10.4998L1.45289 12.3257C1.45289 13.5749 2.49952 14.5911 3.78603 14.5911H11.0273V13.3936C11.0273 13.0048 11.3523 12.6892 11.7528 12.6892C12.1532 12.6892 12.4782 13.0048 12.4782 13.3936V14.5911H16.214C17.5015 14.5911 18.5481 13.5749 18.5481 12.3257L18.549 10.5693C17.3863 10.2593 16.5303 9.22524 16.5303 7.99953C16.5303 6.77288 17.3863 5.73877 18.549 5.42882V3.67432C18.549 2.42512 17.5024 1.40886 16.2159 1.40886H12.4782V2.97834C12.4782 3.36719 12.1532 3.68277 11.7528 3.68277C11.3523 3.68277 11.0273 3.36719 11.0273 2.97834V1.40886H9.06365C8.66318 1.40886 8.33817 1.09328 8.33817 0.704432C8.33817 0.315586 8.66318 0 9.06365 0H16.2159C18.3024 0 20 1.64837 20 3.67432V6.03839ZM12.4783 10.1678C12.4783 10.5566 12.1533 10.8722 11.7529 10.8722C11.3524 10.8722 11.0274 10.5566 11.0274 10.1678V6.4108C11.0274 6.02196 11.3524 5.70637 11.7529 5.70637C12.1533 5.70637 12.4783 6.02196 12.4783 6.4108V10.1678Z" fill="#FE5541"/>
</svg>
