<svg width="28" height="28" viewBox="0 0 28 28" fill="none" xmlns="http://www.w3.org/2000/svg">
    <path fill-rule="evenodd" clip-rule="evenodd" d="M8.91515 25.6668H19.085C23.0213 25.6668 25.6673 22.9042 25.6673 18.7917L25.6662 17.1408C25.6662 16.8935 25.5542 16.6602 25.3605 16.505C25.1048 16.3012 24.8423 16.0735 24.573 15.8398L24.5625 15.8307L24.5545 15.8238C23.1139 14.579 21.3232 13.0316 19.0733 13.5557C17.4428 13.9342 16.6064 15.1683 15.8689 16.2566L15.865 16.2623L15.8635 16.2645C15.374 16.9882 14.9123 17.6709 14.2678 18.0683C13.6343 18.4627 12.8807 18.1815 11.8027 17.7102L11.6195 17.6285C9.65248 16.7722 8.03898 17.0183 6.68448 18.3833C6.36832 18.7018 6.37065 19.2187 6.68915 19.5348C7.00765 19.8533 7.52332 19.8487 7.83948 19.5302C8.71098 18.6517 9.61865 18.5327 10.9697 19.123L11.1493 19.2012L11.1511 19.2019C12.2359 19.6755 13.7191 20.323 15.1242 19.4532C16.0657 18.8698 16.649 18.0088 17.2125 17.1758L17.2129 17.1752C17.8661 16.2106 18.4307 15.3768 19.442 15.1423C20.889 14.8077 22.2125 15.9519 23.4952 17.0609L23.4973 17.0627C23.5161 17.079 23.535 17.0953 23.5537 17.1115C23.7176 17.2536 23.8795 17.3939 24.0387 17.5258V18.7917C24.0387 21.9802 22.0938 24.0382 19.085 24.0382H8.91515C5.90632 24.0382 3.96148 21.9802 3.96148 18.7917V9.20866C3.96148 6.02016 5.90632 3.96216 8.91515 3.96216H19.0862C22.095 3.96216 24.0387 6.02016 24.0387 9.20866V11.9737C24.0387 12.4228 24.4038 12.788 24.853 12.788C25.3022 12.788 25.6673 12.4228 25.6673 11.9737V9.20866C25.6673 5.09616 23.0225 2.3335 19.0862 2.3335H8.91515C4.97882 2.3335 2.33398 5.09616 2.33398 9.20866V18.7917C2.33398 22.9042 4.97882 25.6668 8.91515 25.6668ZM10.3297 13.2291C8.68355 13.2291 7.34538 11.8898 7.34538 10.2436C7.34538 8.59861 8.68355 7.25928 10.3297 7.25928C11.9759 7.25928 13.314 8.59861 13.314 10.2436C13.314 11.8898 11.9759 13.2291 10.3297 13.2291ZM10.3292 8.88794C9.58133 8.88794 8.97233 9.49577 8.97233 10.2436C8.97233 10.9926 9.58133 11.6004 10.3292 11.6004C11.0782 11.6004 11.686 10.9926 11.686 10.2436C11.686 9.49577 11.0782 8.88794 10.3292 8.88794Z" fill="#292929"/>
</svg>
