<svg width="28" height="28" viewBox="0 0 28 28" fill="none" xmlns="http://www.w3.org/2000/svg">
    <path fill-rule="evenodd" clip-rule="evenodd" d="M24.3372 9.48766C25.175 10.1615 25.6668 11.1751 25.6775 12.2502L25.6673 21.0524C25.6673 23.6009 23.6014 25.6668 21.0529 25.6668H6.94839C4.40226 25.6612 2.33961 23.6086 2.33398 21.0625V12.2502C2.35026 11.1672 2.85861 10.1505 3.71524 9.48766L5.17598 8.29358C5.57588 8.10506 6.05331 8.22734 6.31334 8.58489C6.57338 8.94243 6.54261 9.43432 6.24005 9.75668L4.79977 10.9303C4.40709 11.2565 4.17865 11.7396 4.17565 12.2502V21.0522C4.18686 22.5772 5.42334 23.8196 6.94839 23.8252H21.1041C22.6298 23.8252 23.8666 22.5884 23.8666 21.0627V12.2706C23.8591 11.7514 23.6187 11.2631 23.2118 10.9405L15.5201 4.72298C14.6285 3.98901 13.3421 3.98901 12.4506 4.72298L10.1792 6.42141C9.75825 6.72372 9.17191 6.62752 8.86959 6.20654C8.56728 5.78557 8.66348 5.19923 9.08446 4.89691L11.3251 3.27011C12.8788 2.02129 15.0919 2.02129 16.6455 3.27011L24.3372 9.48766ZM14.0007 10.2085C14.4839 10.2085 14.8757 10.6002 14.8757 11.0835V14.2918H18.084C18.5672 14.2918 18.959 14.6836 18.959 15.1668C18.959 15.6501 18.5672 16.0418 18.084 16.0418H14.8757V19.2502C14.8757 19.7334 14.4839 20.1252 14.0007 20.1252C13.5174 20.1252 13.1257 19.7334 13.1257 19.2502V16.0418H9.91732C9.43407 16.0418 9.04232 15.6501 9.04232 15.1668C9.04232 14.6836 9.43407 14.2918 9.91732 14.2918H13.1257V11.0835C13.1257 10.6002 13.5174 10.2085 14.0007 10.2085Z" fill="#292929"/>
</svg>
