<svg width="24" height="24" viewBox="0 0 24 24" fill="none" xmlns="http://www.w3.org/2000/svg">
    <path d="M19.0572 4.93874C15.1629 1.04297 8.83482 1.04297 4.94049 4.93773C1.03887 8.83978 1.04571 15.1622 4.94049 19.0574C7.99031 22.1076 12.5076 22.7691 16.2075 21.058C16.2203 21.0521 16.2333 21.0465 16.2465 21.0412C16.8529 20.797 17.5356 20.8373 18.1119 20.9299C18.6653 21.0188 19.252 21.1808 19.7707 21.324L19.8794 21.3539C20.4552 21.5125 20.9275 21.6364 21.3052 21.6764C21.4814 21.6951 21.5875 21.6897 21.647 21.6815C21.6591 21.5994 21.6656 21.4801 21.6595 21.3198C21.6451 20.9438 21.5673 20.4678 21.459 19.9764C21.3523 19.4921 21.2233 19.0247 21.1201 18.6761C21.0687 18.5025 20.9758 18.2117 20.9444 18.1133C20.7957 17.6728 21.0323 17.1952 21.4728 17.0464C21.9133 16.8977 22.3911 17.1345 22.5399 17.575L22.5414 17.5797C22.5774 17.6922 22.6802 18.014 22.7347 18.198C22.8448 18.5699 22.9853 19.0781 23.1034 19.6141C23.22 20.143 23.3221 20.732 23.3421 21.2555C23.3521 21.5166 23.3432 21.7931 23.2912 22.0525C23.2415 22.3003 23.1346 22.6228 22.8784 22.879C22.3568 23.4 21.6266 23.4038 21.1278 23.3509C20.5877 23.2937 19.9777 23.1276 19.4323 22.9774L19.3506 22.9549C18.8054 22.8046 18.303 22.6661 17.8447 22.5925C17.3619 22.5149 17.0611 22.5343 16.8903 22.5975C12.577 24.5803 7.30979 23.8085 3.74975 20.248C-0.801758 15.696 -0.810144 8.30752 3.74975 3.74712C8.30165 -0.805282 15.6961 -0.805166 20.2481 3.74829C22.9774 6.47703 24.0688 10.2127 23.5351 13.7491C23.4657 14.2089 23.0367 14.5253 22.5769 14.4559C22.1172 14.3865 21.8007 13.9576 21.8701 13.4978C22.3275 10.467 21.3921 7.27316 19.0572 4.93874Z" fill="#292929"/>
</svg>
