<svg width="24" height="24" viewBox="0 0 24 24" fill="none" xmlns="http://www.w3.org/2000/svg">
    <path d="M4.94254 4.93898C8.83688 1.04322 15.1649 1.04322 19.0593 4.93797C22.9609 8.84002 22.954 15.1625 19.0593 19.0577C16.0094 22.1078 11.4922 22.7694 7.79225 21.0583C7.77941 21.0523 7.76642 21.0467 7.7533 21.0414C7.14686 20.7973 6.46416 20.8376 5.8879 20.9302C5.33443 21.0191 4.74776 21.181 4.22906 21.3242L4.12038 21.3542C3.54455 21.5128 3.07224 21.6367 2.69457 21.6767C2.51837 21.6953 2.41221 21.6899 2.35271 21.6817C2.34062 21.5996 2.33412 21.4803 2.34025 21.32C2.35462 20.944 2.43249 20.468 2.54075 19.9766C2.64746 19.4923 2.77643 19.025 2.87966 18.6764C2.93106 18.5028 3.02394 18.2119 3.05536 18.1136C3.20401 17.6731 2.96746 17.1954 2.52696 17.0467C2.08641 16.8979 1.60861 17.1347 1.45986 17.5753L1.45837 17.5799C1.4224 17.6925 1.3196 18.0142 1.26509 18.1983C1.15498 18.5701 1.01442 19.0783 0.896327 19.6143C0.779796 20.1432 0.677612 20.7323 0.657611 21.2557C0.647635 21.5168 0.656596 21.7934 0.70858 22.0527C0.758252 22.3005 0.865191 22.623 1.1214 22.8793C1.64298 23.4002 2.3732 23.404 2.87195 23.3512C3.41202 23.294 4.02204 23.1278 4.5675 22.9776L4.64915 22.9551C5.19437 22.8048 5.69677 22.6663 6.15501 22.5927C6.63787 22.5151 6.93861 22.5346 7.10946 22.5977C11.4227 24.5806 16.69 23.8087 20.25 20.2483C24.8015 15.6963 24.8099 8.30776 20.25 3.74737C15.6981 -0.805038 8.30362 -0.804922 3.75165 3.74853C1.02238 6.47727 -0.0690891 10.213 0.464669 13.7493C0.534065 14.2091 0.963046 14.5256 1.42283 14.4562C1.8826 14.3868 2.19907 13.9578 2.12968 13.498C1.67223 10.4673 2.60761 7.27341 4.94254 4.93898Z"
          fill="#292929"/>
    <path d="M6.85796 10.6116C6.09253 10.6116 5.47095 11.2334 5.47095 11.9991C5.47095 12.7637 6.09253 13.3855 6.85796 13.3855C7.62338 13.3855 8.24497 12.7637 8.24497 11.9991C8.24497 11.2334 7.62338 10.6116 6.85796 10.6116Z"
          fill="#292929"/>
    <path d="M13.3822 11.9986C13.3822 11.2339 12.7606 10.6111 11.9952 10.6111C11.2297 10.6111 10.6082 11.2339 10.6082 11.9986C10.6082 12.7632 11.2297 13.386 11.9952 13.386C12.7606 13.386 13.3822 12.7632 13.3822 11.9986Z"
          fill="#292929"/>
    <path d="M18.5187 11.9986C18.5187 11.2339 17.8971 10.6111 17.1316 10.6111C16.3662 10.6111 15.7446 11.2339 15.7446 11.9986C15.7446 12.7632 16.3662 13.386 17.1316 13.386C17.8971 13.386 18.5187 12.7632 18.5187 11.9986Z"
          fill="#292929"/>
</svg>
