<svg width="7" height="7" viewBox="0 0 7 7" fill="none" xmlns="http://www.w3.org/2000/svg">
    <path d="M4.48973 3.49988L5.82991 2.15957C5.82991 2.15957 5.83084 2.15957 5.83084 2.15864L6.79491 1.19447C7.06836 0.920997 7.06836 0.478583 6.79491 0.205107C6.52146 -0.068369 6.07816 -0.068369 5.80471 0.205107L5.32408 0.68579C5.32314 0.686723 5.32314 0.686723 5.32314 0.686723L3.49953 2.50958L1.19529 0.205107C0.921839 -0.068369 0.478535 -0.068369 0.205086 0.205107C-0.0683621 0.478583 -0.0683621 0.920997 0.205086 1.19447L2.51027 3.49988L0.205086 5.80529C-0.0683621 6.07877 -0.0683621 6.52118 0.205086 6.79466C0.342277 6.93186 0.521465 7 0.69972 7C0.878908 7 1.0581 6.93186 1.19529 6.79466L3.49953 4.49018L5.80471 6.79466C5.9419 6.93186 6.12109 7 6.29935 7C6.47853 7 6.65772 6.93186 6.79491 6.79466C7.06836 6.52118 7.06836 6.07877 6.79491 5.80529L4.48973 3.49988Z" fill="#858585"/>
</svg>
