<svg width="48" height="48" viewBox="0 0 48 48" fill="none" xmlns="http://www.w3.org/2000/svg">
    <path fill-rule="evenodd" clip-rule="evenodd" d="M18.0923 10.9939H40.5721C41.3602 10.9939 42 11.6479 42 12.4559C42 13.2659 41.3602 13.9199 40.5721 13.9199H7.42596C6.63788 13.9199 6 13.2659 6 12.4559C6 11.6479 6.63788 10.9939 7.42596 10.9939H13.8145C14.665 10.9939 15.4043 10.3719 15.5701 9.51992L16.0461 7.07995C16.5279 5.22798 18.0884 4 19.8636 4H28.1364C29.9116 4 31.4721 5.22798 31.9325 6.98796C32.1373 7.76994 31.6847 8.57193 30.924 8.78193C30.1652 8.99192 29.381 8.52793 29.1762 7.74594C29.0494 7.26395 28.6222 6.92796 28.1364 6.92796H19.8636C19.3778 6.92796 18.9506 7.26395 18.8238 7.74594L18.3693 10.0919C18.3069 10.4079 18.2094 10.7039 18.0923 10.9939ZM16.3098 40.9934C14.4762 40.9534 13.4384 39.9334 13.2258 37.9594C12.6133 32.3135 11.5638 18.9437 11.554 18.8097C11.4916 18.0037 10.803 17.4297 10.0169 17.4657C9.23075 17.5317 8.64555 18.2377 8.70992 19.0417C8.71967 19.1777 9.77109 32.5935 10.3875 38.2854C10.7562 41.6914 13.0014 43.8493 16.2513 43.9193H16.2806C17.055 43.9193 17.6909 43.2853 17.7085 42.4873C17.7241 41.6794 17.0979 41.0094 16.3098 40.9934ZM37.9832 17.4665C37.2068 17.4245 36.5085 18.0025 36.4461 18.8085C36.4363 18.9425 35.3791 32.3483 34.7724 37.9502C34.5559 39.9662 33.5044 40.9642 31.5557 41.0022L30.781 41.016C28.3067 41.0605 27.155 41.0812 24.3908 41.0722H24.3869C23.5988 41.0722 22.961 41.7221 22.959 42.5281C22.9551 43.3381 23.593 43.9941 24.3811 43.9981C24.8687 44.0001 25.3545 44.0001 25.8421 44.0001C27.8806 44.0001 28.6946 43.9838 30.2234 43.9531C30.6242 43.9451 31.0743 43.9361 31.6084 43.9261C34.9909 43.8641 37.2361 41.7501 37.6106 38.2702C38.2212 32.6283 39.2804 19.1785 39.2902 19.0445C39.3546 18.2385 38.7694 17.5325 37.9832 17.4665Z" fill="#292929"/>
</svg>
