<svg width="24" height="24" viewBox="0 0 24 24" fill="none" xmlns="http://www.w3.org/2000/svg">
    <path fill-rule="evenodd" clip-rule="evenodd" d="M6.57875 12.2264L6.47007 16.5548C6.46539 16.7858 6.55304 17.0087 6.7143 17.1743C6.87673 17.3412 7.09876 17.4345 7.33014 17.4345H11.6305C12.5245 17.4345 13.3658 17.0868 13.9992 16.4545L22.614 7.8537C23.2941 7.17586 23.6669 6.27401 23.6669 5.31499C23.6669 4.35831 23.2941 3.4553 22.614 2.77746L21.2175 1.38327C19.8152 -0.0167533 17.5353 -0.0167533 16.1342 1.38327L7.55918 9.9444C6.94918 10.5534 6.60095 11.3643 6.57875 12.2264ZM8.29893 12.2693C8.31062 11.8505 8.47889 11.455 8.77688 11.1586L15.4284 4.5167L17.6137 6.70073C17.7819 6.86757 18.0016 6.95157 18.2225 6.95157C18.4422 6.95157 18.663 6.86757 18.8313 6.70073C19.1667 6.36356 19.1667 5.82105 18.8313 5.48505L16.6449 3.30218L17.3507 2.5975C18.0811 1.86832 19.2695 1.86832 20.0011 2.5975L21.3975 3.99286C22.1279 4.72203 22.1279 5.90855 21.3975 6.6389L12.7828 15.2397C12.4743 15.5477 12.0653 15.7157 11.6305 15.7157H8.21362L8.29893 12.2693ZM1.19502 12.517C1.66946 12.517 2.0551 12.132 2.0551 11.6584V7.26112C2.0551 4.12274 3.97039 2.09504 6.93507 2.09504H11.2249C11.7005 2.09504 12.0862 1.71121 12.0862 1.23637C12.0862 0.762691 11.7005 0.377686 11.2249 0.377686H6.93507C2.98645 0.377686 0.333781 3.14389 0.333781 7.26112V11.6584C0.333781 12.132 0.719411 12.517 1.19502 12.517ZM22.8017 11.3112C22.3261 11.3112 21.9417 11.695 21.9417 12.1699V16.7829C21.9417 19.9213 20.0252 21.9479 17.0593 21.9479H6.93479C3.97011 21.9479 2.05598 19.9213 2.05598 16.7829C2.05598 16.3093 1.67035 15.9243 1.19474 15.9243C0.720295 15.9243 0.333496 16.3093 0.333496 16.7829C0.333496 20.9002 2.98617 23.6664 6.93479 23.6664H17.0593C21.0091 23.6664 23.6618 20.9002 23.6618 16.7829V12.1699C23.6618 11.695 23.2762 11.3112 22.8017 11.3112Z" fill="#292929"/>
</svg>
