<svg width="24" height="24" viewBox="0 0 24 24" fill="none" xmlns="http://www.w3.org/2000/svg">
    <path d="M6.49115 2.80271C8.34706 2.21871 10.3547 2.48785 12 3.53981C13.6452 2.48785 15.6588 2.21871 17.5147 2.80271C19.1289 3.3047 20.4712 4.45775 21.2294 5.99383C22.1157 7.84438 22.2488 9.97655 21.6 11.9266C20.9838 13.7276 19.9659 15.3584 18.6265 16.6908C16.8051 18.4723 14.7958 20.0429 12.6353 21.3741C12.5156 21.457 12.2529 21.5004 12 21.5C11.7493 21.4995 11.4903 21.457 11.3706 21.3741C9.21007 20.0429 7.20077 18.4723 5.37938 16.6908C4.03993 15.3584 3.02208 13.7276 2.40583 11.9266C1.75701 9.97655 1.8902 7.84438 2.77642 5.99383C3.5347 4.45775 4.87695 3.3047 6.49115 2.80271Z" fill="#FD6A58"/>
</svg>
