<svg width="20" height="24" viewBox="0 0 20 24" fill="none" xmlns="http://www.w3.org/2000/svg">
    <path fill-rule="evenodd" clip-rule="evenodd" d="M19.1302 11.1941C19.6038 11.907 19.8755 12.7331 19.9168 13.5859L19.8858 13.8015C19.9215 14.9685 19.5319 16.1092 18.7886 17.0146C17.8393 18.0389 16.5416 18.6787 15.1452 18.811C11.7054 19.1886 8.23421 19.1886 4.79448 18.811C3.41847 18.6697 2.14333 18.0301 1.21315 17.0146C0.457548 16.1222 0.0563677 14.987 0.0849219 13.822V13.6783C0.141829 12.8 0.434902 11.9528 0.933678 11.2249L1.01648 11.1222C1.5352 10.5385 1.8919 9.83095 2.05155 9.06914V8.18631V6.95446C2.19833 6.5836 2.57736 6.3562 2.9767 6.3994C3.37604 6.44261 3.69672 6.74572 3.75941 7.13924V8.16578V9.25392C3.76344 9.29145 3.76344 9.3293 3.75941 9.36683C3.54389 10.4259 3.05128 11.4101 2.33102 12.2206C2.05364 12.6588 1.89664 13.1613 1.87559 13.6783V13.9042C1.85261 14.6313 2.09521 15.3421 2.55874 15.9059C3.20137 16.5642 4.06074 16.9722 4.98079 17.0556C8.31079 17.4149 11.6703 17.4149 15.0003 17.0556C15.9454 16.9696 16.8258 16.5422 17.4741 15.8546C17.9148 15.3041 18.1457 14.6171 18.1262 13.9144V13.6783C18.1049 13.1596 17.9518 12.6547 17.6811 12.2104C16.9308 11.409 16.4092 10.424 16.1699 9.35657C16.1659 9.31904 16.1659 9.28118 16.1699 9.24365V8.14525V7.1187C15.8697 4.01854 12.7542 2.09891 10.0423 2.09891C8.88933 2.09628 7.75535 2.38982 6.75076 2.95094C6.4726 3.11678 6.12547 3.11932 5.84486 2.95759C5.56425 2.79585 5.39464 2.49547 5.40222 2.17367C5.40981 1.85188 5.59338 1.55968 5.8813 1.41112C7.12613 0.713669 8.52977 0.342682 9.95947 0.333252C13.5408 0.333252 17.5569 2.85855 18.0123 6.9134V8.12472V9.02808C18.1678 9.79131 18.525 10.4999 19.0474 11.0812C19.0783 11.1163 19.106 11.1541 19.1302 11.1941ZM10.2932 21.8359C10.9015 21.7453 11.4481 21.4177 11.8118 20.9258H11.8222C12.1366 20.5487 12.6996 20.4959 13.0798 20.8077C13.4599 21.1195 13.5132 21.6779 13.1988 22.055C12.4237 23.0602 11.2246 23.6548 9.94869 23.6666C8.67644 23.6516 7.48179 23.0573 6.70893 22.055C6.39452 21.6779 6.44781 21.1195 6.82796 20.8077C7.20811 20.4959 7.77116 20.5487 8.08557 20.9258C8.22365 21.1088 8.38748 21.2713 8.57205 21.4082C9.06541 21.7725 9.68495 21.9264 10.2932 21.8359Z" fill="#292929"/>
</svg>
