<svg width="40" height="40" viewBox="0 0 40 40" fill="none" xmlns="http://www.w3.org/2000/svg">
    <path d="M3.33398 20.0002C3.33398 10.7954 10.7959 3.3335 20.0007 3.3335C29.2054 3.3335 36.6673 10.7954 36.6673 20.0002C36.6673 29.2049 29.2054 36.6668 20.0007 36.6668C10.7959 36.6668 3.33398 29.2049 3.33398 20.0002Z" fill="#292929"/>
    <path fill-rule="evenodd" clip-rule="evenodd" d="M20.0004 3.3335C10.7958 3.3335 3.33398 10.7953 3.33398 20C3.33398 29.2046 10.7958 36.6664 20.0004 36.6664C29.2051 36.6664 36.6669 29.2046 36.6669 20C36.6669 10.7953 29.2051 3.3335 20.0004 3.3335ZM18.6407 26.4601L27.6049 17.4694C28.4174 16.6435 28.4174 15.3116 27.6049 14.4991L25.8733 12.7676C25.0475 11.9417 23.7155 11.9417 22.8897 12.7676L21.9973 13.6733C21.8641 13.8065 21.8641 14.0329 21.9973 14.1661C21.9973 14.1661 24.1151 16.2706 24.1551 16.3239C24.3016 16.4837 24.3948 16.6968 24.3948 16.9366C24.3948 17.4161 24.0085 17.8157 23.5157 17.8157C23.2893 17.8157 23.0762 17.7224 22.9296 17.5759L20.7053 15.3649C20.5987 15.2583 20.4122 15.2583 20.3057 15.3649L13.9522 21.7183C13.5127 22.1578 13.2596 22.7439 13.2463 23.3699L13.1663 26.5266C13.1663 26.6998 13.2196 26.8596 13.3395 26.9795C13.4594 27.0994 13.6192 27.166 13.7924 27.166H16.9225C17.5618 27.166 18.1745 26.9129 18.6407 26.4601Z" fill="white"/>
</svg>
