<svg width="28" height="28" viewBox="0 0 28 28" fill="none" xmlns="http://www.w3.org/2000/svg">
    <path d="M15.7393 17.6337C15.7393 17.4089 15.6466 17.1941 15.4831 17.0398C15.3197 16.8855 15.0998 16.8054 14.8754 16.8184C11.2285 17.0294 6.87395 19.8119 3.78197 24.6822C3.70939 24.7965 3.60217 24.8499 3.5004 24.8499C3.34563 24.8499 3.15016 24.7055 3.15016 24.4388C3.15016 21.1047 3.62064 17.3555 5.33864 14.1891C7.03538 11.0618 9.98107 8.43983 15.0905 7.36644C15.4686 7.28702 15.7393 6.95354 15.7393 6.56722V4.01873C15.7393 3.60574 15.9664 3.32942 16.2385 3.21214C16.5055 3.09703 16.8154 3.13075 17.0641 3.3966L24.6513 11.5054C24.9165 11.7888 24.9165 12.2595 24.6513 12.5429L17.0641 20.6517C16.8154 20.9176 16.5055 20.9513 16.2385 20.8362C15.9664 20.7189 15.7393 20.4426 15.7393 20.0296V17.6337Z" stroke="#292929" stroke-width="1.63333" stroke-linejoin="round"/>
</svg>
