<svg width="20" height="20" viewBox="0 0 20 20" fill="none" xmlns="http://www.w3.org/2000/svg">
    <path fill-rule="evenodd" clip-rule="evenodd" d="M15.5216 0.80246C17.1358 1.30445 18.4781 2.45751 19.2363 3.99358C20.123 5.85533 20.2437 8.00057 19.5716 9.95334C18.9531 11.751 17.9389 13.3807 16.6069 14.7175C15.7335 15.6152 14.7924 16.4417 13.7922 17.1895L13.7392 17.2345C13.4069 17.4582 12.9601 17.3703 12.7334 17.0367C12.6181 16.8756 12.5718 16.6738 12.605 16.4773C12.6383 16.2809 12.7482 16.1065 12.9098 15.994C13.8484 15.2868 14.7332 14.5086 15.5569 13.6658C16.7431 12.4985 17.649 11.0681 18.204 9.4859C18.7378 7.90932 18.6298 6.18062 17.904 4.68574C17.3199 3.50976 16.2908 2.62691 15.054 2.24071C13.4763 1.73813 11.7575 2.04281 10.4392 3.05872C10.1771 3.2565 9.81894 3.2565 9.55686 3.05872C8.23916 2.04139 6.51968 1.7366 4.94213 2.24071C3.69694 2.61838 2.65761 3.49856 2.06564 4.67675C1.35623 6.17052 1.25475 7.88931 1.78328 9.45894C2.34064 11.0373 3.24626 12.4643 4.43036 13.6299C6.17998 15.339 8.10931 16.8463 10.1833 18.1244C10.4471 18.3108 10.5631 18.649 10.4707 18.9622C10.3783 19.2754 10.0984 19.4924 9.77745 19.4997C9.63277 19.5006 9.49124 19.4567 9.37157 19.3739C7.21104 18.0427 5.20174 16.472 3.38035 14.6906C2.04091 13.3581 1.02306 11.7273 0.406805 9.92637C-0.242012 7.9763 -0.108827 5.84413 0.777395 3.99358C1.53567 2.45751 2.87793 1.30445 4.49212 0.80246C6.34804 0.218461 8.36164 0.487601 10.0069 1.53956C11.6521 0.487601 13.6657 0.218461 15.5216 0.80246ZM14.798 7.68807C14.7611 6.85736 14.2181 6.13888 13.4392 5.89026C13.1496 5.70606 13.021 5.34415 13.1277 5.01376C13.2344 4.68337 13.5488 4.46998 13.8892 4.49695C15.2049 4.92007 16.1413 6.10819 16.2627 7.50829C16.2876 7.70405 16.2344 7.90179 16.115 8.05724C15.9956 8.21269 15.8199 8.31285 15.6274 8.33529C15.2233 8.38848 14.8529 8.09939 14.798 7.68807Z" fill="#292929"/>
</svg>
