<svg width="22" height="20" viewBox="0 0 22 20" fill="none" xmlns="http://www.w3.org/2000/svg">
    <path d="M2.89712 14.9495L2.90361 14.973L2.89878 14.9743C2.84637 14.9888 2.79446 15.0033 2.74288 15.0178L2.74179 15.0181C2.43538 15.1041 2.14085 15.1867 1.8397 15.2186C1.82323 15.2204 1.80786 15.2218 1.79354 15.2229C1.78656 15.2234 1.77968 15.221 1.77456 15.2162C1.76944 15.2115 1.76655 15.2048 1.7666 15.1978C1.76675 15.1779 1.76722 15.1566 1.76809 15.1337C1.77771 14.882 1.83043 14.5563 1.9062 14.2124C1.98056 13.8749 2.07065 13.5484 2.14299 13.3041C2.17851 13.1841 2.24299 12.9821 2.26577 12.9108L2.26588 12.9104C2.39858 12.5146 2.18583 12.0858 1.79006 11.9522C1.39262 11.818 0.96263 12.0357 0.829156 12.4307C0.829133 12.4308 0.829111 12.4308 0.829088 12.4309L0.828037 12.4342L0.804293 12.4266L0.828036 12.4342C0.802578 12.5139 0.729613 12.7422 0.690596 12.874C0.61207 13.1392 0.511557 13.5025 0.426953 13.8865C0.343751 14.2641 0.269157 14.6916 0.254473 15.0759C0.247151 15.2675 0.253365 15.477 0.293555 15.6775C0.331675 15.8677 0.416603 16.1315 0.629844 16.3448C1.0546 16.769 1.63918 16.7631 1.99926 16.7249C2.40892 16.6815 2.808 16.5711 3.18865 16.4657L3.28195 16.4399L3.28197 16.4399C3.66986 16.333 4.01596 16.2378 4.32947 16.1875C4.65486 16.1352 4.83272 16.1522 4.91618 16.1807L4.91858 16.1815L4.91853 16.1817C5.61391 16.5005 6.34365 16.7201 7.08628 16.8402C7.09222 16.8412 7.09762 16.8443 7.10148 16.8489C7.26255 17.0417 7.43358 17.2289 7.61459 17.4099C10.1796 19.9753 13.9735 20.5325 17.0815 19.1074L17.0838 19.1063L17.0838 19.1065C17.1673 19.078 17.3452 19.0609 17.6706 19.1132C17.9841 19.1636 18.3302 19.2588 18.718 19.3657L18.7181 19.3657L18.8114 19.3915C19.192 19.4969 19.5911 19.6073 20.0008 19.6507C20.3608 19.6888 20.9454 19.6947 21.3702 19.2705C21.5834 19.0572 21.6683 18.7934 21.7065 18.6032C21.7467 18.4027 21.7529 18.1933 21.7455 18.0016C21.7309 17.6173 21.6563 17.1899 21.5731 16.8122C21.4885 16.4282 21.3879 16.0649 21.3094 15.7997C21.2704 15.668 21.1974 15.4396 21.172 15.3599L21.1709 15.3566C21.0375 14.9616 20.6075 14.7437 20.21 14.8779C19.8142 15.0115 19.6014 15.4403 19.7341 15.8362L19.7342 15.8365C19.757 15.9078 19.8215 16.1099 19.857 16.2298C19.9294 16.4741 20.0195 16.8007 20.0938 17.1382C20.1696 17.4821 20.2223 17.8078 20.2319 18.0595C20.2328 18.0823 20.2333 18.1037 20.2334 18.1235C20.2335 18.1305 20.2306 18.1373 20.2254 18.142C20.2203 18.1468 20.2133 18.1492 20.2064 18.1486L20.1907 18.1473L20.1903 18.1473L20.1605 18.1444L20.1603 18.1444C19.8592 18.1125 19.5647 18.0298 19.2583 17.9439L19.2572 17.9436L19.1814 17.9223L19.1814 17.9223L19.1012 17.9001L19.1012 17.9001L19.0965 17.8987L19.1031 17.8746L19.0965 17.8987C18.7325 17.7983 18.3108 17.6819 17.9108 17.6176C17.4698 17.5468 16.9298 17.5087 16.4705 17.7211C14.1784 18.7811 11.4332 18.5233 9.3713 16.9406C9.36321 16.9344 9.3597 16.9239 9.36244 16.9141C9.36517 16.9042 9.37359 16.8971 9.38373 16.8959C11.2098 16.6907 12.9816 15.8882 14.3854 14.4842C16.9217 11.9476 17.5015 8.18936 16.1162 5.09493C16.1106 5.08243 16.1161 5.06775 16.1285 5.06201C16.1398 5.05684 16.1528 5.06068 16.1596 5.07056C16.9895 5.40704 17.7668 5.91156 18.4391 6.58409C20.0523 8.19694 20.6987 10.4033 20.3825 12.4978C20.3201 12.9114 20.6048 13.2973 21.0184 13.3597C21.432 13.4222 21.8179 13.1375 21.8803 12.7239C22.2651 10.1745 21.4782 7.4807 19.5103 5.51314L19.528 5.49546L19.5103 5.51314C18.2201 4.22248 16.6132 3.4392 14.9386 3.16321C14.9283 3.16923 14.9148 3.16708 14.9069 3.15758C14.7434 2.96134 14.5696 2.77077 14.3854 2.58659C11.1033 -0.695887 5.77186 -0.695834 2.48973 2.5874L2.48973 2.5874C0.521804 4.55496 -0.265048 7.24879 0.119732 9.79814C0.182157 10.2117 0.568047 10.4964 0.981644 10.434C1.39524 10.3716 1.67992 9.98568 1.61749 9.57208C1.30136 7.47755 1.94774 5.2712 3.56093 3.65835C3.56093 3.65835 3.56093 3.65835 3.56093 3.65835M2.89712 14.9495L1.81662 15.1958C1.82323 15.1952 1.83005 15.1945 1.83707 15.1938C2.13611 15.1621 2.42893 15.0799 2.73611 14.9938L2.73613 14.9937L2.73675 14.9936C2.78811 14.9792 2.83987 14.9646 2.89213 14.9502L2.89696 14.9489C3.26068 14.8485 3.68367 14.7317 4.08522 14.6672C4.52701 14.5962 5.07351 14.5569 5.54002 14.7727C8.08773 15.9509 11.1973 15.495 13.2966 13.3955C15.9778 10.714 15.9825 6.36149 13.2966 3.67529C10.6158 0.99418 6.25941 0.994218 3.57861 3.67603L3.56093 3.65835M2.89712 14.9495L2.90361 14.973C3.26758 14.8725 3.68923 14.7562 4.08919 14.6919C4.53024 14.621 5.07025 14.583 5.52953 14.7954C8.08642 15.9779 11.2074 15.5204 13.3143 13.4132C16.0053 10.7219 16.01 6.35359 13.3143 3.65761C10.6237 0.96674 6.25149 0.966777 3.56093 3.65835M2.89712 14.9495L3.56093 3.65835" fill="#858585" stroke="white" stroke-width="0.05" stroke-linecap="round" stroke-linejoin="round"/>
    <path d="M4.80088 7.55469C4.25962 7.55469 3.82007 7.99439 3.82007 8.53584C3.82007 9.07656 4.25962 9.51626 4.80088 9.51626C5.34215 9.51626 5.7817 9.07656 5.7817 8.53584C5.7817 7.99439 5.34215 7.55469 4.80088 7.55469" fill="#858585"/>
    <path d="M9.41427 8.53584C9.41427 7.99511 8.97472 7.55469 8.43345 7.55469C7.89219 7.55469 7.45264 7.99511 7.45264 8.53584C7.45264 9.07656 7.89219 9.51698 8.43345 9.51698C8.97472 9.51698 9.41427 9.07656 9.41427 8.53584Z" fill="#858585"/>
    <path d="M13.0466 8.53584C13.0466 7.99511 12.607 7.55469 12.0658 7.55469C11.5245 7.55469 11.085 7.99511 11.085 8.53584C11.085 9.07656 11.5245 9.51698 12.0658 9.51698C12.607 9.51698 13.0466 9.07656 13.0466 8.53584" fill="#858585"/>
</svg>
