<svg width="24" height="25" viewBox="0 0 24 25" fill="none" xmlns="http://www.w3.org/2000/svg">
    <path fill-rule="evenodd" clip-rule="evenodd" d="M9.92146 11.6464C12.0846 11.6464 13.8553 9.8763 13.8553 7.6924C13.8553 5.50851 12.0846 3.73839 9.92146 3.73839C7.75832 3.73839 5.98766 5.50851 5.98766 7.6924C5.98766 9.8763 7.75832 11.6464 9.92146 11.6464ZM15.2553 7.6924C15.2553 10.6444 12.8629 13.0464 9.92146 13.0464C6.98004 13.0464 4.58764 10.6444 4.58764 7.6924C4.58764 4.74039 6.98004 2.33838 9.92146 2.33838C12.8629 2.33838 15.2553 4.74039 15.2553 7.6924ZM9.92507 14.8984C8.23415 14.8984 6.25839 14.993 4.70408 15.5003C3.92659 15.754 3.25073 16.1122 2.76884 16.617C2.28577 17.123 2 17.7739 2 18.6065C2 19.5418 2.37755 20.2449 2.97352 20.771C3.56783 21.2956 4.37799 21.6431 5.24434 21.874C6.976 22.3356 8.94995 22.3356 9.92354 22.3356H9.92507C11.7839 22.3356 13.9884 22.2215 15.5983 21.5694C16.0195 21.3988 16.1447 20.8942 15.9186 20.5112C15.7239 20.1814 15.3026 20.0771 14.9535 20.2113C14.8673 20.2444 14.7765 20.2767 14.6807 20.3079C13.3719 20.735 11.6059 20.8356 9.92507 20.8356C8.93061 20.8356 7.14599 20.8285 5.63068 20.4246C4.87477 20.2231 4.31528 19.9545 3.96617 19.6464C3.66527 19.3808 3.50001 19.0761 3.50001 18.6065C3.50001 18.1574 3.63878 17.8781 3.85382 17.6528C4.10297 17.3918 4.52494 17.1366 5.1695 16.9262C6.47832 16.4991 8.24422 16.3984 9.92507 16.3984C10.1739 16.3984 10.4722 16.3989 10.8038 16.4059C11.209 16.4144 11.5539 16.1012 11.5707 15.6944C11.588 15.2733 11.2623 14.9149 10.8391 14.906C10.4837 14.8984 10.1721 14.8984 9.92507 14.8984ZM19.4723 10.1635L20.6537 11.1032C20.7035 11.1428 20.7117 11.2153 20.6721 11.265L15.7087 17.5049L14.5805 17.5258L14.347 16.4218L19.3105 10.1819C19.35 10.1321 19.4225 10.1239 19.4723 10.1635ZM21.463 10.0858L20.2816 9.14608C19.6699 8.65954 18.7796 8.76097 18.2931 9.37264L13.2251 15.7439C13.05 15.9642 12.9822 16.2511 13.0404 16.5264L13.4501 18.4642C13.4969 18.6855 13.6942 18.8425 13.9204 18.8383L15.9007 18.8016C16.1821 18.7964 16.4464 18.6658 16.6216 18.4456L21.6895 12.0743C22.1761 11.4626 22.0746 10.5724 21.463 10.0858Z" fill="#1E1E1E"/>
</svg>
