<svg width="200" height="29" viewBox="0 0 200 29" fill="none" xmlns="http://www.w3.org/2000/svg">
    <path fill-rule="evenodd" clip-rule="evenodd" d="M54.3604 28.8805C58.0014 28.8805 61.3108 27.6416 63.7106 25.2408C66.1113 22.8391 67.5835 19.2926 67.5835 14.7115C67.5835 10.1303 66.1113 6.58385 63.7106 4.18211C61.3108 1.78132 58.0014 0.54248 54.3604 0.54248C50.7193 0.54248 47.4099 1.78132 45.0101 4.18211C42.6095 6.58385 41.1372 10.1303 41.1372 14.7115C41.1372 19.2926 42.6095 22.8391 45.0101 25.2408C47.4099 27.6416 50.7193 28.8805 54.3604 28.8805ZM62.4184 14.7115C62.4184 17.8188 61.5053 20.1861 60.0516 21.7742C58.5987 23.3615 56.5899 24.1882 54.3604 24.1882C52.1308 24.1882 50.122 23.3615 48.6691 21.7742C47.2155 20.1861 46.3023 17.8188 46.3023 14.7115C46.3023 11.6042 47.2155 9.23684 48.6691 7.64873C50.122 6.06144 52.1308 5.23469 54.3604 5.23469C56.5899 5.23469 58.5987 6.06144 60.0516 7.64873C61.5053 9.23684 62.4184 11.6042 62.4184 14.7115Z" fill="#292929"/>
    <path fill-rule="evenodd" clip-rule="evenodd" d="M4.93403 0.54248H0.454675C0.20253 0.54248 -0.00679997 0.746836 0.00016914 1.00626C0.0382622 2.42429 0.230023 9.80667 0.230023 14.7115C0.230023 19.6163 0.0382623 26.9986 0.000169166 28.4167C-0.00679994 28.6761 0.202529 28.8805 0.454675 28.8805H4.93403C5.18477 28.8805 5.39558 28.6786 5.38857 28.4178C5.35575 27.1963 5.20823 21.5238 5.16854 16.8386C5.16847 16.8297 5.17549 16.8211 5.18693 16.8211H17.4632C17.4746 16.8211 17.4817 16.8297 17.4816 16.8386C17.4419 21.5238 17.2944 27.1963 17.2615 28.4178C17.2545 28.6786 17.4653 28.8805 17.7161 28.8805H22.1954C22.4476 28.8805 22.6569 28.6761 22.6499 28.4167C22.6119 26.9986 22.4201 19.6163 22.4201 14.7115C22.4201 9.80667 22.6119 2.42429 22.6499 1.00626C22.6569 0.746838 22.4476 0.54248 22.1954 0.54248H17.7161C17.4645 0.54248 17.2546 0.745792 17.2616 1.00579C17.2933 2.18769 17.4322 7.52551 17.4772 12.1111C17.4773 12.1204 17.47 12.1289 17.4588 12.1289H5.19127C5.18009 12.1289 5.17278 12.1204 5.17287 12.1111C5.21796 7.52551 5.3568 2.18769 5.38855 1.00579C5.39554 0.745792 5.1856 0.54248 4.93403 0.54248Z" fill="#292929"/>
    <path d="M136.429 1.46984V27.9531C136.429 28.4653 136.844 28.8805 137.357 28.8805H157.219C157.47 28.8805 157.673 28.677 157.673 28.426V24.5245C157.673 24.2735 157.47 24.07 157.219 24.07H141.967C141.957 24.07 141.949 24.0617 141.949 24.0515V17.076C141.949 17.0658 141.957 17.0576 141.967 17.0576H155.327C155.578 17.0576 155.782 16.8541 155.782 16.6031V12.1104C155.782 11.8595 155.578 11.656 155.327 11.656H141.849C141.839 11.656 141.831 11.6477 141.831 11.6375V5.48962C141.831 5.47942 141.839 5.47115 141.849 5.47115H156.983C157.234 5.47115 157.437 5.26768 157.437 5.0167V0.996923C157.437 0.745941 157.234 0.54248 156.983 0.54248H137.357C136.844 0.54248 136.429 0.957672 136.429 1.46984Z" fill="#292929"/>
    <path d="M178.756 1.46984V27.9531C178.756 28.4653 179.171 28.8805 179.683 28.8805H199.545C199.796 28.8805 200 28.677 200 28.426V24.5245C200 24.2735 199.796 24.07 199.545 24.07H184.294C184.284 24.07 184.275 24.0617 184.275 24.0515V17.076C184.275 17.0658 184.284 17.0576 184.294 17.0576H198.363C198.614 17.0576 198.818 16.8541 198.818 16.6031V12.1104C198.818 11.8595 198.614 11.656 198.363 11.656H184.176C184.165 11.656 184.157 11.6477 184.157 11.6375V5.48962C184.157 5.47942 184.165 5.47115 184.176 5.47115H199.309C199.56 5.47115 199.763 5.26768 199.763 5.0167V0.996923C199.763 0.745941 199.56 0.54248 199.309 0.54248H179.683C179.171 0.54248 178.756 0.957672 178.756 1.46984Z" fill="#292929"/>
    <path d="M86.5184 28.8805H90.5368C90.7888 28.8805 90.9927 28.6753 90.9912 28.4233L90.8777 9.69309L100.381 19.4198C100.559 19.6023 100.853 19.6023 101.031 19.4198L110.534 9.69309L110.421 28.4233C110.419 28.6753 110.623 28.8805 110.875 28.8805H114.893C115.144 28.8805 115.348 28.677 115.348 28.426V0.996923C115.348 0.745942 115.144 0.54248 114.893 0.54248H111.998C111.672 0.54248 111.362 0.678787 111.141 0.918327L100.719 12.2466C100.712 12.2546 100.7 12.2546 100.692 12.2466L90.2703 0.918327C90.0499 0.678787 89.7393 0.54248 89.4138 0.54248H86.5184C86.2674 0.54248 86.064 0.745942 86.064 0.996923V28.426C86.064 28.677 86.2674 28.8805 86.5184 28.8805Z" fill="#292929"/>
</svg>
