<svg width="24" height="24" viewBox="0 0 24 24" fill="none" xmlns="http://www.w3.org/2000/svg">
    <path fill-rule="evenodd" clip-rule="evenodd" d="M7.66549 2H16.3345C19.7235 2 22.0005 4.378 22.0005 7.916V16.084C22.0005 19.622 19.7225 22 16.3335 22H10.9535C10.5395 22 10.2035 21.664 10.2035 21.25C10.2035 20.836 10.5395 20.5 10.9535 20.5H16.3335C18.8645 20.5 20.5005 18.767 20.5005 16.084V7.916C20.5005 5.233 18.8645 3.5 16.3345 3.5H7.66549C5.13549 3.5 3.50049 5.233 3.50049 7.916V16.084C3.50049 18.767 5.13549 20.5 7.66549 20.5C8.07949 20.5 8.41549 20.836 8.41549 21.25C8.41549 21.664 8.07949 22 7.66549 22C4.27649 22 2.00049 19.622 2.00049 16.084V7.916C2.00049 4.378 4.27649 2 7.66549 2ZM6.46749 10.9326C6.63749 10.5546 7.07949 10.3856 7.45949 10.5566C7.83749 10.7256 8.00549 11.1696 7.83549 11.5476C7.77149 11.6906 7.73949 11.8426 7.73949 11.9996C7.73949 12.6076 8.23349 13.1016 8.84049 13.1016C9.44849 13.1016 9.94249 12.6076 9.94249 11.9996C9.94249 11.3926 9.44849 10.8986 8.84049 10.8986C8.42649 10.8986 8.09049 10.5626 8.09049 10.1486C8.09049 9.7346 8.42649 9.3986 8.84049 9.3986C10.0135 9.3986 10.9945 10.1826 11.3185 11.2496H17.0105C17.4245 11.2496 17.7605 11.5856 17.7605 11.9996V13.8516C17.7605 14.2656 17.4245 14.6016 17.0105 14.6016C16.5965 14.6016 16.2605 14.2656 16.2605 13.8516V12.7496H14.9315V13.8516C14.9315 14.2656 14.5955 14.6016 14.1815 14.6016C13.7675 14.6016 13.4315 14.2656 13.4315 13.8516V12.7496H11.3185C10.9945 13.8176 10.0135 14.6016 8.84049 14.6016C7.40649 14.6016 6.23949 13.4346 6.23949 11.9996C6.23949 11.6286 6.31549 11.2706 6.46749 10.9326Z" fill="#292929"/>
</svg>
