<svg width="24" height="25" viewBox="0 0 24 25" fill="none" xmlns="http://www.w3.org/2000/svg">
    <path fill-rule="evenodd" clip-rule="evenodd" d="M12.395 21.3384H17.858C20.142 21.3384 22 19.4974 22 17.2332V14.5579C22 14.1477 21.664 13.8148 21.25 13.8148C20.429 13.8148 19.761 13.1529 19.761 12.3394C19.761 11.5259 20.429 10.864 21.25 10.864C21.449 10.864 21.64 10.7857 21.78 10.646C21.921 10.5063 22 10.317 22 10.1208L21.999 7.44352C21.999 5.1794 20.14 3.33838 17.856 3.33838H6.144C3.86 3.33838 2.002 5.1794 2.002 7.44352L2 10.207C2 10.4032 2.079 10.5925 2.22 10.7322C2.36 10.8719 2.551 10.9502 2.75 10.9502C3.599 10.9502 4.239 11.5467 4.239 12.3394C4.239 13.1529 3.571 13.8148 2.75 13.8148C2.336 13.8148 2 14.1477 2 14.5579V17.2332C2 19.4974 3.858 21.3384 6.143 21.3384H7.933C8.347 21.3384 8.683 21.0054 8.683 20.5952C8.683 20.185 8.347 19.8521 7.933 19.8521H6.143C4.686 19.8521 3.5 18.6769 3.5 17.2332V15.2069C4.787 14.877 5.739 13.7167 5.739 12.3394C5.739 10.9769 4.802 9.8642 3.501 9.55108L3.502 7.44352C3.502 5.99983 4.687 4.82467 6.144 4.82467H17.856C19.313 4.82467 20.499 5.99983 20.499 7.44352L20.5 9.47182C19.213 9.80177 18.261 10.9621 18.261 12.3394C18.261 13.7167 19.214 14.877 20.5 15.2069V17.2332C20.5 18.6769 19.315 19.8521 17.858 19.8521H12.395C11.981 19.8521 11.645 20.185 11.645 20.5952C11.645 21.0054 11.981 21.3384 12.395 21.3384ZM15.7894 11.2658C15.9281 11.4117 16.0019 11.6042 16 11.8079C15.997 12.0116 15.9183 12.2021 15.7756 12.344L14.6085 13.5163L14.884 15.17C14.947 15.547 14.7994 15.9219 14.4983 16.1459C14.1962 16.3708 13.8065 16.3982 13.4768 16.2208L12.0342 15.4426L10.5916 16.2218C10.4528 16.2989 10.2964 16.3384 10.1399 16.3384C9.93523 16.3384 9.73842 16.2715 9.57113 16.1459C9.27099 15.9219 9.1224 15.547 9.18538 15.17L9.4619 13.5163L8.29382 12.344C8.02714 12.0775 7.93366 11.6853 8.04781 11.3205C8.16393 10.9567 8.46406 10.6963 8.8321 10.6426L10.444 10.4004L11.1663 8.89468C11.3296 8.55219 11.6622 8.33939 12.0332 8.33838C12.4062 8.33838 12.7388 8.55016 12.9041 8.89265L13.6914 10.4389C13.8813 10.8139 13.7416 11.2759 13.3784 11.4705C13.2043 11.5657 13.0035 11.583 12.8156 11.5242C12.6256 11.4634 12.4711 11.3307 12.3786 11.1503L12.048 10.5018L11.6002 11.436C11.492 11.661 11.2844 11.818 11.0423 11.8535L10.074 11.9984L10.7746 12.7037C10.9498 12.878 11.0295 13.1303 10.9882 13.3785L10.8228 14.3726L11.6908 13.9034C11.9073 13.7869 12.1651 13.7869 12.3796 13.9034L13.2476 14.3726L13.0822 13.3785C13.0409 13.1303 13.1206 12.878 13.2948 12.7027L14.7414 11.2516C14.8821 11.1118 15.072 11.0206 15.2649 11.0348C15.4637 11.0368 15.6496 11.1179 15.7894 11.2658Z" fill="#1E1E1E"/>
</svg>
